<?xml version="1.0" encoding="UTF-8"?>
<svg id="Layer_3" data-name="Layer 3" xmlns="http://www.w3.org/2000/svg" viewBox="0 0 1606.17 661.15">
  <defs>
    <style>
      .cls-1, .cls-2 {
        fill: #2e72a0;
      }

      .cls-3, .cls-4 {
        fill: #235678;
      }

      .cls-4, .cls-2 {
        fill-rule: evenodd;
      }

      .cls-5 {
        fill: #ce4545;
      }
    </style>
  </defs>
  <g>
    <path class="cls-3" d="m629.93,102.36v16.41l-14.55,2.8v75.82c0,13.12-4.28,23.52-12.82,31.2-8.55,7.68-19.35,11.52-32.41,11.52-14.18,0-25.4-3.45-33.67-10.35-8.27-6.9-12.25-17.07-11.94-30.5l.19-.56h26.49c0,7.15,1.71,12.36,5.13,15.62,3.42,3.26,8.02,4.9,13.8,4.9,5.04,0,9.31-1.94,12.82-5.83,3.51-3.88,5.27-9.22,5.27-16v-75.82l-14.55-2.8v-16.41h56.24Z"/>
    <path class="cls-3" d="m638.32,186.76c0-15.05,4.21-27.37,12.64-36.98,8.42-9.61,20.07-14.41,34.93-14.41s26.59,4.79,35.02,14.36c8.42,9.58,12.64,21.92,12.64,37.03v1.96c0,15.17-4.21,27.53-12.64,37.07-8.43,9.54-20.04,14.32-34.83,14.32s-26.69-4.77-35.11-14.32c-8.43-9.54-12.64-21.9-12.64-37.07v-1.96Zm27.23,1.96c0,9.2,1.62,16.59,4.85,22.15,3.23,5.57,8.45,8.35,15.67,8.35s12.17-2.8,15.44-8.39c3.26-5.6,4.9-12.96,4.9-22.1v-1.96c0-8.95-1.65-16.26-4.94-21.92-3.3-5.66-8.49-8.49-15.57-8.49s-12.25,2.83-15.48,8.49c-3.23,5.66-4.85,12.96-4.85,21.92v1.96Z"/>
    <path class="cls-3" d="m742.03,221.83l13.15-2.8v-107.16l-14.55-2.8v-16.41h41.69v57.45c3.17-4.66,7.06-8.28,11.66-10.87,4.6-2.58,9.7-3.87,15.29-3.87,10.57,0,18.85,3.5,24.85,10.49,6,6.99,9,17.8,9,32.41v40.75l13.06,2.8v16.32h-52.04v-16.32l11.75-2.8v-40.94c0-7.83-1.38-13.38-4.15-16.65-2.77-3.26-6.89-4.9-12.36-4.9-3.79,0-7.1.68-9.93,2.05-2.83,1.37-5.21,3.3-7.13,5.78v54.65l11.75,2.8v16.32h-52.04v-16.32Z"/>
    <path class="cls-3" d="m863.45,221.83l13.06-2.8v-62.58l-14.46-2.8v-16.41h39.82l1.21,14.46c3.36-5.16,7.49-9.17,12.4-12.03,4.91-2.86,10.41-4.29,16.51-4.29,10.2,0,18.15,3.2,23.88,9.61,5.72,6.4,8.58,16.45,8.58,30.12v43.93l13.06,2.8v16.32h-52.04v-16.32l11.66-2.8v-43.83c0-6.78-1.37-11.58-4.1-14.41-2.74-2.83-6.87-4.24-12.4-4.24-3.61,0-6.84.73-9.7,2.19-2.86,1.46-5.25,3.53-7.18,6.2v54.09l11.01,2.8v16.32h-51.29v-16.32Z"/>
  </g>
  <g>
    <path class="cls-3" d="m623.85,309.92h-20.42l-3.54-18.65c-2.36-1.49-5.81-2.8-10.35-3.92-4.54-1.12-9.36-1.68-14.46-1.68-7.46,0-13.23,1.57-17.3,4.71-4.07,3.14-6.11,7.2-6.11,12.17,0,4.6,2.13,8.38,6.39,11.33,4.26,2.95,11.61,6.08,22.06,9.37,14.98,4.17,26.35,9.67,34.09,16.51,7.74,6.84,11.61,15.82,11.61,26.95s-4.6,20.8-13.8,27.51c-9.2,6.71-21.33,10.07-36.37,10.07-10.76,0-20.47-1.71-29.14-5.13-8.67-3.42-15.9-8.14-21.68-14.18v-28.35h21.08l2.89,19.31c2.74,2.24,6.45,4.09,11.15,5.55,4.69,1.46,9.93,2.19,15.71,2.19,7.46,0,13.13-1.52,17.02-4.57,3.89-3.04,5.83-7.12,5.83-12.22s-1.85-9.42-5.55-12.59c-3.7-3.17-10.18-6.16-19.45-8.95-16.1-4.66-28.29-10.2-36.56-16.6-8.27-6.4-12.4-15.17-12.4-26.3s4.66-20,13.99-27c9.33-6.99,21.04-10.58,35.16-10.77,10.45,0,19.96,1.59,28.54,4.76,8.58,3.17,15.79,7.4,21.64,12.68v27.79Z"/>
    <path class="cls-3" d="m634.01,317.85v-16.41h39.82l1.12,13.34c3.23-4.85,7.29-8.59,12.17-11.24,4.88-2.64,10.52-3.96,16.93-3.96s12,1.43,16.6,4.29c4.6,2.86,8.08,7.18,10.45,12.96,3.11-5.41,7.15-9.64,12.12-12.68,4.97-3.04,10.82-4.57,17.53-4.57,9.95,0,17.8,3.44,23.55,10.31,5.75,6.87,8.63,17.33,8.63,31.38v41.97l13.15,2.8v16.32h-52.13v-16.32l11.75-2.8v-42.06c0-7.65-1.24-12.96-3.73-15.95-2.49-2.98-6.19-4.48-11.1-4.48-3.86,0-7.2.85-10.03,2.56-2.83,1.71-5.08,4.09-6.76,7.13,0,1.18.03,2.19.09,3.03.06.84.09,1.7.09,2.57v47.19l11,2.8v16.32h-49.15v-16.32l11-2.8v-42.06c0-7.46-1.24-12.73-3.73-15.81-2.49-3.08-6.22-4.62-11.19-4.62-3.67,0-6.89.7-9.65,2.1-2.77,1.4-5.05,3.37-6.85,5.92v54.46l11.75,2.8v16.32h-52.04v-16.32l13.15-2.8v-62.58l-14.55-2.8Z"/>
    <path class="cls-3" d="m879.1,402.34c-.75-1.68-1.4-3.4-1.96-5.18-.56-1.77-1-3.56-1.3-5.36-3.23,3.73-7.17,6.75-11.8,9.05-4.63,2.3-9.93,3.45-15.9,3.45-9.89,0-17.74-2.69-23.55-8.07-5.81-5.38-8.72-12.7-8.72-21.96s3.79-16.75,11.38-21.92c7.58-5.16,18.71-7.74,33.39-7.74h13.9v-9.89c0-4.85-1.4-8.61-4.2-11.28-2.8-2.67-6.93-4.01-12.4-4.01-3.11,0-5.88.36-8.3,1.07-2.42.71-4.38,1.57-5.88,2.56l-1.77,10.82h-20.52l.09-22.38c4.97-3.36,10.68-6.19,17.11-8.49,6.43-2.3,13.44-3.45,21.03-3.45,12.5,0,22.65,3.06,30.45,9.19,7.8,6.12,11.7,14.84,11.7,26.16v41.69c0,1.55.01,3.02.05,4.38.03,1.37.14,2.67.33,3.92l8.3,1.12v16.32h-31.43Zm-23.6-18.19c4.1,0,7.83-.89,11.19-2.66,3.36-1.77,5.97-3.99,7.83-6.67v-15.39h-13.9c-5.78,0-10.17,1.35-13.15,4.06-2.98,2.71-4.48,5.95-4.48,9.75,0,3.42,1.1,6.09,3.31,8.02,2.21,1.93,5.27,2.89,9.19,2.89Z"/>
    <path class="cls-3" d="m916.88,273.27v-16.41h41.78v126.37l13.15,2.8v16.32h-53.53v-16.32l13.15-2.8v-107.16l-14.55-2.8Z"/>
    <path class="cls-3" d="m977.78,273.27v-16.41h41.78v126.37l13.15,2.8v16.32h-53.53v-16.32l13.15-2.8v-107.16l-14.55-2.8Z"/>
    <path class="cls-3" d="m1185.38,317.85l-10.17,1.31-21.08,83.19h-22.76l-18.75-60.06h-.56l-18.75,60.06h-22.66l-21.17-83.19-10.17-1.31v-16.41h45.7v16.41l-10.73,2.05,9.51,46.16h.56l18.84-64.63h18.28l19.03,64.82h.56l9.42-46.26-10.82-2.15v-16.41h45.7v16.41Z"/>
    <path class="cls-3" d="m1194.7,350.96c0-15.05,4.21-27.37,12.64-36.98,8.42-9.61,20.07-14.41,34.93-14.41s26.59,4.79,35.02,14.36c8.42,9.58,12.64,21.92,12.64,37.03v1.96c0,15.17-4.21,27.53-12.64,37.07-8.43,9.54-20.04,14.32-34.83,14.32s-26.69-4.77-35.11-14.32c-8.43-9.54-12.64-21.9-12.64-37.07v-1.96Zm27.23,1.96c0,9.2,1.62,16.59,4.85,22.15,3.23,5.57,8.46,8.35,15.67,8.35s12.17-2.8,15.44-8.39c3.26-5.6,4.9-12.96,4.9-22.1v-1.96c0-8.95-1.65-16.26-4.94-21.92-3.3-5.66-8.49-8.49-15.57-8.49s-12.25,2.83-15.48,8.49c-3.23,5.66-4.85,12.96-4.85,21.92v1.96Z"/>
    <path class="cls-3" d="m1301.77,350.96c0-15.05,4.21-27.37,12.64-36.98,8.42-9.61,20.07-14.41,34.93-14.41s26.59,4.79,35.02,14.36c8.42,9.58,12.64,21.92,12.64,37.03v1.96c0,15.17-4.21,27.53-12.64,37.07-8.43,9.54-20.04,14.32-34.83,14.32s-26.69-4.77-35.11-14.32c-8.43-9.54-12.64-21.9-12.64-37.07v-1.96Zm27.23,1.96c0,9.2,1.62,16.59,4.85,22.15,3.23,5.57,8.46,8.35,15.67,8.35s12.17-2.8,15.44-8.39c3.26-5.6,4.9-12.96,4.9-22.1v-1.96c0-8.95-1.65-16.26-4.94-21.92-3.3-5.66-8.49-8.49-15.57-8.49s-12.25,2.83-15.48,8.49c-3.23,5.66-4.85,12.96-4.85,21.92v1.96Z"/>
    <path class="cls-3" d="m1474.49,390.03c-3.17,4.66-6.92,8.21-11.24,10.63-4.32,2.42-9.25,3.64-14.78,3.64-12.44,0-22.09-4.54-28.96-13.62-6.87-9.08-10.31-21.08-10.31-36v-1.96c0-15.92,3.45-28.75,10.35-38.52,6.9-9.76,16.6-14.64,29.1-14.64,5.04,0,9.57,1.1,13.62,3.31,4.04,2.21,7.58,5.33,10.63,9.37v-36.19l-14.55-2.8v-16.41h41.78v126.37l13.06,2.8v16.32h-36.65l-2.05-12.31Zm-38.05-35.35c0,8.83,1.48,15.78,4.43,20.84,2.95,5.07,7.79,7.6,14.5,7.6,3.98,0,7.43-.81,10.35-2.42,2.92-1.62,5.32-3.95,7.18-6.99v-42.81c-1.87-3.23-4.24-5.74-7.13-7.51-2.89-1.77-6.29-2.66-10.21-2.66-6.65,0-11.5,2.95-14.55,8.86-3.05,5.91-4.57,13.62-4.57,23.13v1.96Z"/>
  </g>
  <path class="cls-3" d="m524.52,429.21h54.65c10.82,0,18.89.45,24.2,1.35,5.32.9,10.07,2.78,14.27,5.64,4.2,2.86,7.69,6.67,10.49,11.42,2.8,4.76,4.2,10.09,4.2,15.99,0,6.41-1.73,12.28-5.18,17.63-3.45,5.35-8.13,9.36-14.04,12.03,8.33,2.42,14.74,6.56,19.21,12.4,4.48,5.84,6.71,12.72,6.71,20.61,0,6.22-1.45,12.27-4.34,18.14-2.89,5.88-6.84,10.57-11.84,14.08-5.01,3.51-11.18,5.67-18.51,6.48-4.6.5-15.7.81-33.29.93h-46.54v-136.72Zm27.61,22.76v31.62h18.09c10.76,0,17.44-.16,20.05-.47,4.72-.56,8.44-2.19,11.15-4.9s4.06-6.26,4.06-10.68-1.17-7.66-3.5-10.31c-2.33-2.64-5.8-4.24-10.4-4.8-2.74-.31-10.6-.47-23.6-.47h-15.85Zm0,54.37v36.56h25.55c9.95,0,16.26-.28,18.93-.84,4.1-.75,7.44-2.56,10.03-5.46,2.58-2.89,3.87-6.76,3.87-11.61,0-4.1-1-7.58-2.98-10.45-1.99-2.86-4.87-4.94-8.63-6.25-3.76-1.31-11.92-1.96-24.48-1.96h-22.29Z"/>
  <path class="cls-3" d="m727.37,565.93v-14.83c-3.61,5.29-8.35,9.45-14.22,12.5-5.88,3.05-12.08,4.57-18.61,4.57s-12.62-1.46-17.91-4.38c-5.29-2.92-9.11-7.03-11.47-12.31-2.36-5.28-3.54-12.59-3.54-21.92v-62.67h26.21v45.51c0,13.93.48,22.46,1.45,25.6.96,3.14,2.72,5.63,5.27,7.46,2.55,1.83,5.78,2.75,9.7,2.75,4.48,0,8.49-1.23,12.03-3.68,3.54-2.46,5.97-5.5,7.27-9.14,1.31-3.64,1.96-12.54,1.96-26.72v-41.78h26.21v99.04h-24.34Z"/>
  <path class="cls-3" d="m803.94,565.93h-26.21v-99.04h24.34v14.08c4.17-6.65,7.91-11.04,11.24-13.15,3.33-2.11,7.1-3.17,11.33-3.17,5.97,0,11.72,1.65,17.25,4.94l-8.11,22.85c-4.42-2.86-8.52-4.29-12.31-4.29s-6.78,1.01-9.33,3.03c-2.55,2.02-4.56,5.67-6.02,10.96-1.46,5.29-2.19,16.35-2.19,33.2v30.59Z"/>
  <path class="cls-3" d="m843.94,537.68l26.3-4.01c1.12,5.1,3.39,8.97,6.81,11.61,3.42,2.64,8.21,3.96,14.36,3.96,6.78,0,11.87-1.24,15.29-3.73,2.3-1.74,3.45-4.07,3.45-7,0-1.99-.62-3.64-1.87-4.94-1.31-1.24-4.23-2.39-8.77-3.45-21.14-4.66-34.54-8.92-40.2-12.78-7.83-5.35-11.75-12.78-11.75-22.29,0-8.58,3.39-15.79,10.17-21.64,6.78-5.84,17.28-8.77,31.52-8.77s23.63,2.21,30.22,6.62c6.59,4.42,11.13,10.94,13.62,19.58l-24.71,4.57c-1.06-3.85-3.06-6.81-6.01-8.86-2.95-2.05-7.17-3.08-12.64-3.08-6.9,0-11.84.96-14.83,2.89-1.99,1.37-2.98,3.14-2.98,5.32,0,1.87.87,3.45,2.61,4.76,2.36,1.74,10.52,4.2,24.48,7.37,13.96,3.17,23.7,7.06,29.24,11.66,5.47,4.66,8.21,11.16,8.21,19.49,0,9.08-3.79,16.88-11.38,23.41-7.59,6.53-18.81,9.79-33.67,9.79-13.49,0-24.17-2.74-32.04-8.21-7.87-5.47-13.01-12.9-15.43-22.29Z"/>
  <path class="cls-3" d="m978.99,497.11l-23.78-4.29c2.67-9.57,7.27-16.66,13.8-21.26,6.53-4.6,16.23-6.9,29.1-6.9,11.69,0,20.39,1.38,26.11,4.15,5.72,2.77,9.75,6.28,12.08,10.54,2.33,4.26,3.5,12.08,3.5,23.46l-.28,30.59c0,8.71.42,15.13,1.26,19.26.84,4.14,2.41,8.57,4.71,13.29h-25.93c-.68-1.74-1.52-4.32-2.52-7.74-.44-1.55-.75-2.58-.93-3.08-4.48,4.35-9.26,7.62-14.36,9.79-5.1,2.17-10.54,3.26-16.32,3.26-10.2,0-18.23-2.77-24.11-8.3-5.88-5.53-8.81-12.53-8.81-20.98,0-5.6,1.34-10.59,4.01-14.97,2.67-4.38,6.42-7.74,11.24-10.07,4.82-2.33,11.77-4.37,20.84-6.11,12.25-2.3,20.73-4.44,25.46-6.44v-2.61c0-5.04-1.25-8.63-3.73-10.77-2.49-2.14-7.18-3.22-14.08-3.22-4.66,0-8.3.92-10.91,2.75-2.61,1.83-4.73,5.05-6.34,9.65Zm35.07,21.26c-3.36,1.12-8.67,2.46-15.95,4.01-7.27,1.55-12.03,3.08-14.27,4.57-3.42,2.42-5.13,5.5-5.13,9.23s1.37,6.84,4.1,9.51c2.74,2.67,6.22,4.01,10.45,4.01,4.72,0,9.23-1.55,13.52-4.66,3.17-2.36,5.25-5.25,6.25-8.67.68-2.24,1.03-6.5,1.03-12.78v-5.22Z"/>
  <path class="cls-3" d="m1090.71,565.93h-26.21v-99.04h24.34v14.08c4.17-6.65,7.91-11.04,11.24-13.15,3.33-2.11,7.1-3.17,11.33-3.17,5.97,0,11.72,1.65,17.25,4.94l-8.11,22.85c-4.42-2.86-8.52-4.29-12.31-4.29s-6.78,1.01-9.33,3.03c-2.55,2.02-4.56,5.67-6.02,10.96-1.46,5.29-2.19,16.35-2.19,33.2v30.59Z"/>
  <path class="cls-3" d="m1127.55,466.89h27.89l23.69,70.32,23.13-70.32h27.14l-34.97,95.31-6.25,17.25c-2.3,5.78-4.49,10.2-6.58,13.24-2.08,3.05-4.48,5.52-7.18,7.42-2.71,1.9-6.03,3.37-9.98,4.43-3.95,1.06-8.41,1.58-13.38,1.58s-9.98-.53-14.83-1.58l-2.33-20.52c4.1.81,7.8,1.21,11.1,1.21,6.09,0,10.6-1.79,13.52-5.36,2.92-3.58,5.16-8.13,6.71-13.66l-37.68-99.32Z"/>
  <path class="cls-1" d="m296.66,122.44c49.01,0,95.08,19.09,129.74,53.74,34.65,34.65,53.74,80.73,53.74,129.74v.66c0,49.01-19.08,95.08-53.74,129.74-34.65,34.65-80.73,53.74-129.74,53.74h-.66c-49.01,0-95.08-19.09-129.74-53.74-34.65-34.65-53.74-80.73-53.74-129.74v-.66c0-49.01,19.08-95.08,53.74-129.74,34.65-34.65,80.73-53.74,129.74-53.74h.66m0-20h-.66c-112.38,0-203.48,91.1-203.48,203.48v.66c0,112.38,91.1,203.48,203.48,203.48h.66c112.38,0,203.48-91.1,203.48-203.48v-.66c0-112.38-91.1-203.48-203.48-203.48h0Z"/>
  <path class="cls-3" d="m332.81,565.87h-39.53c-14.66-62.2-12.69-110.28-11.24-127.61.9-10.69-.39-21.5-4.24-31.52-18.96-49.31-85.59-85.05-85.59-85.05l4-5c32.52,18.01,54.74,34.12,54.74,34.12l-29.72-79.65,3.5-3,11.19,27.42c11.83,28.99,26.58,56.75,44.69,82.3,4.76,6.72,7.16,12.37,7.16,12.37.94-18.27,4.07-35.01,7.13-47.65,7.37-30.4,7.94-62.07,1.44-92.67-1.69-7.96-3.07-12.8-3.07-12.8h5.5c7.51,14.01,12.51,46.03,12.51,46.03,9.01-31.52,26.52-62.04,26.52-62.04h3.5c-29.52,82.06-32.52,194.14-32.52,194.14,4.34-9.01,14.45-17.35,20.72-21.9,5.41-3.94,10.27-8.59,14.24-13.98,20.26-27.47,34.09-73.2,34.09-73.2l3,.5c-5.5,32.02-26.88,73.71-26.88,73.71l45.39-33.18v5.09c-15.69,17.03-32.28,30.46-41.58,36.57-8.49,5.58-16.37,12.07-23.26,19.55-1.96,2.14-3.77,4.23-5.43,6.27-13.59,16.73-19.83,38.29-17.59,59.74,4.67,44.86,21.31,91.43,21.31,91.43Z"/>
  <path class="cls-4" d="m182.62,194.09c-7.58,16.27-2.6,36.67,2.16,48.52,6.23,15.54,21.25,30.53,42.19,38,10.47-32.86-4-72.9-44.35-86.53"/>
  <path class="cls-4" d="m412.14,223.77c-17.18,5.2-29.06,22.52-34.72,33.97-7.43,15.01-8.58,36.2-.19,56.78,31.47-14.11,51.67-51.59,34.91-90.75"/>
  <path class="cls-4" d="m255.93,161.02c-7.58,16.27-2.6,36.67,2.16,48.52,6.23,15.54,21.25,30.53,42.19,38,10.47-32.86-4-72.9-44.35-86.53"/>
  <path class="cls-4" d="m380.4,151.84c-17.77,2.57-32.1,17.91-39.41,28.39-9.59,13.73-13.9,34.5-8.69,56.11,33.23-9.24,58.81-43.27,48.1-84.5"/>
  <path class="cls-4" d="m122.58,269.33c1.17,17.92,15.34,33.41,25.21,41.52,12.93,10.64,33.31,16.57,55.25,13.07-6.6-33.85-38.52-62.02-80.46-54.59"/>
  <path class="cls-4" d="m473.38,300.77c-1.17,17.92-15.34,33.41-25.21,41.52-12.93,10.64-33.31,16.57-55.25,13.07,6.6-33.85,38.52-62.02,80.46-54.59"/>
  <path class="cls-2" d="m187.07,399.7c29.75,8.02,48.35-.14,60.17-24.29-27.87-6.92-50.32.06-60.17,24.29"/>
  <path class="cls-2" d="m279.42,278.24c-21.85,21.72-24.11,41.91-9.14,64.24,19.96-20.65,25.17-43.57,9.14-64.24"/>
  <path class="cls-2" d="m338.77,289c-15.04,26.89-11.67,46.92,8.87,64.28,13.52-25.34,12.23-48.81-8.87-64.28"/>
  <path class="cls-2" d="m347.69,408.01c21.62,21.96,41.79,24.32,64.2,9.45-20.55-20.06-43.45-25.38-64.2-9.45"/>
  <circle class="cls-5" cx="194.47" cy="353.28" r="15.75"/>
  <circle class="cls-5" cx="255.84" cy="253.4" r="15.75"/>
  <circle class="cls-5" cx="315.4" cy="176.65" r="15.75"/>
  <circle class="cls-5" cx="355.64" cy="252.39" r="15.75"/>
  <circle class="cls-5" cx="408.67" cy="382.92" r="15.75"/>
</svg>