<?xml version="1.0" encoding="UTF-8"?>
<svg xmlns="http://www.w3.org/2000/svg" xmlns:xlink="http://www.w3.org/1999/xlink" viewBox="0 0 1679.36 649.43">
  <defs>
    <style>
      .cls-1 {
        fill: #728954;
      }

      .cls-2 {
        fill: #2e72a0;
      }

      .cls-3 {
        clip-path: url(#clippath);
      }

      .cls-4 {
        fill: #235678;
      }

      .cls-5 {
        fill: none;
      }
    </style>
    <clipPath id="clippath">
      <path class="cls-5" d="m385.63,304.62c5.4-36.21-5.65-64.08-30.27-85.06-8.85-7.54-19.38-11.98-30.83-14.57-14.04-2.85-41.42-13.75-44.15-14.88-2.76-1.08-30.03-12.22-42.12-19.91-10.04-6.07-20.71-10.18-32.31-10.89-32.29-1.97-59.58,10.43-80.82,40.26-12.94,18.17-20.76,39.45-23.54,61.58-7.57,60.29-5.51,132.31,26.73,162.13,2.63,2.44,5.67,4.38,8.99,5.73,5.06,2.05,10.21,3.44,15.37,4.2,7.1,1.05,19.87,5.21,26.5,7.83,6.59,2.71,18.67,8.57,24.51,12.74,4.25,3.03,8.92,5.61,13.99,7.64,3.33,1.33,6.87,2.04,10.45,2.11,43.91.89,95.36-49.54,131.73-98.22,13.36-17.87,22.48-38.62,25.77-60.68Z"/>
    </clipPath>
  </defs>
  <g id="Layer_1" data-name="Layer 1">
    <g>
      <path class="cls-4" d="m466.49,229.65V92.93h27.61v136.72h-27.61Z"/>
      <path class="cls-4" d="m610.3,229.65h-26.21v-50.55c0-10.69-.56-17.61-1.68-20.75-1.12-3.14-2.94-5.58-5.46-7.32-2.52-1.74-5.55-2.61-9.09-2.61-4.54,0-8.61,1.24-12.22,3.73-3.61,2.49-6.08,5.78-7.41,9.88-1.34,4.1-2,11.69-2,22.76v44.86h-26.21v-99.04h24.34v14.55c8.64-11.19,19.52-16.79,32.64-16.79,5.78,0,11.07,1.04,15.85,3.12,4.79,2.08,8.41,4.74,10.87,7.97,2.46,3.23,4.16,6.9,5.13,11,.96,4.1,1.45,9.98,1.45,17.63v61.55Z"/>
      <path class="cls-4" d="m682.3,130.6v20.89h-17.91v39.92c0,8.08.17,12.79.51,14.13.34,1.34,1.12,2.44,2.33,3.31,1.21.87,2.69,1.3,4.43,1.3,2.42,0,5.94-.84,10.54-2.52l2.24,20.33c-6.09,2.61-13,3.92-20.7,3.92-4.73,0-8.99-.79-12.78-2.38-3.79-1.59-6.58-3.64-8.35-6.16-1.77-2.52-3-5.92-3.68-10.21-.56-3.04-.84-9.2-.84-18.46v-43.18h-12.03v-20.89h12.03v-19.68l26.3-15.29v34.97h17.91Z"/>
      <path class="cls-4" d="m757.84,198.13l26.11,4.38c-3.36,9.58-8.66,16.87-15.9,21.87-7.24,5.01-16.31,7.51-27.19,7.51-17.22,0-29.97-5.63-38.24-16.88-6.53-9.01-9.79-20.39-9.79-34.13,0-16.41,4.29-29.27,12.87-38.56,8.58-9.29,19.43-13.94,32.55-13.94,14.74,0,26.36,4.87,34.88,14.6,8.52,9.73,12.59,24.64,12.22,44.72h-65.66c.19,7.77,2.3,13.82,6.34,18.14,4.04,4.32,9.08,6.48,15.11,6.48,4.1,0,7.55-1.12,10.35-3.36s4.91-5.84,6.34-10.82Zm1.49-26.49c-.19-7.58-2.15-13.35-5.88-17.3-3.73-3.95-8.27-5.92-13.62-5.92-5.72,0-10.45,2.08-14.18,6.25-3.73,4.17-5.57,9.82-5.5,16.97h39.17Z"/>
      <path class="cls-4" d="m831.8,229.65h-26.21v-99.04h24.34v14.08c4.17-6.65,7.91-11.04,11.24-13.15,3.33-2.11,7.1-3.17,11.33-3.17,5.97,0,11.72,1.65,17.25,4.94l-8.11,22.85c-4.42-2.86-8.52-4.29-12.31-4.29s-6.78,1.01-9.33,3.03c-2.55,2.02-4.56,5.67-6.02,10.96-1.46,5.29-2.19,16.35-2.19,33.2v30.59Z"/>
      <path class="cls-4" d="m971.13,229.65h-26.21v-50.55c0-10.69-.56-17.61-1.68-20.75-1.12-3.14-2.94-5.58-5.46-7.32-2.52-1.74-5.55-2.61-9.09-2.61-4.54,0-8.61,1.24-12.22,3.73-3.61,2.49-6.08,5.78-7.41,9.88-1.34,4.1-2,11.69-2,22.76v44.86h-26.21v-99.04h24.34v14.55c8.64-11.19,19.52-16.79,32.64-16.79,5.78,0,11.07,1.04,15.85,3.12,4.79,2.08,8.41,4.74,10.87,7.97,2.46,3.23,4.16,6.9,5.13,11,.96,4.1,1.45,9.98,1.45,17.63v61.55Z"/>
      <path class="cls-4" d="m1017.29,160.82l-23.78-4.29c2.67-9.57,7.27-16.66,13.8-21.26,6.53-4.6,16.23-6.9,29.1-6.9,11.69,0,20.39,1.38,26.11,4.15,5.72,2.77,9.75,6.28,12.08,10.54,2.33,4.26,3.5,12.08,3.5,23.46l-.28,30.59c0,8.71.42,15.12,1.26,19.26.84,4.14,2.41,8.57,4.71,13.29h-25.93c-.68-1.74-1.52-4.32-2.52-7.74-.44-1.55-.75-2.58-.93-3.08-4.48,4.35-9.26,7.62-14.36,9.79-5.1,2.17-10.54,3.26-16.32,3.26-10.2,0-18.23-2.77-24.11-8.3-5.88-5.53-8.81-12.53-8.81-20.98,0-5.6,1.34-10.58,4.01-14.97,2.67-4.38,6.42-7.74,11.24-10.07,4.82-2.33,11.77-4.37,20.84-6.11,12.25-2.3,20.73-4.44,25.46-6.44v-2.61c0-5.04-1.25-8.63-3.73-10.77-2.49-2.14-7.18-3.22-14.08-3.22-4.66,0-8.3.92-10.91,2.75-2.61,1.83-4.73,5.05-6.34,9.65Zm35.07,21.26c-3.36,1.12-8.67,2.46-15.95,4.01-7.27,1.55-12.03,3.08-14.27,4.57-3.42,2.42-5.13,5.5-5.13,9.23s1.37,6.84,4.1,9.51c2.74,2.67,6.22,4.01,10.45,4.01,4.72,0,9.23-1.55,13.52-4.66,3.17-2.36,5.25-5.25,6.25-8.67.68-2.24,1.03-6.5,1.03-12.78v-5.22Z"/>
      <path class="cls-4" d="m1149.35,130.6v20.89h-17.91v39.92c0,8.08.17,12.79.51,14.13.34,1.34,1.12,2.44,2.33,3.31,1.21.87,2.69,1.3,4.43,1.3,2.42,0,5.94-.84,10.54-2.52l2.24,20.33c-6.09,2.61-13,3.92-20.71,3.92-4.73,0-8.98-.79-12.78-2.38-3.79-1.59-6.58-3.64-8.35-6.16-1.77-2.52-3-5.92-3.68-10.21-.56-3.04-.84-9.2-.84-18.46v-43.18h-12.03v-20.89h12.03v-19.68l26.3-15.29v34.97h17.91Z"/>
      <path class="cls-4" d="m1167.54,117.17v-24.25h26.21v24.25h-26.21Zm0,112.47v-99.04h26.21v99.04h-26.21Z"/>
      <path class="cls-4" d="m1214.54,178.73c0-8.7,2.15-17.13,6.43-25.27,4.29-8.14,10.37-14.36,18.23-18.65,7.86-4.29,16.65-6.43,26.35-6.43,14.98,0,27.26,4.87,36.84,14.6,9.57,9.73,14.36,22.03,14.36,36.88s-4.83,27.4-14.5,37.26c-9.67,9.86-21.84,14.78-36.51,14.78-9.08,0-17.74-2.05-25.97-6.16-8.24-4.1-14.5-10.12-18.79-18.05-4.29-7.93-6.43-17.58-6.43-28.96Zm26.86,1.4c0,9.82,2.33,17.35,7,22.57,4.66,5.22,10.41,7.83,17.25,7.83s12.57-2.61,17.21-7.83c4.63-5.22,6.95-12.81,6.95-22.76s-2.32-17.16-6.95-22.38c-4.63-5.22-10.37-7.83-17.21-7.83s-12.59,2.61-17.25,7.83c-4.66,5.22-7,12.75-7,22.57Z"/>
      <path class="cls-4" d="m1427.36,229.65h-26.21v-50.55c0-10.69-.56-17.61-1.68-20.75-1.12-3.14-2.94-5.58-5.46-7.32-2.52-1.74-5.55-2.61-9.09-2.61-4.54,0-8.61,1.24-12.22,3.73-3.61,2.49-6.08,5.78-7.41,9.88-1.34,4.1-2,11.69-2,22.76v44.86h-26.21v-99.04h24.34v14.55c8.64-11.19,19.52-16.79,32.64-16.79,5.78,0,11.07,1.04,15.85,3.12,4.79,2.08,8.41,4.74,10.87,7.97,2.46,3.23,4.16,6.9,5.13,11,.96,4.1,1.45,9.98,1.45,17.63v61.55Z"/>
      <path class="cls-4" d="m1473.53,160.82l-23.78-4.29c2.67-9.57,7.27-16.66,13.8-21.26,6.53-4.6,16.23-6.9,29.1-6.9,11.69,0,20.39,1.38,26.11,4.15,5.72,2.77,9.75,6.28,12.08,10.54,2.33,4.26,3.5,12.08,3.5,23.46l-.28,30.59c0,8.71.42,15.12,1.26,19.26.84,4.14,2.41,8.57,4.71,13.29h-25.93c-.68-1.74-1.52-4.32-2.52-7.74-.44-1.55-.75-2.58-.93-3.08-4.48,4.35-9.26,7.62-14.36,9.79-5.1,2.17-10.54,3.26-16.32,3.26-10.2,0-18.23-2.77-24.11-8.3-5.88-5.53-8.81-12.53-8.81-20.98,0-5.6,1.34-10.58,4.01-14.97,2.67-4.38,6.42-7.74,11.24-10.07,4.82-2.33,11.77-4.37,20.84-6.11,12.25-2.3,20.73-4.44,25.46-6.44v-2.61c0-5.04-1.25-8.63-3.73-10.77-2.49-2.14-7.18-3.22-14.08-3.22-4.66,0-8.3.92-10.91,2.75-2.61,1.83-4.73,5.05-6.34,9.65Zm35.07,21.26c-3.36,1.12-8.67,2.46-15.95,4.01-7.27,1.55-12.03,3.08-14.27,4.57-3.42,2.42-5.13,5.5-5.13,9.23s1.37,6.84,4.1,9.51c2.74,2.67,6.22,4.01,10.45,4.01,4.72,0,9.23-1.55,13.52-4.66,3.17-2.36,5.25-5.25,6.25-8.67.68-2.24,1.03-6.5,1.03-12.78v-5.22Z"/>
      <path class="cls-4" d="m1560.17,229.65V92.93h26.21v136.72h-26.21Z"/>
    </g>
    <g>
      <path class="cls-4" d="m466.49,349.35l26.86-2.61c1.62,9.02,4.9,15.64,9.84,19.87,4.94,4.23,11.61,6.34,20,6.34,8.89,0,15.59-1.88,20.1-5.64,4.51-3.76,6.76-8.16,6.76-13.2,0-3.23-.95-5.98-2.84-8.25-1.9-2.27-5.21-4.24-9.93-5.92-3.23-1.12-10.6-3.11-22.1-5.97-14.8-3.67-25.18-8.17-31.15-13.52-8.39-7.52-12.59-16.69-12.59-27.51,0-6.96,1.97-13.48,5.92-19.54,3.95-6.06,9.64-10.68,17.07-13.85,7.43-3.17,16.4-4.76,26.91-4.76,17.16,0,30.08,3.76,38.75,11.28,8.67,7.52,13.23,17.57,13.66,30.12l-27.61,1.21c-1.18-7.03-3.72-12.08-7.6-15.16-3.89-3.08-9.72-4.62-17.49-4.62s-14.3,1.65-18.84,4.94c-2.92,2.12-4.38,4.94-4.38,8.49,0,3.23,1.37,6,4.1,8.3,3.48,2.92,11.94,5.97,25.37,9.14,13.43,3.17,23.36,6.45,29.8,9.84,6.44,3.39,11.47,8.02,15.11,13.9,3.64,5.88,5.46,13.14,5.46,21.78,0,7.83-2.18,15.17-6.53,22.01-4.35,6.84-10.51,11.92-18.47,15.25-7.96,3.33-17.88,4.99-29.75,4.99-17.29,0-30.56-3.99-39.82-11.98-9.27-7.99-14.8-19.63-16.6-34.93Z"/>
      <path class="cls-4" d="m646.11,294.79v20.89h-17.91v39.92c0,8.08.17,12.79.51,14.13.34,1.34,1.12,2.44,2.33,3.31,1.21.87,2.69,1.3,4.43,1.3,2.42,0,5.94-.84,10.54-2.52l2.24,20.33c-6.09,2.61-13,3.92-20.7,3.92-4.73,0-8.99-.79-12.78-2.38-3.79-1.59-6.58-3.64-8.35-6.16-1.77-2.52-3-5.92-3.68-10.21-.56-3.04-.84-9.2-.84-18.46v-43.18h-12.03v-20.89h12.03v-19.68l26.3-15.29v34.97h17.91Z"/>
      <path class="cls-4" d="m729.49,393.84v-14.83c-3.61,5.29-8.35,9.45-14.22,12.5-5.88,3.05-12.08,4.57-18.61,4.57s-12.62-1.46-17.91-4.38c-5.29-2.92-9.11-7.03-11.47-12.31-2.36-5.28-3.54-12.59-3.54-21.92v-62.67h26.21v45.51c0,13.93.48,22.46,1.45,25.6.96,3.14,2.72,5.63,5.27,7.46,2.55,1.83,5.78,2.75,9.7,2.75,4.48,0,8.49-1.23,12.03-3.68,3.54-2.46,5.97-5.5,7.27-9.14,1.31-3.64,1.96-12.54,1.96-26.72v-41.78h26.21v99.04h-24.34Z"/>
      <path class="cls-4" d="m871.81,393.84h-24.34v-14.55c-4.04,5.66-8.81,9.87-14.32,12.64-5.5,2.77-11.05,4.15-16.65,4.15-11.38,0-21.12-4.58-29.24-13.76-8.11-9.17-12.17-21.96-12.17-38.38s3.95-29.55,11.84-38.28c7.9-8.73,17.88-13.1,29.94-13.1,11.07,0,20.64,4.6,28.73,13.8v-49.24h26.21v136.72Zm-69.95-51.67c0,10.57,1.46,18.22,4.38,22.94,4.23,6.84,10.13,10.26,17.72,10.26,6.03,0,11.16-2.56,15.39-7.69,4.23-5.13,6.34-12.79,6.34-22.99,0-11.38-2.05-19.57-6.16-24.58-4.1-5-9.36-7.51-15.76-7.51s-11.42,2.47-15.62,7.41c-4.2,4.94-6.3,12.33-6.3,22.15Z"/>
      <path class="cls-4" d="m954.99,362.32l26.11,4.38c-3.36,9.58-8.66,16.87-15.9,21.87-7.24,5.01-16.31,7.51-27.19,7.51-17.22,0-29.97-5.63-38.24-16.88-6.53-9.01-9.79-20.39-9.79-34.13,0-16.41,4.29-29.27,12.87-38.56,8.58-9.29,19.43-13.94,32.55-13.94,14.74,0,26.36,4.87,34.88,14.6,8.52,9.73,12.59,24.64,12.22,44.72h-65.66c.19,7.77,2.3,13.82,6.34,18.14,4.04,4.32,9.08,6.48,15.11,6.48,4.1,0,7.55-1.12,10.35-3.36s4.91-5.84,6.34-10.82Zm1.49-26.49c-.19-7.58-2.15-13.35-5.88-17.3-3.73-3.95-8.27-5.92-13.62-5.92-5.72,0-10.45,2.08-14.18,6.25-3.73,4.17-5.57,9.82-5.5,16.97h39.17Z"/>
      <path class="cls-4" d="m1093.95,393.84h-26.21v-50.55c0-10.69-.56-17.61-1.68-20.75-1.12-3.14-2.94-5.58-5.46-7.32-2.52-1.74-5.55-2.61-9.09-2.61-4.54,0-8.61,1.24-12.22,3.73-3.61,2.49-6.08,5.78-7.41,9.88-1.34,4.1-2,11.69-2,22.76v44.86h-26.21v-99.04h24.34v14.55c8.64-11.19,19.52-16.79,32.64-16.79,5.78,0,11.07,1.04,15.85,3.12,4.79,2.08,8.41,4.74,10.87,7.97,2.46,3.23,4.16,6.9,5.13,11,.96,4.1,1.45,9.98,1.45,17.63v61.55Z"/>
      <path class="cls-4" d="m1165.95,294.79v20.89h-17.91v39.92c0,8.08.17,12.79.51,14.13.34,1.34,1.12,2.44,2.33,3.31,1.21.87,2.69,1.3,4.43,1.3,2.42,0,5.94-.84,10.54-2.52l2.24,20.33c-6.09,2.61-13,3.92-20.71,3.92-4.73,0-8.98-.79-12.78-2.38-3.79-1.59-6.58-3.64-8.35-6.16-1.77-2.52-3-5.92-3.68-10.21-.56-3.04-.84-9.2-.84-18.46v-43.18h-12.03v-20.89h12.03v-19.68l26.3-15.29v34.97h17.91Z"/>
    </g>
    <g>
      <path class="cls-4" d="m512.83,420.37c15.98,0,28.44,3.11,37.4,9.33,8.95,6.22,13.43,15.51,13.43,27.88,0,6.28-1.66,11.89-4.99,16.83-3.33,4.94-8.16,8.66-14.5,11.14,8.14,1.74,14.25,5.47,18.33,11.19,4.07,5.72,6.11,12.34,6.11,19.87,0,13-4.29,22.83-12.87,29.52-8.58,6.68-20.74,10.03-36.47,10.03h-66.78v-16.32l14.46-2.8v-97.46l-14.46-2.8v-16.41h60.34Zm-18.65,56.89h19.58c7.27,0,12.87-1.49,16.79-4.48s5.88-7.34,5.88-13.06c0-6.28-1.97-10.91-5.92-13.9-3.95-2.98-9.84-4.48-17.67-4.48h-18.65v35.91Zm0,18.84v39.17h25.09c7.21,0,12.71-1.57,16.51-4.71,3.79-3.14,5.69-7.79,5.69-13.94,0-6.65-1.62-11.74-4.85-15.25-3.23-3.51-8.33-5.27-15.29-5.27h-27.14Z"/>
      <path class="cls-4" d="m650.02,543.38c-3.23,4.73-7.23,8.36-11.98,10.91-4.76,2.55-10.18,3.82-16.27,3.82-10.63,0-18.96-3.4-24.99-10.21-6.03-6.81-9.05-17.39-9.05-31.76v-41.69l-11.1-2.8v-16.41h38.33v61.09c0,7.34,1.23,12.61,3.68,15.81,2.46,3.2,6.11,4.8,10.96,4.8,4.29,0,8-.7,11.15-2.1,3.14-1.4,5.7-3.4,7.69-6.02v-54.37l-11.94-2.8v-16.41h39.17v81.79l12.22,2.8v16.32h-36.09l-1.77-12.78Z"/>
      <path class="cls-4" d="m700.66,539.84l13.06-2.8v-62.58l-14.46-2.8v-16.41h39.82l1.21,14.74c2.36-5.22,5.41-9.29,9.14-12.22,3.73-2.92,8.05-4.38,12.96-4.38,1.43,0,2.94.11,4.52.33,1.59.22,2.91.48,3.96.79l-2.89,24.81-11.19-.28c-3.98,0-7.27.78-9.88,2.33-2.61,1.55-4.6,3.76-5.97,6.62v49.05l13.06,2.8v16.32h-53.35v-16.32Z"/>
      <path class="cls-4" d="m861.35,489.94h-18.28l-2.89-12.59c-1.87-1.49-4.21-2.73-7.04-3.73-2.83-.99-5.95-1.49-9.37-1.49-4.79,0-8.58,1.07-11.38,3.22-2.8,2.15-4.2,4.83-4.2,8.07,0,3.05,1.34,5.58,4.01,7.6,2.67,2.02,8.02,3.81,16.04,5.36,12.5,2.49,21.76,6.14,27.79,10.96,6.03,4.82,9.05,11.46,9.05,19.91,0,9.08-3.9,16.49-11.7,22.24-7.8,5.75-18.08,8.63-30.82,8.63-7.77,0-14.91-1.14-21.4-3.4-6.5-2.27-12.26-5.52-17.3-9.75l-.28-22.66h19.03l3.73,13.15c1.62,1.37,3.82,2.38,6.62,3.03,2.8.65,5.72.98,8.77.98,5.53,0,9.75-.99,12.64-2.98,2.89-1.99,4.34-4.69,4.34-8.11,0-2.98-1.46-5.56-4.38-7.74-2.92-2.17-8.3-4.1-16.13-5.78-11.88-2.43-20.84-6.02-26.91-10.77-6.06-4.76-9.09-11.24-9.09-19.44s3.48-15.75,10.45-21.87c6.96-6.12,16.88-9.19,29.75-9.19,7.83,0,15.25,1.06,22.24,3.17,6.99,2.11,12.48,4.82,16.46,8.11l.28,25.09Z"/>
      <path class="cls-4" d="m941.55,556.16c-.75-1.68-1.4-3.4-1.96-5.18-.56-1.77-1-3.56-1.3-5.36-3.23,3.73-7.17,6.75-11.8,9.05-4.63,2.3-9.93,3.45-15.9,3.45-9.89,0-17.74-2.69-23.55-8.07-5.81-5.38-8.72-12.7-8.72-21.96s3.79-16.75,11.38-21.92c7.58-5.16,18.71-7.74,33.39-7.74h13.9v-9.89c0-4.85-1.4-8.61-4.2-11.28-2.8-2.67-6.93-4.01-12.4-4.01-3.11,0-5.88.36-8.3,1.07-2.42.71-4.38,1.57-5.88,2.56l-1.77,10.82h-20.52l.09-22.38c4.97-3.36,10.68-6.19,17.11-8.49,6.43-2.3,13.44-3.45,21.03-3.45,12.5,0,22.65,3.06,30.45,9.19,7.8,6.12,11.7,14.84,11.7,26.16v41.69c0,1.55.01,3.02.05,4.38.03,1.37.14,2.67.33,3.92l8.3,1.12v16.32h-31.43Zm-23.6-18.19c4.1,0,7.83-.89,11.19-2.66,3.36-1.77,5.97-3.99,7.83-6.67v-15.39h-13.9c-5.78,0-10.17,1.35-13.15,4.06-2.98,2.71-4.48,5.95-4.48,9.75,0,3.42,1.1,6.09,3.31,8.02,2.21,1.93,5.27,2.89,9.19,2.89Z"/>
      <path class="cls-4" d="m984.27,539.84l13.06-2.8v-62.58l-14.46-2.8v-16.41h39.82l1.21,14.74c2.36-5.22,5.41-9.29,9.14-12.22,3.73-2.92,8.05-4.38,12.96-4.38,1.43,0,2.94.11,4.52.33,1.59.22,2.91.48,3.96.79l-2.89,24.81-11.19-.28c-3.98,0-7.27.78-9.88,2.33-2.61,1.55-4.6,3.76-5.97,6.62v49.05l13.06,2.8v16.32h-53.35v-16.32Z"/>
      <path class="cls-4" d="m1168.74,471.66l-9.42,1.4-37.12,98.2c-2.92,7.27-6.82,13.37-11.7,18.28-4.88,4.91-12.23,7.37-22.06,7.37-2.3,0-4.46-.19-6.48-.56-2.02-.37-4.4-.9-7.13-1.58l3.17-19.86c.87.12,1.77.25,2.7.37.93.12,1.74.19,2.43.19,4.54,0,8.02-1.1,10.45-3.31,2.42-2.21,4.29-4.96,5.6-8.25l3.08-7.65-31.99-83.1-9.42-1.49v-16.41h49.43v16.41l-11.29,1.87,13.8,40.29,1.4,7.27.56.09,15.95-47.66-11.38-1.87v-16.41h49.43v16.41Z"/>
    </g>
  </g>
  <g id="Layer_2" data-name="Layer 2">
    <path class="cls-4" d="m178.82,530.98h120c4.14,0,7.5,3.36,7.5,7.5v17.54h-135v-17.54c0-4.14,3.36-7.5,7.5-7.5Z"/>
    <path class="cls-4" d="m200.74,507.61h78.63c4.14,0,7.5,3.36,7.5,7.5v9.87h-93.63v-9.87c0-4.14,3.36-7.5,7.5-7.5Z"/>
    <rect class="cls-4" x="218.35" y="489.98" width="43.42" height="26.05"/>
    <path class="cls-4" d="m242.08,497.86c-28.32,0-55.69-5.8-81.35-17.23l8.14-18.27c23.09,10.29,47.72,15.5,73.21,15.5,99.3,0,180.09-80.79,180.09-180.09,0-73.68-44.11-139.2-112.36-166.92l7.53-18.53c36.46,14.81,67.53,39.85,89.87,72.41,22.88,33.36,34.97,72.45,34.97,113.04,0,110.33-89.76,200.09-200.09,200.09Z"/>
    <rect class="cls-4" x="136.1" y="459.19" width="60.22" height="17" transform="translate(-329.13 436.12) rotate(-66.79)"/>
    <path class="cls-2" d="m229.27,468.53c-.42,0-.83,0-1.25-.01-4.22-.09-8.33-.92-12.21-2.47-5.33-2.13-10.38-4.89-15.03-8.21-5.46-3.9-17.16-9.58-23.51-12.19-6.32-2.5-18.69-6.53-25.33-7.51-5.65-.83-11.21-2.35-16.52-4.51-3.88-1.58-7.41-3.83-10.51-6.69-39.78-36.8-33.04-128.65-28.3-166.43,2.95-23.47,11.4-45.55,24.43-63.86,21.53-30.24,50.2-44.48,85.2-42.35,11.53.71,22.85,4.5,34.6,11.6.03.02.06.04.1.06,11.14,7.09,36.69,17.69,41.26,19.48,4.62,1.91,30.37,12.01,43.32,14.64.04,0,.07.02.11.02,13.39,3.03,24.17,8.15,32.97,15.65,26.69,22.74,37.45,52.89,31.98,89.6l-4.95-.74,4.95.74c-3.31,22.23-12.55,43.99-26.71,62.94-22.62,30.27-80.76,100.24-134.6,100.24Zm-29.95-304.44c-28.79,0-51.78,12.59-70.13,38.36-12.08,16.96-19.91,37.47-22.65,59.31-4.55,36.25-11.21,124.19,25.16,157.84,2.21,2.04,4.73,3.65,7.48,4.77,4.58,1.86,9.36,3.17,14.22,3.89,7.72,1.14,21.04,5.53,27.61,8.13,6.59,2.71,19.23,8.79,25.58,13.32,4,2.85,8.35,5.23,12.94,7.07,2.76,1.1,5.69,1.7,8.7,1.76.36,0,.73.01,1.09.01,49.28,0,104.83-67.18,126.54-96.23,13.17-17.62,21.76-37.83,24.83-58.43h0c5-33.54-4.35-59.88-28.57-80.52-7.52-6.41-16.89-10.82-28.64-13.49-15.4-3.14-44.73-15.03-45.02-15.15-.2-.08-29.59-11.87-42.84-20.28-10.31-6.23-20.12-9.55-29.98-10.15-2.13-.13-4.24-.2-6.31-.2Z"/>
    <g class="cls-3">
      <path class="cls-1" d="m131.2,587.68c-.37,0-.74-.03-1.11-.1l-149.46-28.14c-2.59-.49-4.56-2.61-4.85-5.22l-4.06-35.94c-.26-1.79-5.08-31.03-43.43-54.55-1.89-1.16-2.98-3.26-2.85-5.47.13-2.21,1.47-4.17,3.48-5.09.82-.38,20.38-9.07,53.72,2.83.34.12.68.28.99.46.19.11,20.09,11.5,49.47,18.66,2.58.39,22.89,3.45,51.29,8.52.3.06,24.7,4.3,66.83-9.81.83-.32,12.68-4.98,17.32-13.68-.04-1.78-.42-5.68-2.93-7.13-1.62-.36-6.57-1.37-11.29-1.2-2.56.27-16.25,1.27-23.89-7.14-3.03-3.34-6.17-9.44-3.95-19.57.13-.58.34-1.13.62-1.65,1.23-2.2,30.53-54.02,65.3-67.35,26.67-11.35,48.05-10.04,63.55,3.9,8.54,7.68,14.3,18.71,16.22,31.07.89,5.69,3.91,7.12,4.9,7.59,2.97,1.41,6.59,1.15,9.7-.69,4-2.37,10.6-7.61,19.31-19.12.09-.12.19-.24.3-.36.09-.1,10.18-11.84,5.78-22.56-.08-.19-.15-.39-.21-.59-.28-.87-1.56-3.57-3.8-4.7-1.56-.79-3.59-.82-6.05-.08-3.13,1.62-17.41,8.33-32.5,4.34-1.09-.28-7.53-2.2-10.58-8.65-1.75-3.7-1.97-7.92-.67-12.58-3.18-2.44-6.91-6.33-7.77-11.58-.57-3.48-.05-8.77,5.57-14.3,2.12-2.24,14.41-13.01,45.78-2.67,1.97.66,5.95,1.38,8.68.54-.31-8.15.98-27.48,17.04-47.18.04-.05.1-.12.14-.17,0,0,.38-.44,1.13-1.2,9.75-9.94,25.6-11.76,47.09-5.41,14.94,4.41,27.22,11.26,27.73,11.55.36.2.7.44,1.01.71,48.91,42.72-1.75,139.32-3.93,143.41-.21.4-.47.77-.76,1.11l-124.51,143.55c-.82.95-1.92,1.61-3.13,1.9l-139.82,33.57c-.46.11-.93.17-1.4.17Zm-144-39.22l143.85,27.08,136.7-32.82,122.78-141.56c4-7.81,46.02-92.55,6.79-127.75-12.74-7-46.72-21.26-59.84-7.89-.31.32-.52.54-.62.65-17.21,21.2-14.1,41.33-14.07,41.53.31,1.86-.27,3.76-1.58,5.13-8.15,8.54-21.63,4.19-23.14,3.66-23.59-7.78-32.27-1.25-33.18-.47-.11.14-.08.08-.28.27-.91.89-2.42,2.57-2.21,3.87.34,2.06,3.93,4.74,5.85,5.66,2.98,1.43,4.24,5.01,2.82,7.99-1.52,3.19-1.96,5.78-1.24,7.31.71,1.51,2.67,2.15,2.69,2.15.04,0,.07.02.11.03,11.92,3.16,24.05-3.45,24.17-3.52.33-.18.69-.34,1.04-.46,7.35-2.43,12.7-.95,15.9.72,6.49,3.4,9.01,9.85,9.58,11.56,6.71,16.76-6.05,32.57-7.81,34.64-7.9,10.41-15.52,17.83-22.65,22.05-6.55,3.88-14.38,4.33-20.96,1.2-6.38-3.03-10.39-8.76-11.61-16.58h0c-1.5-9.63-5.9-18.15-12.39-23.99-11.91-10.71-28.56-11.28-50.92-1.74-.07.03-.15.06-.22.09-28.6,10.9-55.01,54.81-58.76,61.25-.67,3.67-.24,6.38,1.28,8.06,3.24,3.59,11.3,3.57,13.88,3.28.14-.02.3-.03.44-.04,7.59-.31,15.19,1.6,15.51,1.68.32.08.63.19.93.32,9.33,4.1,10.94,14.71,10.42,20.32-.06.66-.23,1.31-.51,1.92-6.45,14.29-23.96,20.78-24.71,21.05-.05.02-.09.03-.14.05-45.52,15.26-71.83,10.47-72.93,10.26-30-5.35-50.92-8.46-51.13-8.49-.18-.03-.36-.06-.54-.1-29.02-7.04-48.96-17.78-52.42-19.72-13.34-4.7-23.97-5.63-31.46-5.3,32.77,25.29,36.8,53.62,36.97,54.94l3.59,31.71Z"/>
      <path class="cls-1" d="m187.48,345.32c-7.16,0-17.23-4.02-22.89-19.42-.07-.19-.13-.39-.18-.58,0-.03-2.02-7.22-7.88-9.89-.3-.14-7.54-3.46-14.19-8.91-4.84-3.97-7.83-9.38-8.43-15.24-.38-3.73.21-7.26,1.74-10.5,1.26-3.04,7.41-13.27,32.75-10.97,11.68,1.06,22.49,5.92,30.43,13.69,7.64,7.47,12.38,16.94,14.09,28.14,1.44,9.42-1.54,18.93-7.99,25.42-3.44,3.47-7.71,6.03-12.67,7.61-1.33.4-2.96.67-4.79.67Zm-11.55-23.36c4.63,12.38,11.39,11.55,12.85,11.21,3-.96,5.59-2.51,7.64-4.58,3.78-3.81,5.52-9.47,4.65-15.15-1.31-8.57-4.89-15.77-10.63-21.38-5.97-5.85-14.18-9.51-23.12-10.32-15.45-1.4-19.76,2.69-20.54,3.65-.03.17-.03,0-.23.4-.63,1.29-.86,2.68-.69,4.26.27,2.65,1.76,5.27,4.1,7.18,5.39,4.42,11.49,7.24,11.55,7.27,10.2,4.65,13.78,15.28,14.42,17.46Zm-29.1-36.83h0Zm-5.67-1.97h0,0Z"/>
      <path class="cls-1" d="m71.9,313.62c-2.34,0-4.68-.77-6.64-2.3-.63-.49-1.2-1.05-1.71-1.66l-24.76-30.06c-1.52-1.85-2.41-4.18-2.48-6.55-.53-17.01,4.71-29.77,5.77-32.15.21-.47.45-.92.73-1.37,7.77-12.49,22.53-25.63,23.15-26.19.06-.05.11-.1.17-.15,11.64-9.55,18.4-22.41,18.47-22.54.02-.04.05-.1.08-.14,5.95-10.77,2.57-22.57,1.75-25.06-5.99-9.91-12.85-16.85-13.54-17.54-11.39-10.47-10.22-24.9-5.31-34.93.33-.67.73-1.31,1.18-1.91,12.51-16.34,29.45-14.89,37.16-11.69,5.62,1.36,8.53.38,9.52-.54,1.37-5.17-3.15-11.3-3.88-12.25-8.32-8.13-11.03-17.05-11.67-19.6-.16-.65-.26-1.28-.31-1.94-.76-10.05,3.46-17.32,3.95-18.12.02-.04.05-.08.08-.12,2.67-4.16,2.42-10.98,1.37-15.62-3.5-6.5-6.9-9.79-6.94-9.83-.1-.1-.23-.22-.32-.33-10.45-11.49-12.47-23.12-12.79-25.55-2.33-11.24,3.81-24.52,5.77-28.36.17-.33.33-.61.53-.92,9.51-15.06,20.69-21.61,22.02-22.36,19.39-11.29,50.86-20,54.38-20.96,17.72-5.96,29.98-15.72,33.31-18.57,1.41-1.21,3.13-2.03,4.96-2.39l15.04-2.9c1.16-.22,2.34-.25,3.51-.09l53.61,7.36c3.04.42,5.76,2.12,7.48,4.66,1.71,2.53,2.27,5.67,1.53,8.62h0c-1.43,5.69-.42,8.98-.06,9.87,4.39,5.64,8.64,6.55,11.45,6.33,4.44-.36,8.61,1.93,10.62,5.84,7.28,14.18,3.85,29.05-9.18,39.95l1.74,3.54c2.2,4.49,1.11,9.82-2.66,12.96-.64.53-1.33,1.03-2.08,1.5-1.34.84-2.74,1.37-4.19,1.57-.65.09-1.29.13-1.91.14.91.9,1.67,1.98,2.22,3.2,1.06,2.33,1.78,4.67,2.11,5.86.29,1.03.42,2.09.41,3.15-.32,18.92-13.67,24.7-16.34,25.66-.49.18-1,.32-1.56.43-2.23.46-4.36.67-6.39.67-15.61,0-25.38-12.22-27.52-15.18-8.65-7.96-15.37-8.21-16.11-8.22-12.86,1.06-22.68,9.65-22.78,9.73-.23.2-.49.4-.75.57-2.33,1.5-6.25,5.42-9.1,8.64-.28.31-.54.58-.84.85-15.13,13.83-25.16,11.61-28.77,10.01-.34-.15-.68-.33-1.01-.51-8.44-4.77-8.81-13.75-6.54-20.12-.73-.71-1.95-1.63-2.99-2.22-1.58-.89-2.68-2.45-2.98-4.24-.3-1.79.21-3.62,1.42-4.98,2.23-2.51,1.29-6.27.83-7.67-8.06-10.41-12.1-15.42-13.74-17.41-10.35-3.97-14.99-.18-16.9,2.65-1.8,12.1,6.39,22.05,8.06,23.93.61.68,1.13,1.43,1.54,2.22,7.77,14.85.5,26.94.18,27.45-3.94,6.4-5.44,12.23-5.82,13.92-.17,7.4,3.86,10.48,5.89,11.56,7.06.78,13.53,1.67,14.71,1.84,11.76,1,21.21,11.57,23.84,14.81.28.34.53.69.78,1.08,11.75,18.49,19.62,51.08,20.58,55.18,8.88,22.36,19.12,34.81,19.22,34.93,18.25,22.29,19.12,35.12,18.9,38.77.92,19.67-18.11,30.99-21.97,33.07-.36.19-.72.37-1.13.53-21.79,8.9-49.76,4.32-51.64,4-36-5.63-48.9-2.53-49.43-2.4-19.53,6.85-25.02,16.55-25.58,17.64-3.16,8.39-2.99,18.06.52,28.71,1.5,4.56-.11,9.47-4.03,12.23-1.88,1.32-4.05,1.98-6.21,1.98Zm-23.61-41.36l20.84,25.3c-2.73-11.2-2.3-21.65,1.28-31.14.11-.29.28-.72.54-1.23,1.8-3.48,9.45-15.46,32.33-23.47.33-.12.63-.21.97-.29,2.57-.65,17.27-3.6,54.27,2.19.04,0,.07.01.1.02.26.04,26.26,4.42,45.09-3.28,1.66-.9,16.44-9.27,15.64-22.21-.03-.49-.06-.61.02-1.04-.01-1.17-.58-11.34-16.16-30.37-.42-.51-11.49-13.87-21.15-38.21-.2-.52-.36-1.02-.49-1.55-.81-3.49-8.27-34.6-19.05-51.56-2.93-3.6-9.58-9.92-15.6-10.37-.13-.01-.26-.02-.39-.04-.07-.01-7.2-1.02-14.73-1.84-1.25-.14-2.43-.47-3.51-1-3.12-1.53-13.25-7.71-12.84-22.85.02-.72.11-1.45.27-2.17.6-2.7,2.51-9.82,7.33-17.65.13-.22,3.88-6.89-.54-15.48-2.45-2.78-13.61-16.56-10.84-33.95.24-1.52.8-2.95,1.65-4.26,5.14-7.91,16.53-13.85,33.09-6.77.85.36,1.61.92,2.21,1.62.15.17,3.7,4.35,15.55,19.66.29.37.53.77.72,1.2,1.51,3.33,2.85,9.47.77,15.35,4.43,4.06,5.82,8.89,3.52,13.18-.71,1.94-1.07,4.46,1.11,5.69h0c.5.15,5.69,1.32,15.77-7.91,1.51-1.71,6.8-7.53,11.16-10.47,2.25-1.91,13.87-11.14,29.41-12.42.35-.03.69-.04,1.03-.04,2.8.01,12.81.87,24.28,11.46.56.52,1.06,1.08,1.49,1.69,1.49,2.09,9.55,12.36,21.77,9.83,1.52-.57,8.1-3.66,8.34-14.4-.16-.57-.43-1.42-.77-2.36-1.15.84-2.35,1.46-3.58,1.86-.52.17-14.55,4.63-24.21-13.27-.13-.24-.25-.49-.34-.75-.03-.08-2.85-7.64-5.53-13.96-.07-.17-.14-.35-.2-.53-.09-.27-2.72-7.81-10.48-9.17-7.73-.78-20.63-5.1-21.06-16.49-.05-1.35.17-2.7.66-4.02,2.61-7.09,8.73-11.43,16.36-11.62,1.47-.07,14.96-.56,28.51,4.14.31.11.58.21.88.34,2.48,1.09,14.98,7.21,17.15,20.59.06.36.08.72.08,1.08,0,.06-.09,7.91,2.91,13.8.98,1.92,3.77,5.77,6.38,6.17l-1.59-3.24c-2.24-4.57-1.05-9.98,2.91-13.16,6.34-5.09,12.64-13.53,7.12-25.06-4.89.23-13.55-1.07-21.28-11.07-.56-.73-1.02-1.5-1.37-2.29-1.15-2.62-2.74-8.15-.97-16.42l-52.1-7.16-14.54,2.8c-4.09,3.46-17.68,14.11-37.04,20.61-.22.07-.43.14-.67.2-1.35.37-33.17,9.07-51.54,19.78-.06.03-.11.06-.17.09-.07.04-9.56,5.39-17.69,18.27-2.38,4.66-6.06,14.29-4.66,20.58.06.25.09.5.12.75,0,.05,1.1,9.4,9.64,18.88,1.05,1.02,5.09,5.23,9.15,12.83.46.86.8,1.77,1.02,2.7.81,3.5,2.98,15.62-2.87,24.84-.19.33-2.68,4.93-2.22,10.95.31,1.21,2.2,7.83,8.47,13.93.31.3.57.59.82.9,1.6,1.99,9.4,12.52,6.01,23.62-.42,1.37-1.08,2.61-1.97,3.69-2.11,2.57-8.52,8.16-22.37,4.6-.33-.09-.66-.2-.97-.34-1.28-.55-13.25-5.18-23.2,7.77-1.49,3.07-5.49,13.3,2.74,20.8.05.04.1.09.15.14.34.33,8.41,8.26,15.54,20.08.41.69.76,1.43,1.01,2.19,1.48,4.38,5.65,19.82-2.55,34.71-.7,1.34-8.21,15.29-21.37,26.13-1.11,1-14.24,12.87-20.82,23.43-.63,1.44-5.09,12.14-4.73,26.44Zm171.1-55.27h0ZM122.56,24.07s0,0,0,0c0,0,0,0,0,0ZM265.72-5.67c4.33,7.78,8.84,7.38,9.78,7.19.08-.05.25-.15.49-.37,1.63-1.48,3.64-2.42,5.75-2.75-4.08-2.74-7.03-6.88-8.54-9.93-3.79-7.45-4.16-16.3-4.19-18.78-1.43-7.12-9.15-10.7-10.05-11.1-11.74-4.07-23.91-3.49-24.03-3.49-.06,0-.14,0-.2,0-2.6.05-4.39,1.23-5.33,3.49.55,2.51,6.84,4.37,10.39,4.73.12.01.26.03.39.05,14.15,2.3,19.23,14.77,20.05,17.08,2.43,5.74,4.86,12.18,5.49,13.86Zm9.73,7.22h-.02s0,0,.02,0Zm11.62-71.92h0,0Zm-11.64-12.93h0s0,0,0,0Z"/>
    </g>
    <path class="cls-4" d="m229.27,468.53c-.42,0-.83,0-1.25-.01-4.22-.09-8.33-.92-12.21-2.47-5.33-2.13-10.38-4.89-15.03-8.21-5.46-3.9-17.16-9.58-23.51-12.19-6.32-2.5-18.69-6.53-25.33-7.51-5.65-.83-11.21-2.35-16.52-4.51-3.88-1.58-7.41-3.83-10.51-6.69-39.78-36.8-33.04-128.65-28.3-166.43,2.95-23.47,11.4-45.55,24.43-63.86,21.53-30.24,50.2-44.48,85.2-42.35,11.53.71,22.85,4.5,34.6,11.6.03.02.06.04.1.06,11.14,7.09,36.69,17.69,41.26,19.48,4.62,1.91,30.37,12.01,43.32,14.64.04,0,.07.02.11.02,13.39,3.03,24.17,8.15,32.97,15.65,26.69,22.74,37.45,52.89,31.98,89.6l-4.95-.74,4.95.74c-3.31,22.23-12.55,43.99-26.71,62.94-22.62,30.27-80.76,100.24-134.6,100.24Zm-29.95-304.44c-28.79,0-51.78,12.59-70.13,38.36-12.08,16.96-19.91,37.47-22.65,59.31-4.55,36.25-11.21,124.19,25.16,157.84,2.21,2.04,4.73,3.65,7.48,4.77,4.58,1.86,9.36,3.17,14.22,3.89,7.72,1.14,21.04,5.53,27.61,8.13,6.59,2.71,19.23,8.79,25.58,13.32,4,2.85,8.35,5.23,12.94,7.07,2.76,1.1,5.69,1.7,8.7,1.76.36,0,.73.01,1.09.01,49.28,0,104.83-67.18,126.54-96.23,13.17-17.62,21.76-37.83,24.83-58.43h0c5-33.54-4.35-59.88-28.57-80.52-7.52-6.41-16.89-10.82-28.64-13.49-15.4-3.14-44.73-15.03-45.02-15.15-.2-.08-29.59-11.87-42.84-20.28-10.31-6.23-20.12-9.55-29.98-10.15-2.13-.13-4.24-.2-6.31-.2Z"/>
    <path class="cls-4" d="m279.62,216.38c9.9-21.18,23.72-31.91,32.57-36.94,5.17-2.94,12.51-3.87,17.18-3.91,6.96-.06,15.54-.38,15.97-1.29,5.08-10.61-.53-12.79-.53-12.79-43.94-3.99-65.05,36.5-72.64,50.98l7.44,3.95Z"/>
    <path class="cls-4" d="m228.96,186.2s16.12,27.65,109.06,37.01c0,0-82.15,13.59-109.06-37.01Z"/>
    <path class="cls-4" d="m225.68,104.72h23.18c25.04,0,45.38,20.33,45.38,45.38v10.12h-23.18c-25.04,0-45.38-20.33-45.38-45.38v-10.12h0Z" transform="translate(77.12 -94.9) rotate(24.19)"/>
  </g>
</svg>