<svg width="149" height="179" viewBox="0 0 149 179" fill="none" xmlns="http://www.w3.org/2000/svg"><path d="M72.637 1.101 C 70.092 3.800,63.967 20.074,62.686 27.541 C 62.344 29.535,61.984 31.550,61.887 32.019 C 61.716 32.847,61.580 32.932,57.241 34.930 C 50.786 37.901,48.463 38.769,41.752 40.717 C 35.250 42.605,32.241 43.663,28.719 45.298 C 20.904 48.926,12.253 55.878,8.470 61.571 C 4.902 66.940,2.447 73.590,1.359 80.832 C 0.794 84.592,0.788 92.725,1.347 96.726 C 3.112 109.358,8.693 122.109,17.756 134.213 C 22.798 140.948,27.457 146.095,41.339 160.264 C 52.031 171.178,54.162 173.015,58.822 175.329 C 65.186 178.491,73.589 178.909,88.282 176.795 C 106.231 174.213,121.545 165.949,130.489 154.016 C 133.803 149.596,135.233 146.005,137.724 135.858 C 138.610 132.249,140.047 127.109,140.918 124.435 C 145.003 111.893,147.216 102.033,148.165 92.139 C 148.630 87.303,148.505 78.823,147.912 74.873 C 146.179 63.327,142.086 53.980,134.794 44.915 C 126.167 34.190,115.204 27.425,102.382 24.914 C 99.211 24.292,98.499 24.244,92.628 24.245 C 87.225 24.245,85.877 24.323,83.440 24.775 C 79.864 25.439,76.823 26.317,73.631 27.608 C 72.265 28.161,70.990 28.675,70.798 28.752 C 69.634 29.212,72.256 23.625,74.805 20.213 C 75.835 18.833,76.828 17.436,77.011 17.109 C 77.473 16.285,77.401 12.794,76.870 10.182 C 76.047 6.134,74.738 0.908,74.466 0.579 C 74.020 0.043,73.493 0.193,72.637 1.101 M96.229 30.057 C 103.763 30.765,111.087 33.176,117.144 36.941 C 125.647 42.226,133.235 50.763,137.835 60.221 C 141.834 68.440,143.366 75.505,143.383 85.799 C 143.400 96.936,141.498 107.241,136.571 122.691 C 135.632 125.636,134.248 130.553,133.496 133.618 C 130.606 145.401,128.896 148.762,122.565 155.102 C 119.023 158.650,116.729 160.462,112.744 162.864 C 104.432 167.873,96.138 170.492,83.440 172.117 C 77.657 172.857,69.671 172.929,66.597 172.268 C 62.118 171.306,58.288 169.429,54.442 166.311 C 52.393 164.651,33.511 145.360,29.816 141.153 C 19.016 128.854,12.933 118.789,9.345 107.280 C 7.550 101.524,6.710 95.973,6.707 89.847 C 6.702 79.724,9.331 70.759,14.367 63.725 C 17.883 58.813,24.648 53.449,31.637 50.031 C 35.717 48.035,37.717 47.307,44.700 45.277 C 50.799 43.503,52.244 42.974,57.572 40.560 C 59.530 39.673,61.166 38.985,61.206 39.030 C 61.349 39.189,60.598 45.089,60.201 46.935 C 59.980 47.959,59.468 49.499,59.063 50.357 C 58.191 52.202,57.410 52.795,54.376 53.916 C 52.534 54.597,51.737 54.730,47.928 55.000 C 43.723 55.297,43.520 55.337,41.655 56.224 C 39.088 57.446,37.747 58.717,37.747 59.928 C 37.747 60.661,37.874 60.894,38.430 61.178 C 42.410 63.210,54.463 61.687,66.982 57.570 C 73.149 55.542,77.399 53.431,79.717 51.245 C 83.157 48.000,85.362 43.545,84.063 42.467 C 83.355 41.879,81.572 42.454,77.099 44.711 C 74.675 45.934,72.446 46.935,72.146 46.935 C 71.672 46.935,71.528 46.665,71.054 44.896 C 70.422 42.533,69.882 39.375,69.678 36.839 L 69.534 35.062 72.509 33.805 C 80.440 30.456,87.912 29.275,96.229 30.057 " fill="white" stroke="none" fill-rule="evenodd"></path></svg>