<svg width="829" height="610" viewBox="0 0 829 610" fill="none" xmlns="http://www.w3.org/2000/svg"><path d="M-61.694 -377.612C-61.694 -377.612 -133.785 -125.699 144.333 17.1638C422.45 160.027 389.984 -123.177 392.315 -177.488C394.646 -231.798 395.668 -279.725 411.171 -312.144M-82.78 -322.846C-82.78 -322.846 -121.382 -70.9329 166.378 54.5099C454.144 179.953 424.029 -92.549 412.395 -162.876C400.76 -233.203 406.016 -300.26 438.959 -348.531M-103.867 -268.08C-103.867 -268.08 -108.979 -16.1663 188.429 91.8511C485.837 199.874 458.08 -61.9259 432.474 -148.269C406.869 -234.612 416.363 -320.801 466.748 -384.924M-124.953 -213.314C-124.953 -213.314 -96.5763 38.5945 210.479 129.192C517.535 219.789 492.126 -31.3032 452.554 -133.662C412.983 -236.021 426.71 -341.342 494.531 -421.316M-146.039 -158.547C-146.039 -158.547 -84.1787 93.3609 232.53 166.538C549.234 239.715 526.176 -0.66947 472.639 -119.05C419.102 -237.43 437.063 -361.877 522.325 -457.703M-167.126 -103.781C-167.126 -103.781 -71.7763 148.127 254.575 203.879C580.926 259.631 560.222 29.9533 492.713 -104.443C425.205 -238.84 447.404 -382.418 550.108 -494.096M-188.217 -49.0145C-188.217 -49.0145 -59.3785 202.894 276.621 241.225C612.62 279.557 594.267 60.5816 512.793 -89.831C431.314 -240.244 457.752 -402.953 577.891 -530.483M-209.304 5.75727C-209.304 5.75727 -46.9757 257.66 298.671 278.571C644.318 299.483 628.318 91.21 532.873 -75.2187C437.428 -241.653 468.099 -423.483 605.679 -566.87M-230.39 60.5234C-230.39 60.5234 -34.5727 312.426 320.722 315.912C676.017 319.398 662.369 121.838 552.953 -60.6173C443.542 -243.067 478.446 -444.029 633.468 -603.268M-251.477 115.29C-251.477 115.29 -22.1704 367.193 342.772 353.259C707.715 339.325 696.419 152.467 573.038 -46.005C449.656 -244.477 488.798 -464.564 661.261 -639.655M-272.563 170.056C-272.563 170.056 -9.76738 421.959 364.818 390.599C739.403 359.24 730.465 183.089 593.112 -31.3984C455.765 -245.886 499.14 -485.105 689.039 -676.048M-293.649 224.822C-293.649 224.822 2.63558 476.725 386.869 427.94C771.101 379.16 764.511 213.712 613.192 -16.7918C461.873 -247.296 509.487 -505.646 716.828 -712.441M-314.735 279.588C-314.735 279.588 15.0384 531.486 408.919 465.286C802.8 399.087 798.561 244.346 633.277 -2.17957C467.993 -248.705 519.84 -526.181 744.622 -748.828M-335.822 334.355C-335.822 334.355 27.4414 586.252 430.97 502.628C834.499 419.003 832.612 274.969 653.357 12.4276C474.102 -250.114 530.187 -546.722 772.405 -785.22M-356.914 389.121C-356.914 389.121 39.8386 641.018 453.01 539.973C866.186 438.928 866.652 305.597 673.431 27.0393C480.21 -251.518 540.529 -567.252 800.188 -821.608M-378 443.887C-378 443.887 52.2415 695.785 475.06 577.314C897.879 458.844 900.703 336.22 693.511 41.6465C486.324 -252.932 550.881 -587.792 827.976 -858" stroke="white" stroke-width="2" stroke-miterlimit="10"/></svg>