<svg width="541" height="317" viewBox="0 0 541 317" fill="none" xmlns="http://www.w3.org/2000/svg"><path d="M-349.694 -670.612C-349.694 -670.612 -421.785 -418.699 -143.667 -275.836C134.45 -132.973 101.984 -416.177 104.315 -470.488C106.646 -524.798 107.668 -572.725 123.171 -605.144M-370.78 -615.846C-370.78 -615.846 -409.382 -363.933 -121.622 -238.49C166.144 -113.047 136.029 -385.549 124.395 -455.876C112.76 -526.203 118.016 -593.26 150.959 -641.531M-391.867 -561.08C-391.867 -561.08 -396.979 -309.166 -99.5713 -201.149C197.837 -93.1263 170.08 -354.926 144.474 -441.269C118.869 -527.612 128.363 -613.801 178.748 -677.924M-412.953 -506.314C-412.953 -506.314 -384.576 -254.405 -77.5206 -163.808C229.535 -73.211 204.126 -324.303 164.554 -426.662C124.983 -529.021 138.71 -634.342 206.531 -714.316M-434.039 -451.547C-434.039 -451.547 -372.179 -199.639 -55.4698 -126.462C261.234 -53.2848 238.176 -293.669 184.639 -412.05C131.102 -530.43 149.063 -654.877 234.325 -750.703M-455.126 -396.781C-455.126 -396.781 -359.776 -144.873 -33.4249 -89.1212C292.926 -33.3695 272.222 -263.047 204.713 -397.443C137.205 -531.84 159.404 -675.418 262.108 -787.096M-476.217 -342.015C-476.217 -342.015 -347.379 -90.1065 -11.3794 -51.7748C324.62 -13.4432 306.267 -232.418 224.793 -382.831C143.314 -533.244 169.752 -695.953 289.891 -823.483M-497.304 -287.243C-497.304 -287.243 -334.976 -35.3401 10.6713 -14.4285C356.318 6.48301 340.318 -201.79 244.873 -368.219C149.428 -534.653 180.099 -716.483 317.679 -859.87M-518.39 -232.477C-518.39 -232.477 -322.573 19.4262 32.7221 22.9124C388.017 26.3985 374.369 -171.162 264.953 -353.617C155.542 -536.067 190.446 -737.029 345.468 -896.268M-539.477 -177.71C-539.477 -177.71 -310.17 74.1926 54.7723 60.2587C419.715 46.3247 408.419 -140.533 285.038 -339.005C161.656 -537.477 200.798 -757.564 373.261 -932.655M-560.563 -122.944C-560.563 -122.944 -297.767 128.959 76.8178 97.5993C451.403 66.2399 442.465 -109.911 305.112 -324.398C167.765 -538.886 211.14 -778.105 401.039 -969.048M-581.649 -68.178C-581.649 -68.178 -285.364 183.725 98.8685 134.94C483.101 86.1605 476.511 -79.288 325.192 -309.792C173.873 -540.296 221.487 -798.646 428.828 -1005.44M-602.735 -13.4116C-602.735 -13.4116 -272.962 238.486 120.919 172.286C514.8 106.087 510.561 -48.6544 345.277 -295.18C179.993 -541.705 231.84 -819.181 456.622 -1041.83M-623.822 41.355C-623.822 41.355 -260.559 293.252 142.97 209.628C546.499 126.003 544.612 -18.0311 365.357 -280.572C186.102 -543.114 242.187 -839.722 484.405 -1078.22M-644.914 96.121C-644.914 96.121 -248.161 348.018 165.01 246.973C578.186 145.928 578.652 12.5967 385.431 -265.961C192.21 -544.518 252.529 -860.252 512.188 -1114.61M-666 150.887C-666 150.887 -235.758 402.785 187.06 284.314C609.879 165.844 612.703 43.22 405.511 -251.354C198.324 -545.932 262.881 -880.792 539.976 -1151" stroke="white" stroke-width="2" stroke-miterlimit="10"/></svg>