<svg width="180" height="61" viewBox="0 0 180 61" fill="none" xmlns="http://www.w3.org/2000/svg">
<g clip-path="url(#clip0_1289_47620)">
<path d="M59.6223 51.9626C59.6223 51.9444 59.6124 51.9246 59.6025 51.9081C59.5926 51.8916 59.5827 51.8833 59.5827 51.8833C59.1171 51.8751 58.64 51.8635 58.1513 51.8552C57.6626 51.8486 57.164 51.8437 56.6621 51.8437C55.1415 51.8437 54.3821 51.8486 54.0023 51.8635C53.6226 51.8784 53.6226 51.9015 53.6226 51.9411V55.3553C53.6226 55.7103 53.6325 56.0355 53.6589 56.3393C53.687 56.6414 53.7316 56.9238 53.8009 57.1896C53.8306 57.2985 54.1064 57.3959 54.3953 57.4669C54.6842 57.5379 54.983 57.5842 55.0623 57.5842C55.1118 57.5842 55.1316 57.6964 55.1349 57.8252C55.1366 57.954 55.1234 58.096 55.1019 58.1554C54.7073 58.1356 54.3524 58.1125 53.9875 58.091C53.6226 58.0712 53.2462 58.0563 52.812 58.0563C52.3778 58.0563 51.9931 58.0712 51.6282 58.091C51.2634 58.1108 50.8985 58.1356 50.4445 58.1554C50.4247 58.1356 50.4049 58.091 50.39 58.0365C50.3751 57.982 50.3652 57.9193 50.3652 57.8582C50.3652 57.7971 50.3735 57.7311 50.39 57.6766C50.4049 57.6221 50.4247 57.5825 50.4445 57.5825C50.5634 57.5825 50.8688 57.5429 51.1561 57.4735C51.445 57.4042 51.7157 57.3051 51.7669 57.1879C51.8264 56.9601 51.8594 56.6101 51.8808 56.2716C51.9006 55.9348 51.9056 55.6079 51.9056 55.4313V47.774C51.9056 47.5957 51.9006 47.2705 51.8808 46.9337C51.861 46.5952 51.8264 46.2452 51.7669 46.019C51.7174 45.9002 51.4466 45.7961 51.1561 45.7235C50.8671 45.6492 50.5617 45.6046 50.4445 45.6046C50.4247 45.6046 50.4049 45.57 50.39 45.5204C50.3751 45.4725 50.3652 45.4065 50.3652 45.3487C50.3652 45.2909 50.3735 45.2216 50.39 45.1622C50.4049 45.1027 50.4247 45.0532 50.4445 45.0334C50.8985 45.0515 51.2634 45.0829 51.6282 45.1077C51.9931 45.1324 52.3596 45.1523 52.812 45.1523C53.2644 45.1523 53.6226 45.1324 53.9875 45.1077C54.3524 45.0829 54.7073 45.0532 55.1019 45.0334C55.1217 45.0928 55.1366 45.2348 55.1349 45.3636C55.1333 45.4924 55.1135 45.6063 55.0623 45.6063C54.983 45.6063 54.6826 45.6558 54.3953 45.7301C54.1064 45.8077 53.8306 45.9101 53.8009 46.019C53.7316 46.2848 53.687 46.5671 53.6589 46.8709C53.6325 47.1747 53.6226 47.5 53.6226 47.8549V50.7953C53.6226 50.8052 53.6325 50.8201 53.6424 50.8316C53.6523 50.8432 53.6622 50.8531 53.6622 50.8531C54.146 50.863 54.6198 50.8713 55.1085 50.8795C55.5989 50.8878 56.1074 50.8911 56.6604 50.8911C57.1244 50.8911 57.6312 50.8878 58.1348 50.8795C58.6383 50.8729 59.1369 50.863 59.581 50.8531C59.581 50.8531 59.5909 50.8432 59.6008 50.8283C59.6107 50.8135 59.6206 50.7937 59.6206 50.7739V47.774C59.6206 47.5957 59.6157 47.2705 59.5959 46.9337C59.5761 46.5952 59.5414 46.2452 59.482 46.019C59.4341 45.9002 59.1617 45.7961 58.8727 45.7235C58.5838 45.6492 58.2784 45.6046 58.1595 45.6046C58.11 45.6046 58.0852 45.4858 58.0852 45.3553C58.0852 45.2249 58.11 45.0813 58.1595 45.0317C58.6135 45.0499 58.9834 45.0813 59.3532 45.106C59.723 45.1308 60.0928 45.1506 60.5468 45.1506C61.0009 45.1506 61.3459 45.1308 61.7009 45.106C62.0558 45.0813 62.4009 45.0516 62.7955 45.0317C62.8054 45.0615 62.8153 45.111 62.8235 45.1638C62.8301 45.2183 62.8351 45.2777 62.8351 45.3273C62.8351 45.3867 62.8302 45.4544 62.8169 45.5089C62.8054 45.5634 62.7856 45.603 62.7559 45.603C62.6766 45.603 62.3761 45.6525 62.0872 45.7268C61.7983 45.8044 61.5226 45.9068 61.4929 46.0157C61.4235 46.2815 61.3839 46.5638 61.3624 46.8676C61.3393 47.1714 61.3344 47.4967 61.3344 47.8516V55.3504C61.3344 55.7053 61.3393 56.0306 61.3624 56.3344C61.3839 56.6365 61.4235 56.9188 61.4929 57.1846C61.5226 57.2936 61.7983 57.391 62.0872 57.462C62.3761 57.533 62.6766 57.5792 62.7559 57.5792C62.7856 57.5792 62.8054 57.6238 62.8169 57.6832C62.8285 57.7427 62.8351 57.8153 62.8351 57.8747C62.8351 57.9259 62.8301 57.9787 62.8235 58.0299C62.8169 58.0778 62.8054 58.1224 62.7955 58.1521C62.4009 58.1323 62.0558 58.1092 61.7009 58.0877C61.3459 58.0679 60.9811 58.053 60.5468 58.053C60.1126 58.053 59.723 58.0679 59.3532 58.0877C58.9834 58.1075 58.6135 58.1323 58.1595 58.1521C58.11 58.1026 58.0852 57.9606 58.0852 57.8285C58.0852 57.6964 58.11 57.5792 58.1595 57.5792C58.2784 57.5792 58.5838 57.5396 58.8727 57.4702C59.1617 57.4009 59.4324 57.3018 59.482 57.1846C59.5414 56.9568 59.5761 56.6068 59.5959 56.2683C59.6157 55.9315 59.6206 55.6046 59.6206 55.428V51.9527L59.6223 51.9626Z" fill="white"/>
<path d="M66.0423 46.0223C65.9928 45.9034 65.722 45.7994 65.4314 45.7267C65.1425 45.6524 64.8371 45.6079 64.7199 45.6079C64.7001 45.6079 64.6802 45.5732 64.6654 45.5237C64.6505 45.4758 64.6406 45.4097 64.6406 45.352C64.6406 45.2942 64.6505 45.2248 64.6654 45.1654C64.6802 45.106 64.7001 45.0564 64.7199 45.0366C65.1739 45.0548 65.5388 45.0795 65.9036 45.101C66.2685 45.1208 66.6334 45.1357 67.0874 45.1357C67.5414 45.1357 67.898 45.1208 68.2612 45.101C68.6261 45.0812 68.9811 45.0564 69.3773 45.0366C69.3872 45.0663 69.3971 45.1159 69.4054 45.1687C69.412 45.2232 69.4169 45.2826 69.4169 45.3321C69.4169 45.3916 69.412 45.4593 69.3988 45.5138C69.3872 45.5682 69.3657 45.6079 69.3377 45.6079C69.2601 45.6079 68.9579 45.6574 68.669 45.7317C68.3818 45.8093 68.1044 45.9116 68.0747 46.0206C68.0053 46.2864 67.9608 46.5687 67.9343 46.8725C67.9063 47.1763 67.898 47.5015 67.898 47.8565V55.3553C67.898 55.7102 67.9079 56.0355 67.9343 56.3392C67.9624 56.6414 68.0053 56.9237 68.0747 57.1895C68.1044 57.2985 68.3801 57.3959 68.669 57.4669C68.9579 57.5379 69.2601 57.5841 69.3377 57.5841C69.3674 57.5841 69.3872 57.6287 69.3988 57.6881C69.4103 57.7475 69.4169 57.8202 69.4169 57.8796C69.4169 57.9308 69.412 57.9836 69.4054 58.0348C69.3988 58.0827 69.3872 58.1273 69.3773 58.157C68.9827 58.1372 68.6277 58.114 68.2612 58.0926C67.8964 58.0728 67.5216 58.0579 67.0874 58.0579C66.6532 58.0579 66.2685 58.0728 65.9036 58.0926C65.5388 58.1124 65.1722 58.1372 64.7199 58.157C64.7001 58.1372 64.6802 58.0926 64.6654 58.0381C64.6505 57.9836 64.6406 57.9209 64.6406 57.8598C64.6406 57.7987 64.6505 57.7327 64.6654 57.6782C64.6802 57.6237 64.7001 57.5841 64.7199 57.5841C64.8371 57.5841 65.1442 57.5445 65.4314 57.4751C65.7204 57.4058 65.9911 57.3067 66.0423 57.1895C66.1017 56.9617 66.1348 56.6117 66.1546 56.2732C66.1744 55.9364 66.1793 55.6095 66.1793 55.4329V47.7756C66.1793 47.5973 66.1744 47.2721 66.1546 46.9353C66.1348 46.5968 66.1001 46.2468 66.0423 46.0206V46.0223Z" fill="white"/>
<path d="M77.3656 44.9377C78.0161 44.9377 78.7871 45.0516 79.5928 45.2184C80.4001 45.3851 81.2438 45.608 82.0429 45.8243C82.0429 45.8243 82.0627 46.3872 82.0808 46.975C82.1007 47.5611 82.1205 48.1753 82.1205 48.271C82.1205 48.3668 82.066 48.4427 81.9884 48.4939C81.9091 48.5434 81.8051 48.5682 81.7077 48.5682C81.6483 48.5682 81.5938 48.5583 81.5509 48.5401C81.5063 48.522 81.4716 48.4989 81.4518 48.4691C81.3924 48.1637 81.2454 47.4885 80.6825 46.8858C80.1211 46.2865 79.1437 45.7632 77.4267 45.7632C76.0944 45.7632 74.9403 46.4203 74.1182 47.4637C73.2976 48.5071 72.8089 49.9385 72.8089 51.4855C72.8089 52.8475 73.3108 54.3169 74.2007 55.4478C75.0873 56.5771 76.3618 57.3663 77.9006 57.3663C78.414 57.3663 78.8878 57.3465 79.3171 57.2821C79.7464 57.2193 80.131 57.1087 80.4662 56.9337C80.5256 56.9024 80.5603 56.8627 80.5801 56.8132C80.5999 56.7653 80.6049 56.7059 80.6049 56.6365C80.6049 56.3691 80.5999 55.9646 80.595 55.6278C80.59 55.2893 80.5851 55.0186 80.5851 55.0186V54.8799C80.5851 54.7132 80.5851 54.3929 80.5652 54.0627C80.5454 53.7325 80.5058 53.3907 80.4266 53.1843C80.3671 53.0358 80.0468 52.9284 79.7117 52.8575C79.3765 52.7848 79.0265 52.7501 78.9077 52.7501C78.8581 52.7501 78.8334 52.6329 78.8334 52.5008C78.8334 52.3688 78.8581 52.2284 78.9077 52.1772C79.4096 52.1971 79.8041 52.2218 80.2004 52.2416C80.595 52.2614 80.9895 52.2763 81.4931 52.2763C81.9075 52.2763 82.2426 52.2614 82.5745 52.2416C82.9047 52.2218 83.2299 52.1971 83.6245 52.1772C83.6344 52.207 83.6443 52.2466 83.6526 52.2928C83.6592 52.3407 83.6641 52.3952 83.6641 52.4546C83.6641 52.524 83.6592 52.5982 83.646 52.6544C83.6344 52.7105 83.613 52.7501 83.5849 52.7501C83.5056 52.7501 83.2795 52.8046 83.0434 52.8756C82.8056 52.9483 82.5596 53.0358 82.4408 53.1051C82.3516 53.1645 82.3021 53.2586 82.2757 53.4568C82.2492 53.6532 82.2443 53.9537 82.2443 54.4292C82.2443 54.7841 82.2591 55.0896 82.274 55.3323C82.2889 55.5733 82.3037 55.7516 82.3037 55.849C82.3037 56.1446 82.3731 56.3674 82.4424 56.5391C82.5118 56.7125 82.5811 56.8347 82.5811 56.9354C82.5811 56.9932 82.5464 57.0476 82.4688 57.1038C82.3896 57.1599 82.2658 57.2193 82.0891 57.2903C81.5657 57.4868 81.0292 57.7179 80.273 57.9012C79.5185 58.0828 78.5461 58.2165 77.156 58.2165C75.4092 58.2165 73.8441 57.4719 72.7181 56.2898C71.5905 55.1077 70.9004 53.4898 70.9004 51.7447C70.9004 49.8989 71.6054 48.1967 72.7677 46.9568C73.9299 45.7153 75.5479 44.936 77.3739 44.936L77.3656 44.9377Z" fill="white"/>
<path d="M94.1187 51.9626C94.1187 51.9444 94.1088 51.9246 94.0989 51.9081C94.089 51.8932 94.0791 51.8833 94.0791 51.8833C93.6151 51.8751 93.138 51.8635 92.6477 51.8552C92.159 51.8486 91.6604 51.8437 91.1585 51.8437C89.6396 51.8437 88.8785 51.8486 88.4987 51.8635C88.119 51.8784 88.119 51.9015 88.119 51.9411V55.3553C88.119 55.7103 88.1289 56.0355 88.157 56.3393C88.1834 56.6414 88.228 56.9238 88.2973 57.1896C88.327 57.2985 88.6028 57.3959 88.8917 57.4669C89.1806 57.5379 89.4811 57.5842 89.5603 57.5842C89.6098 57.5842 89.6297 57.6964 89.6313 57.8252C89.6346 57.954 89.6198 58.096 89.6 58.1554C89.2054 58.1356 88.8504 58.1125 88.4839 58.091C88.119 58.0712 87.7442 58.0563 87.31 58.0563C86.8758 58.0563 86.4911 58.0712 86.1263 58.091C85.7614 58.1108 85.3965 58.1356 84.9425 58.1554C84.9244 58.1356 84.9029 58.091 84.888 58.0365C84.8732 57.982 84.8633 57.9193 84.8633 57.8582C84.8633 57.7971 84.8732 57.7311 84.888 57.6766C84.9029 57.6221 84.9227 57.5825 84.9425 57.5825C85.0614 57.5825 85.3668 57.5429 85.6558 57.4735C85.9447 57.4042 86.2154 57.3051 86.265 57.1879C86.3244 56.9601 86.3591 56.6101 86.3789 56.2716C86.3987 55.9348 86.4036 55.6079 86.4036 55.4313V47.774C86.4036 47.5957 86.4003 47.2705 86.3789 46.9337C86.3591 46.5952 86.3244 46.2452 86.265 46.019C86.2171 45.9002 85.9447 45.7961 85.6558 45.7235C85.3668 45.6492 85.0614 45.6046 84.9425 45.6046C84.9244 45.6046 84.9029 45.57 84.888 45.5204C84.8732 45.4725 84.8633 45.4065 84.8633 45.3487C84.8633 45.2909 84.8732 45.2216 84.888 45.1622C84.9029 45.1027 84.9227 45.0532 84.9425 45.0334C85.3965 45.0515 85.7614 45.0829 86.1263 45.1077C86.4911 45.1324 86.8577 45.1523 87.31 45.1523C87.7624 45.1523 88.119 45.1324 88.4839 45.1077C88.8488 45.0829 89.2054 45.0532 89.6 45.0334C89.6198 45.0928 89.6346 45.2348 89.6313 45.3636C89.6297 45.4924 89.6098 45.6063 89.5603 45.6063C89.4811 45.6063 89.1806 45.6558 88.8917 45.7301C88.6028 45.8077 88.327 45.9101 88.2973 46.019C88.228 46.2848 88.1834 46.5671 88.157 46.8709C88.1289 47.1747 88.119 47.5 88.119 47.8549V50.7953C88.119 50.8052 88.1289 50.8201 88.1388 50.8316C88.1487 50.8432 88.1586 50.8531 88.1586 50.8531C88.6424 50.863 89.1146 50.8713 89.6066 50.8795C90.0969 50.8878 90.6054 50.8911 91.1585 50.8911C91.6224 50.8911 92.1309 50.8878 92.6328 50.8795C93.138 50.8729 93.635 50.863 94.0791 50.8531C94.0791 50.8531 94.089 50.8432 94.0989 50.8283C94.1088 50.8135 94.1187 50.7937 94.1187 50.7739V47.774C94.1187 47.5957 94.1137 47.2705 94.0939 46.9337C94.0741 46.5952 94.0394 46.2452 93.9817 46.019C93.9321 45.9002 93.6614 45.7961 93.3708 45.7235C93.0835 45.6492 92.7764 45.6046 92.6592 45.6046C92.6097 45.6046 92.5849 45.4858 92.5849 45.3553C92.5849 45.2249 92.6097 45.0813 92.6592 45.0317C93.1132 45.0499 93.4831 45.0813 93.8529 45.106C94.2227 45.1308 94.5925 45.1506 95.0465 45.1506C95.5006 45.1506 95.8456 45.1308 96.2022 45.106C96.5572 45.0813 96.9022 45.0516 97.2968 45.0317C97.3067 45.0615 97.3166 45.111 97.3232 45.1638C97.3315 45.2183 97.3365 45.2777 97.3365 45.3273C97.3365 45.3867 97.3315 45.4544 97.3183 45.5089C97.3067 45.5634 97.2869 45.603 97.2572 45.603C97.178 45.603 96.8775 45.6525 96.5886 45.7268C96.2996 45.8044 96.0239 45.9068 95.9942 46.0157C95.9249 46.2815 95.8852 46.5638 95.8621 46.8676C95.8407 47.1714 95.8357 47.4967 95.8357 47.8516V55.3504C95.8357 55.7053 95.839 56.0306 95.8621 56.3344C95.8852 56.6365 95.9249 56.9188 95.9942 57.1846C96.0223 57.2936 96.2996 57.391 96.5886 57.462C96.8775 57.533 97.178 57.5792 97.2572 57.5792C97.2869 57.5792 97.3067 57.6238 97.3183 57.6832C97.3315 57.7427 97.3365 57.8153 97.3365 57.8747C97.3365 57.9259 97.3315 57.9787 97.3232 58.0299C97.3166 58.0778 97.3067 58.1224 97.2968 58.1521C96.9022 58.1323 96.5555 58.1092 96.2022 58.0877C95.8473 58.0679 95.4824 58.053 95.0465 58.053C94.6107 58.053 94.2227 58.0679 93.8529 58.0877C93.4831 58.1075 93.1132 58.1323 92.6592 58.1521C92.6097 58.1026 92.5849 57.9606 92.5849 57.8285C92.5849 57.6964 92.6097 57.5792 92.6592 57.5792C92.7764 57.5792 93.0835 57.5396 93.3708 57.4702C93.6597 57.4009 93.9305 57.3018 93.9817 57.1846C94.0411 56.9568 94.0741 56.6068 94.0939 56.2683C94.1137 55.9315 94.1187 55.6046 94.1187 55.428V51.9527V51.9626Z" fill="white"/>
<path d="M108.466 44.9575C109.078 44.9575 109.496 45.0219 109.927 45.1226C110.356 45.225 110.795 45.362 111.447 45.5106C111.565 46.0323 111.624 46.6052 111.654 47.1137C111.683 47.6206 111.683 48.0663 111.683 48.3305C111.683 48.4015 111.649 48.4345 111.606 48.4527C111.565 48.4708 111.515 48.4708 111.485 48.4708C111.447 48.4708 111.328 48.4708 111.215 48.4444C111.101 48.4196 110.993 48.3718 110.973 48.2727C110.914 47.7791 110.643 47.1517 110.191 46.6498C109.74 46.1462 109.108 45.7649 108.329 45.7649C107.46 45.7649 106.922 46.0422 106.602 46.4368C106.28 46.8314 106.176 47.3432 106.176 47.817C106.176 48.6078 106.541 49.1642 107.069 49.6281C107.597 50.0921 108.287 50.4602 108.939 50.8763C109.59 51.2907 110.448 51.7546 111.144 52.3589C111.839 52.9631 112.372 53.7094 112.372 54.6851C112.372 55.7715 111.868 56.6745 111.102 57.3052C110.335 57.9375 109.304 58.2975 108.248 58.2975C107.577 58.2975 106.93 58.2034 106.331 58.0845C105.732 57.9673 105.179 57.822 104.696 57.7246C104.578 57.1434 104.455 56.417 104.36 55.8078C104.267 55.1986 104.201 54.7066 104.201 54.5877C104.201 54.5382 104.246 54.5101 104.308 54.4919C104.37 54.4754 104.449 54.4705 104.518 54.4705C104.627 54.4705 104.734 54.4952 104.824 54.5299C104.913 54.5629 104.982 54.6075 105.012 54.6488C105.081 54.9443 105.248 55.6559 105.723 56.2899C106.201 56.9271 106.985 57.4901 108.287 57.4901C108.9 57.4901 109.491 57.3069 109.93 56.9321C110.368 56.5573 110.655 55.991 110.655 55.2217C110.655 54.4011 110.34 53.8877 109.852 53.4832C109.367 53.0754 108.712 52.7749 108.03 52.3803C107.27 51.9362 106.41 51.4475 105.743 50.8202C105.075 50.1944 104.596 49.43 104.596 48.4345C104.596 47.3878 105.07 46.521 105.789 45.9134C106.511 45.3059 107.477 44.9608 108.464 44.9608L108.466 44.9575Z" fill="white"/>
<path d="M125.078 57.3515C124.505 57.6966 123.78 57.9129 122.971 58.0433C122.162 58.1754 121.269 58.22 120.361 58.22C118.614 58.22 117.051 57.4754 115.923 56.2933C114.796 55.1112 114.105 53.4932 114.105 51.7481C114.105 49.9023 114.81 48.2001 115.971 46.9603C117.133 45.7187 118.751 44.9395 120.577 44.9395C121.229 44.9395 122.033 44.984 122.872 45.0682C123.711 45.1508 124.584 45.2746 125.372 45.4331C125.372 45.4331 125.364 46.0951 125.354 46.7803C125.344 47.4655 125.334 48.1787 125.334 48.2761C125.334 48.3735 125.279 48.4478 125.2 48.499C125.121 48.5485 125.017 48.5733 124.918 48.5733C124.858 48.5733 124.804 48.5634 124.759 48.5452C124.716 48.527 124.682 48.5039 124.66 48.4742C124.601 48.1688 124.419 47.4935 123.84 46.8909C123.26 46.2916 122.283 45.7682 120.635 45.7682C119.304 45.7682 118.139 46.4699 117.308 47.5166C116.478 48.5617 115.979 49.9535 115.979 51.3337C115.979 52.8741 116.404 54.3831 117.257 55.509C118.111 56.6334 119.394 57.373 121.111 57.373C121.771 57.373 122.372 57.2492 122.887 57.0445C123.401 56.8397 123.825 56.5541 124.13 56.2272C124.447 55.8921 124.649 55.4133 124.792 55.0187C124.936 54.6241 125.018 54.3154 125.098 54.3154C125.236 54.3154 125.4 54.3583 125.527 54.4029C125.656 54.4475 125.75 54.492 125.75 54.492C125.75 54.601 125.626 55.2911 125.481 55.968C125.335 56.6433 125.167 57.3037 125.08 57.3548L125.078 57.3515Z" fill="white"/>
<path d="M136.466 51.9626C136.466 51.9444 136.456 51.9246 136.447 51.9081C136.437 51.8916 136.427 51.8833 136.427 51.8833C135.963 51.8751 135.484 51.8635 134.995 51.8552C134.508 51.8486 134.01 51.8437 133.506 51.8437C131.986 51.8437 131.228 51.8486 130.848 51.8635C130.468 51.8784 130.468 51.9015 130.468 51.9411V55.3553C130.468 55.7103 130.478 56.0355 130.506 56.3393C130.533 56.6414 130.577 56.9238 130.647 57.1896C130.676 57.2985 130.952 57.3959 131.241 57.4669C131.528 57.5379 131.83 57.5842 131.908 57.5842C131.958 57.5842 131.977 57.6964 131.979 57.8252C131.982 57.954 131.967 58.096 131.946 58.1554C131.551 58.1356 131.196 58.1125 130.832 58.091C130.467 58.0712 130.092 58.0563 129.658 58.0563C129.223 58.0563 128.837 58.0712 128.474 58.091C128.109 58.1108 127.743 58.1356 127.29 58.1554C127.27 58.1356 127.251 58.091 127.236 58.0365C127.221 57.982 127.211 57.9193 127.211 57.8582C127.211 57.7971 127.221 57.7311 127.236 57.6766C127.251 57.6221 127.27 57.5825 127.29 57.5825C127.409 57.5825 127.714 57.5429 128.003 57.4735C128.292 57.4042 128.563 57.3051 128.613 57.1879C128.672 56.9601 128.705 56.6101 128.727 56.2716C128.745 55.9348 128.751 55.6079 128.751 55.4313V47.774C128.751 47.5957 128.746 47.2705 128.727 46.9337C128.707 46.5952 128.672 46.2452 128.613 46.019C128.563 45.9002 128.292 45.7961 128.003 45.7235C127.714 45.6492 127.409 45.6046 127.29 45.6046C127.27 45.6046 127.251 45.57 127.236 45.5204C127.221 45.4725 127.211 45.4065 127.211 45.3487C127.211 45.2909 127.221 45.2216 127.236 45.1622C127.251 45.1027 127.27 45.0532 127.29 45.0334C127.744 45.0515 128.109 45.0829 128.474 45.1077C128.839 45.1324 129.204 45.1523 129.658 45.1523C130.112 45.1523 130.467 45.1324 130.832 45.1077C131.196 45.0829 131.551 45.0532 131.946 45.0334C131.966 45.0928 131.981 45.2348 131.979 45.3636C131.977 45.4924 131.958 45.6063 131.908 45.6063C131.83 45.6063 131.528 45.6558 131.241 45.7301C130.952 45.8077 130.676 45.9101 130.647 46.019C130.577 46.2848 130.533 46.5671 130.506 46.8709C130.478 47.1747 130.468 47.5 130.468 47.8549V50.7953C130.468 50.8052 130.478 50.8201 130.488 50.8316C130.498 50.8432 130.508 50.8531 130.508 50.8531C130.992 50.863 131.466 50.8713 131.956 50.8795C132.446 50.8878 132.955 50.8911 133.508 50.8911C133.972 50.8911 134.479 50.8878 134.982 50.8795C135.486 50.8729 135.984 50.863 136.428 50.8531C136.428 50.8531 136.438 50.8432 136.448 50.8283C136.458 50.8135 136.468 50.7937 136.468 50.7739V47.774C136.468 47.5957 136.465 47.2705 136.443 46.9337C136.425 46.5952 136.389 46.2452 136.329 46.019C136.28 45.9002 136.009 45.7961 135.72 45.7235C135.431 45.6492 135.126 45.6046 135.007 45.6046C134.957 45.6046 134.933 45.4858 134.933 45.3553C134.933 45.2249 134.957 45.0813 135.007 45.0317C135.461 45.0499 135.831 45.0813 136.201 45.106C136.57 45.1308 136.94 45.1506 137.394 45.1506C137.848 45.1506 138.193 45.1308 138.548 45.106C138.903 45.0813 139.25 45.0516 139.643 45.0317C139.653 45.0615 139.663 45.111 139.671 45.1638C139.679 45.2183 139.682 45.2777 139.682 45.3273C139.682 45.3867 139.679 45.4544 139.664 45.5089C139.653 45.5634 139.633 45.603 139.603 45.603C139.524 45.603 139.223 45.6525 138.935 45.7268C138.647 45.8044 138.37 45.9068 138.34 46.0157C138.271 46.2815 138.231 46.5638 138.21 46.8676C138.188 47.1714 138.182 47.4967 138.182 47.8516V55.3504C138.182 55.7053 138.187 56.0306 138.21 56.3344C138.231 56.6365 138.271 56.9188 138.34 57.1846C138.37 57.2936 138.647 57.391 138.935 57.462C139.223 57.533 139.524 57.5792 139.603 57.5792C139.633 57.5792 139.653 57.6238 139.664 57.6832C139.678 57.7427 139.682 57.8153 139.682 57.8747C139.682 57.9259 139.679 57.9787 139.671 58.0299C139.664 58.0778 139.653 58.1224 139.643 58.1521C139.248 58.1323 138.903 58.1092 138.548 58.0877C138.193 58.0679 137.828 58.053 137.394 58.053C136.94 58.053 136.57 58.0679 136.201 58.0877C135.831 58.1075 135.461 58.1323 135.007 58.1521C134.957 58.1026 134.933 57.9606 134.933 57.8285C134.933 57.6964 134.957 57.5792 135.007 57.5792C135.124 57.5792 135.431 57.5396 135.72 57.4702C136.007 57.4009 136.28 57.3018 136.329 57.1846C136.389 56.9568 136.423 56.6068 136.443 56.2683C136.463 55.9315 136.468 55.6046 136.468 55.428V51.9527L136.466 51.9626Z" fill="white"/>
<path d="M147.448 44.938C149.185 44.938 150.763 45.6875 151.907 46.8994C153.051 48.1112 153.763 49.7836 153.763 51.6278C153.763 53.4719 153.053 55.1411 151.907 56.3463C150.763 57.5531 149.185 58.2977 147.448 58.2977C145.711 58.2977 144.138 57.5531 142.998 56.3463C141.859 55.1411 141.154 53.4719 141.154 51.6278C141.154 49.7836 141.859 48.1112 142.998 46.8994C144.138 45.6875 145.713 44.938 147.448 44.938ZM143.106 51.1936C143.106 52.724 143.505 54.2859 144.286 55.468C145.069 56.6501 146.233 57.4491 147.762 57.4491C149.094 57.4491 150.106 56.7541 150.783 55.7255C151.461 54.6969 151.806 53.3349 151.806 52.0042C151.806 50.4737 151.407 48.9152 150.624 47.7397C149.843 46.5626 148.678 45.7684 147.149 45.7684C145.828 45.7684 144.816 46.4651 144.136 47.4921C143.454 48.5173 143.106 49.8744 143.106 51.1952V51.1936Z" fill="white"/>
<path d="M161.991 44.938C163.728 44.938 165.306 45.6875 166.45 46.8994C167.594 48.1112 168.306 49.7836 168.306 51.6278C168.306 53.4719 167.596 55.1411 166.45 56.3463C165.306 57.5531 163.728 58.2977 161.991 58.2977C160.254 58.2977 158.681 57.5531 157.541 56.3463C156.402 55.1411 155.697 53.4719 155.697 51.6278C155.697 49.7836 156.402 48.1112 157.541 46.8994C158.681 45.6875 160.256 44.938 161.991 44.938ZM157.649 51.1936C157.649 52.724 158.048 54.2859 158.831 55.468C159.612 56.6501 160.776 57.4491 162.306 57.4491C163.638 57.4491 164.651 56.7541 165.329 55.7255C166.008 54.6969 166.353 53.3349 166.353 52.0042C166.353 50.4737 165.953 48.9152 165.172 47.7397C164.39 46.5626 163.226 45.7684 161.695 45.7684C160.375 45.7684 159.362 46.4651 158.682 47.4921C158 48.5173 157.65 49.8744 157.65 51.1952L157.649 51.1936Z" fill="white"/>
<path d="M174.515 45.0367C174.525 45.0664 174.535 45.1159 174.543 45.1688C174.55 45.2233 174.555 45.2827 174.555 45.3322C174.555 45.3916 174.55 45.4593 174.536 45.5138C174.525 45.5683 174.505 45.6079 174.475 45.6079C174.396 45.6079 174.096 45.6575 173.808 45.7318C173.519 45.8093 173.244 45.9117 173.214 46.0207C173.145 46.2865 173.1 46.5688 173.074 46.8726C173.046 47.1764 173.037 47.5016 173.037 47.8566V55.2959C173.037 55.6509 173.047 55.9513 173.074 56.2303C173.1 56.5094 173.145 56.7669 173.214 57.0311C173.244 57.1202 173.371 57.1698 173.597 57.1978C173.821 57.2242 174.142 57.2292 174.556 57.2292H175.502C175.879 57.2292 176.356 57.2193 176.813 57.1731C177.27 57.1252 177.705 57.0426 177.99 56.894C178.177 56.7966 178.41 56.5589 178.634 56.2155C178.859 55.8721 179.077 55.4247 179.233 54.9013C179.243 54.8617 179.278 54.832 179.326 54.8122C179.375 54.794 179.44 54.7841 179.509 54.7841C179.608 54.7841 179.715 54.7973 179.808 54.8204C179.899 54.8435 179.973 54.8716 180.003 54.9013C179.816 55.4346 179.583 56.0355 179.382 56.6134C179.179 57.1896 179.007 57.7427 178.938 58.1769C177.861 58.1769 176.821 58.1488 175.728 58.1174C174.635 58.0861 173.491 58.058 172.208 58.058C171.745 58.058 171.149 58.0728 170.666 58.0861C170.186 58.1026 169.819 58.1174 169.819 58.1174C169.81 58.1075 169.795 58.0728 169.783 58.0184C169.77 57.9639 169.762 57.8896 169.762 57.8004C169.762 57.741 169.765 57.6783 169.777 57.6287C169.786 57.5792 169.801 57.5445 169.821 57.5445C169.94 57.5445 170.241 57.5099 170.531 57.4405C170.822 57.3712 171.104 57.2688 171.183 57.1301C171.253 57.0129 171.287 56.7306 171.304 56.3872C171.322 56.0438 171.322 55.6409 171.322 55.2744V47.8136C171.322 47.6353 171.317 47.3018 171.297 46.9518C171.277 46.6051 171.243 46.2436 171.185 46.0174C171.135 45.8985 170.865 45.7945 170.574 45.7218C170.285 45.6476 169.98 45.603 169.862 45.603C169.843 45.603 169.823 45.5683 169.808 45.5188C169.793 45.4709 169.783 45.4049 169.783 45.3471C169.783 45.2893 169.793 45.22 169.808 45.1605C169.823 45.1011 169.843 45.0516 169.862 45.0317C170.316 45.0499 170.681 45.0813 171.046 45.106C171.411 45.1308 171.778 45.1506 172.23 45.1506C172.682 45.1506 173.041 45.1308 173.405 45.106C173.77 45.0813 174.125 45.0516 174.52 45.0317L174.515 45.0367Z" fill="white"/>
<path d="M175.93 38.8773H112.956H49.9844V38.4563V38.0337H112.956H175.93V38.4563V38.8773Z" fill="white"/>
<path d="M59.6556 5.69575C59.7249 5.80472 59.7645 6.12996 59.7612 6.42879C59.7596 6.72762 59.715 6.99838 59.616 6.99838C59.4178 6.99838 58.8004 7.06277 58.2341 7.26584C57.6661 7.46726 57.1477 7.80736 57.1477 8.35879C57.1477 8.78474 57.468 9.75552 58.102 11.3916C58.736 13.0278 59.6836 15.3276 60.9367 18.405C61.47 19.7572 62.1981 21.3867 62.8007 22.6646C63.4033 23.9424 63.8771 24.8703 63.897 24.8207L66.768 18.0005L69.6391 11.182C69.8355 10.7081 70.0287 10.1897 70.1723 9.70929C70.316 9.22886 70.4101 8.78474 70.4101 8.4595C70.4101 7.94604 69.9709 7.58118 69.403 7.34344C68.835 7.10734 68.14 6.99838 67.6265 6.99838C67.5275 6.99838 67.4878 6.72762 67.4911 6.42879C67.4928 6.13161 67.5374 5.80472 67.6067 5.69575C68.3662 5.73538 69.0563 5.79977 69.7563 5.8526C70.458 5.90708 71.1679 5.95166 71.967 5.95166C72.875 5.95166 73.5222 5.90708 74.1529 5.8526C74.7852 5.79977 75.401 5.73538 76.2496 5.69575C76.2777 5.74528 76.309 5.83939 76.3305 5.9467C76.352 6.05567 76.3668 6.17949 76.3668 6.28681C76.3668 6.40568 76.3635 6.57903 76.3454 6.72101C76.3272 6.86465 76.2991 6.97692 76.2496 6.97692C76.0515 6.97692 75.5694 7.04131 75.0444 7.21301C74.5227 7.38636 73.9597 7.66703 73.6031 8.10124C73.3307 8.51728 73.0434 9.05715 72.7545 9.65481C72.4656 10.2541 72.1717 10.9129 71.8861 11.5749L67.7784 21.1952L63.6708 30.8171C63.4561 31.3256 63.1969 31.6707 62.9278 31.8886C62.6587 32.1082 62.383 32.199 62.1354 32.199C62.0082 32.199 61.8778 32.1577 61.7655 32.0917C61.6516 32.0256 61.5526 31.9315 61.4832 31.8226L57.4367 21.7169L53.3901 11.6112C53.1259 10.9376 52.8634 10.2904 52.6075 9.69774C52.35 9.10338 52.0974 8.56186 51.8514 8.09793C51.6467 7.68849 51.0688 7.41113 50.4943 7.23777C49.9181 7.06442 49.3452 6.99178 49.1471 6.99178C49.0975 6.99178 49.0579 6.90262 49.0315 6.78375C49.0034 6.66653 48.9902 6.51794 48.9902 6.39907C48.9902 6.29011 49.0001 6.13822 49.02 5.99954C49.0398 5.86085 49.0695 5.73703 49.1091 5.6875C49.9577 5.72712 50.7898 5.79151 51.6351 5.84434C52.4788 5.89883 53.3323 5.9434 54.2205 5.9434C55.1088 5.9434 56.0911 5.89883 57.0371 5.84434C57.9848 5.79151 58.8978 5.72712 59.649 5.6875L59.6556 5.69575Z" fill="white"/>
<path d="M84.4213 29.7755C84.4807 29.9934 85.0074 30.2146 85.5605 30.383C86.1135 30.5498 86.6897 30.6637 86.8482 30.6637C86.9473 30.6637 86.9919 30.9312 87.0018 31.2267C87.01 31.5222 86.9869 31.8491 86.9473 31.9663C86.1482 31.9283 85.3244 31.864 84.5104 31.8078C83.6965 31.755 82.8925 31.7104 82.1314 31.7104C81.3125 31.7104 80.5085 31.755 79.7044 31.8078C78.8988 31.864 78.0964 31.9267 77.2775 31.9663C77.1784 31.8673 77.1289 31.542 77.1289 31.2415C77.1289 30.9411 77.1784 30.6637 77.2775 30.6637C77.5136 30.6637 78.1063 30.5514 78.6528 30.383C79.2009 30.2146 79.7044 29.9934 79.7622 29.7755C79.8811 29.2703 79.9504 28.6544 79.9901 28.1129C80.0297 27.5698 80.0396 27.1009 80.0396 26.8945V20.4606C80.0396 20.2823 80.0247 19.7986 79.9372 19.2835C79.8514 18.7684 79.6929 18.2202 79.4073 17.9132C79.0325 17.469 78.4745 17.2924 78.0105 17.1999C77.5466 17.1091 77.1768 17.1042 77.1768 17.0051C77.1768 16.9638 77.1801 16.6749 77.2115 16.3909C77.2412 16.107 77.2957 15.8313 77.3947 15.8197C78.0947 15.7504 79.3132 15.5589 80.5398 15.3261C81.7665 15.0949 82.9998 14.8225 83.7312 14.5947C83.7493 14.5947 83.8187 14.5765 83.888 14.5567C83.9574 14.5369 84.0267 14.5154 84.0465 14.5154C84.1852 14.5154 84.2876 14.6541 84.3553 14.8176C84.4229 14.9794 84.451 15.1676 84.4411 15.2666C84.3619 15.8973 84.2843 16.4108 84.2248 16.9341C84.1654 17.4575 84.1258 17.9891 84.1258 18.661V26.2209C84.1258 26.8829 84.1291 27.5054 84.1687 28.0948C84.2083 28.6842 84.2826 29.2422 84.4213 29.7755ZM81.7566 5.51758C82.4385 5.51758 83.0493 5.78999 83.4901 6.22915C83.931 6.67162 84.2034 7.28248 84.2034 7.96433C84.2034 8.64619 83.931 9.25705 83.4901 9.69787C83.0493 10.1403 82.4368 10.4111 81.7566 10.4111C81.0764 10.4111 80.4639 10.1403 80.0231 9.69787C79.5823 9.25705 79.3099 8.64619 79.3099 7.96433C79.3099 7.28248 79.5823 6.67162 80.0231 6.22915C80.4639 5.78834 81.0764 5.51758 81.7566 5.51758Z" fill="white"/>
<path d="M104.072 15.6823C104.072 16.8182 103.914 17.6503 103.598 18.2017C103.283 18.7531 102.809 19.019 102.177 19.019C101.407 19.019 101.028 18.6227 100.62 18.2298C100.214 17.8336 99.7779 17.4406 98.9012 17.4406C98.0246 17.4406 97.3724 18.0234 96.9399 18.7944C96.509 19.5671 96.296 20.5296 96.296 21.2891V26.2437C96.296 26.8958 96.3009 27.5116 96.3406 28.0994C96.3802 28.6871 96.4545 29.2435 96.5932 29.7768C96.6526 29.9947 97.1661 30.2159 97.7026 30.3843C98.2409 30.5511 98.8038 30.665 98.9607 30.665C99.0597 30.665 99.1043 30.9324 99.1142 31.228C99.1225 31.5235 99.0994 31.8504 99.0597 31.9676C98.2607 31.9296 97.4517 31.8653 96.6509 31.8091C95.8519 31.7563 95.0627 31.7117 94.3033 31.7117C93.4844 31.7117 92.6803 31.7563 91.8763 31.8091C91.0723 31.8653 90.2666 31.928 89.4494 31.9676C89.3503 31.8686 89.3008 31.5433 89.3008 31.2428C89.3008 30.9424 89.3503 30.665 89.4494 30.665C89.6855 30.665 90.2782 30.5527 90.8246 30.3843C91.3728 30.2159 91.8763 29.9947 91.9357 29.7768C92.0546 29.2716 92.124 28.6557 92.1636 28.1142C92.2032 27.571 92.2131 27.1022 92.2131 26.8958V20.4619C92.2131 20.2836 92.1983 19.7999 92.1124 19.2848C92.0265 18.7697 91.8681 18.2215 91.5808 17.9145C91.206 17.4703 90.648 17.2937 90.1841 17.2012C89.7201 17.1104 89.3503 17.1055 89.3503 17.0064C89.3503 16.9651 89.3553 16.6762 89.385 16.3922C89.4147 16.1083 89.4692 15.8326 89.5682 15.821C90.2683 15.7517 91.3199 15.5701 92.4624 15.3439C93.6049 15.116 94.8382 14.8453 95.9031 14.5976C95.913 14.5976 95.9823 14.5795 96.0549 14.5597C96.1259 14.5398 96.2002 14.5184 96.22 14.5184C96.3587 14.5184 96.4611 14.6571 96.5271 14.8205C96.5948 14.9823 96.6229 15.1705 96.6146 15.2696C96.5849 15.4759 96.5403 15.8557 96.4974 16.2271C96.4561 16.597 96.4165 16.9569 96.3967 17.1253C96.8012 16.5425 97.4368 15.8573 98.2095 15.3175C98.9821 14.7776 99.8902 14.3813 100.838 14.3813C101.597 14.3813 102.248 14.52 102.789 14.7528C103.329 14.984 103.76 15.3092 104.075 15.684L104.072 15.6823Z" fill="white"/>
<path d="M106.535 17.1436C106.446 17.1436 106.381 16.9653 106.34 16.749C106.297 16.5311 106.277 16.2752 106.277 16.1167C106.277 16.0375 106.277 15.9698 106.284 15.9103C106.292 15.8509 106.305 15.8014 106.335 15.7617C106.65 15.6132 107.151 15.3275 107.697 14.9577C108.245 14.5862 108.841 14.1339 109.356 13.6501C109.929 13.107 110.54 12.4367 111.027 11.8836C111.514 11.3322 111.874 10.898 111.944 10.8286C112.16 10.8286 112.437 10.8633 112.658 10.9194C112.88 10.9756 113.048 11.0548 113.048 11.144V15.032C113.916 15.032 114.976 15.037 115.891 15.0419C116.802 15.0469 117.568 15.0518 117.846 15.0518C117.945 15.0518 118.022 15.0865 118.077 15.1509C118.131 15.2153 118.159 15.3094 118.159 15.4283C118.159 15.6049 118.13 15.8971 118.065 16.2125C118.001 16.5295 117.904 16.8696 117.765 17.1469H113.046V26.6599C113.046 27.7066 113.279 28.5156 113.71 29.0637C114.143 29.6118 114.773 29.8975 115.572 29.8975C116.135 29.8975 116.667 29.7439 117.083 29.5838C117.497 29.4236 117.793 29.2569 117.882 29.2255C117.991 29.1974 118.128 29.3906 118.237 29.6036C118.346 29.8182 118.425 30.0543 118.415 30.1137C118.267 30.4109 117.641 30.9079 116.802 31.3322C115.964 31.7565 114.912 32.1065 113.915 32.1065C112.691 32.1065 111.452 31.7367 110.519 30.8798C109.586 30.0213 108.96 28.6741 108.96 26.7193V17.1486H106.533L106.535 17.1436Z" fill="white"/>
<path d="M138.058 26.4584C138.058 26.8134 138.066 27.312 138.114 27.8172C138.16 28.3191 138.244 28.8276 138.393 29.2023C138.55 29.5094 139.048 29.6382 139.522 29.6943C139.996 29.7505 140.445 29.7356 140.505 29.7554C140.544 29.7752 140.579 29.8396 140.604 29.9139C140.628 29.9866 140.643 30.0724 140.643 30.1318C140.643 30.1698 140.623 30.3927 140.579 30.604C140.534 30.817 140.465 31.0184 140.366 31.0184C139.329 31.0779 137.805 31.3437 136.536 31.5963C135.266 31.8472 134.249 32.0833 134.229 32.0833C134.13 32.0833 134.061 31.9843 134.016 31.8505C133.973 31.7184 133.952 31.55 133.952 31.413V29.6762C133.952 29.5771 133.932 29.5243 133.907 29.4979C133.882 29.4731 133.853 29.4781 133.835 29.4979C133.331 30.0311 132.542 30.6684 131.581 31.172C130.62 31.6755 129.491 32.0437 128.307 32.0437C126.451 32.0437 125.193 31.058 124.399 29.6646C123.605 28.2728 123.273 26.4766 123.273 24.8586V20.4587C123.273 20.2804 123.258 19.7967 123.171 19.2816C123.085 18.7665 122.927 18.2184 122.641 17.9113C122.266 17.4672 121.71 17.2905 121.246 17.1981C120.78 17.1072 120.412 17.1023 120.412 17.0032C120.412 16.962 120.417 16.673 120.447 16.3891C120.476 16.1051 120.529 15.8294 120.63 15.8178C121.33 15.7485 122.548 15.557 123.775 15.3242C125.002 15.0931 126.235 14.8206 126.965 14.5928C126.985 14.5928 127.054 14.5746 127.123 14.5548C127.193 14.535 127.262 14.5136 127.28 14.5136C127.419 14.5136 127.521 14.6522 127.589 14.8157C127.657 14.9775 127.685 15.1657 127.675 15.2648C127.597 15.8954 127.511 16.4188 127.449 16.9521C127.384 17.4853 127.34 18.0285 127.34 18.6988V23.4751C127.34 25.5174 127.605 26.9537 128.196 27.8783C128.786 28.8045 129.699 29.2172 130.992 29.2172C131.919 29.2172 132.669 28.8573 133.187 28.3967C133.704 27.9344 133.991 27.3731 133.991 26.9686V20.4554C133.991 20.2771 133.977 19.7934 133.891 19.2783C133.805 18.7632 133.646 18.2151 133.361 17.908C132.986 17.4639 132.428 17.2872 131.964 17.1948C131.498 17.1039 131.13 17.099 131.13 16.9999C131.13 16.9587 131.135 16.6697 131.165 16.3858C131.195 16.1018 131.248 15.8261 131.348 15.8145C132.048 15.7452 133.267 15.5537 134.493 15.3209C135.72 15.0897 136.953 14.8173 137.683 14.5895C137.703 14.5895 137.772 14.5713 137.842 14.5515C137.911 14.5317 137.98 14.5103 138 14.5103C138.139 14.5103 138.241 14.6489 138.307 14.8124C138.375 14.9742 138.403 15.1624 138.395 15.2615C138.315 15.8921 138.231 16.4056 138.167 16.9273C138.102 17.4474 138.058 17.9757 138.058 18.6377V26.4535V26.4584Z" fill="white"/>
<path d="M156.036 20.0842V27.8405C156.036 28.3738 156.163 28.7832 156.388 29.0589C156.612 29.3363 156.934 29.4783 157.319 29.4783C157.674 29.4783 157.981 29.3693 158.215 29.2488C158.448 29.1266 158.612 28.9945 158.681 28.945C158.75 28.9648 158.805 29.0391 158.841 29.1266C158.877 29.2158 158.897 29.3198 158.897 29.399C158.897 29.6467 158.867 29.8828 158.823 30.0825C158.778 30.2823 158.719 30.4441 158.661 30.5448C158.384 30.7908 157.857 31.1705 157.23 31.4892C156.604 31.8062 155.878 32.0654 155.207 32.0654C154.537 32.0654 153.915 31.7731 153.391 31.3654C152.869 30.9559 152.465 30.4259 152.287 29.9521C152.209 29.9719 151.676 30.5101 150.812 31.0434C149.949 31.5767 148.755 32.1033 147.354 32.1033C146.051 32.1033 144.936 31.7286 144.146 31.0352C143.357 30.3417 142.893 29.3313 142.893 28.0568C142.893 26.0145 144.309 24.7515 146.107 23.8649C147.905 22.98 150.088 22.4715 151.616 21.9382C151.735 21.8986 151.824 21.8194 151.884 21.7154C151.943 21.6114 151.973 21.4826 151.973 21.3455V19.1563C151.973 18.2186 151.737 17.4822 151.326 16.982C150.916 16.4801 150.335 16.2143 149.643 16.2143C148.874 16.2143 148.242 16.4553 147.804 16.9242C147.365 17.3931 147.119 18.0882 147.119 18.9962C147.119 19.5691 146.857 19.9521 146.482 20.1965C146.107 20.4375 145.618 20.5366 145.164 20.5366C144.78 20.5366 144.37 20.4573 144.01 20.2972C143.65 20.1387 143.34 19.8943 143.152 19.5691C143.152 18.316 144.213 17.0134 145.742 16.0228C147.271 15.0338 149.27 14.3569 151.144 14.3569C152.704 14.3569 153.928 14.6937 154.761 15.5754C155.595 16.4586 156.039 17.89 156.039 20.0809L156.036 20.0842ZM151.97 27.7216V23.6965C151.072 24.0333 149.858 24.3322 148.869 24.8258C147.88 25.3195 147.116 26.0063 147.116 27.1108C147.116 27.9891 147.382 28.6 147.796 28.9929C148.21 29.3858 148.772 29.5575 149.364 29.5575C150.096 29.5575 150.746 29.3247 151.215 28.9797C151.684 28.6346 151.97 28.1757 151.97 27.7216Z" fill="white"/>
<path d="M168.188 29.6959C168.247 29.9122 168.711 30.15 169.2 30.3316C169.689 30.5132 170.202 30.642 170.361 30.642C170.46 30.642 170.499 30.9094 170.504 31.2049C170.509 31.5021 170.479 31.8257 170.44 31.9446C169.651 31.9066 168.88 31.8472 168.12 31.7976C167.361 31.7481 166.611 31.7085 165.86 31.7085C165.031 31.7085 164.282 31.7465 163.532 31.7976C162.783 31.8472 162.031 31.905 161.203 31.9446C161.104 31.8472 161.054 31.5203 161.054 31.2198C161.054 30.9193 161.104 30.642 161.203 30.642C161.439 30.642 161.982 30.5132 162.48 30.3316C162.979 30.1483 163.433 29.9122 163.492 29.6959C163.611 29.1825 163.689 28.5518 163.738 27.9987C163.788 27.4457 163.808 26.9718 163.808 26.7737V10.353C163.808 10.0179 163.788 9.54406 163.748 9.05537C163.709 8.56668 163.649 8.06313 163.57 7.66854C163.492 7.39283 163.166 7.23433 162.776 7.14518C162.386 7.05768 161.932 7.03787 161.597 7.03787H161.203C161.123 7.03787 161.064 6.98834 161.024 6.90414C160.985 6.82159 160.965 6.70272 160.965 6.56238C160.965 6.52441 160.975 6.36592 161.009 6.21733C161.044 6.06874 161.104 5.93171 161.203 5.93171C163.374 5.73524 164.982 5.35882 166.063 5.03357C167.144 4.70833 167.696 4.43262 167.755 4.43262H167.835C167.952 4.43262 168.081 4.54158 168.185 4.67366C168.289 4.80739 168.366 4.96423 168.386 5.06329C168.386 5.06329 168.267 5.43807 168.15 6.0902C168.031 6.74234 167.912 7.66854 167.912 8.7747V26.143C167.912 26.8133 167.912 27.4258 167.947 28.007C167.982 28.5898 168.051 29.1429 168.188 29.6959Z" fill="white"/>
<path d="M17.328 3.66057C13.6959 2.72281 10.0307 3.61434 7.28347 5.75236V5.75566C7.06719 5.91911 7.10516 6.28068 7.29833 6.58115C7.48819 6.87503 7.80353 7.09791 8.04127 6.96418C10.4616 5.02593 13.7322 4.21365 16.9681 5.04574C20.1562 5.86793 22.5881 8.10996 23.79 10.915L23.7982 10.9183C23.9699 11.1048 24.3381 11.019 24.627 10.8324C24.8928 10.6607 25.1009 10.39 25.0365 10.1572L25.0266 10.1423C23.6249 7.03683 20.8859 4.56861 17.328 3.65726V3.66057Z" fill="white"/>
<path d="M27.4703 7.98595C27.4521 7.96118 27.4802 7.97604 27.4554 7.95788C25.5997 4.3736 22.306 1.55042 18.0894 0.470674C13.6185 -0.685013 9.0899 0.355106 5.65255 2.92073C5.41151 3.07592 5.44783 3.4507 5.64595 3.75613C5.84737 4.06156 6.17261 4.2927 6.41035 4.13586C9.53071 1.77495 13.6565 0.802522 17.7361 1.84759C21.6275 2.85304 24.6636 5.49461 26.3113 8.83125C26.3129 8.83785 26.3129 8.84941 26.3146 8.84941C26.3146 8.84941 26.3168 8.85051 26.3212 8.85271C26.3311 8.87252 26.341 8.88573 26.3476 8.90389L26.3377 8.89729C26.5193 9.06734 26.9007 8.97984 27.1863 8.79328C27.4967 8.5869 27.6288 8.22699 27.4686 7.98595H27.4703Z" fill="white"/>
<path d="M21.8643 11.7087L21.8808 11.6971C20.9579 9.40389 19.0065 7.56965 16.4359 6.90431C13.796 6.22575 11.1263 6.95879 9.19798 8.60977H9.20788C8.97675 8.76496 9.00646 9.13148 9.20293 9.43856C9.39775 9.7473 9.71969 9.98504 9.96073 9.8315C9.96734 9.8282 9.96569 9.82655 9.96569 9.82159C11.5556 8.36873 13.8323 7.7298 16.076 8.30764C18.2784 8.87888 19.9244 10.4787 20.6409 12.4698C20.6409 12.4698 20.6657 12.5606 20.6971 12.6068C20.8572 12.8396 21.2501 12.7537 21.5556 12.5523C21.8561 12.3476 22.0459 11.9216 21.8891 11.6922C21.8874 11.6872 21.8676 11.7087 21.8676 11.7087H21.8643Z" fill="white"/>
<path fill-rule="evenodd" clip-rule="evenodd" d="M35.6326 20.5002C27.972 13.5627 19.831 16.5758 17.0491 18.4645C14.2672 20.3549 11.7742 22.5276 10.2454 23.424C7.69794 24.9248 4.94245 25.8196 1.95087 29.9553C-1.06052 34.0844 -1.59709 43.4389 7.82011 51.5271C10.0143 53.4174 12.6542 55.1741 15.02 56.6666C17.4206 58.1822 19.59 60.061 22.1886 60.5002C24.4868 60.8931 27.1498 59.9983 29.8475 59.011C34.4802 57.3055 38.6357 53.9986 40.4039 49.5773C41.3268 47.2758 40.9041 44.4295 41.1848 41.9068C42.3157 31.6938 40.6879 25.0833 35.6309 20.5002H35.6326ZM39.5569 41.6426C39.301 43.9639 39.6874 46.5824 38.8454 48.7039C37.2175 52.762 33.3955 55.8048 29.1376 57.3732C26.6496 58.2845 24.2045 59.0985 22.0945 58.7419C19.7055 58.3357 17.7095 56.6104 15.5021 55.2203C13.3261 53.8451 10.9008 52.2304 8.88499 50.4985C0.220639 43.0526 0.712632 34.4493 3.47968 30.6521C6.23352 26.8531 8.76282 26.026 11.1072 24.6491C12.5139 23.8219 14.8071 21.8275 17.3661 20.0891C19.9185 18.3473 27.4074 15.5819 34.4505 21.9629C39.1029 26.1762 40.5987 32.2552 39.5553 41.6443L39.5569 41.6426Z" fill="white"/>
<path fill-rule="evenodd" clip-rule="evenodd" d="M35.2364 28.9267C35.134 25.6247 33.2734 23.2506 30.6566 21.9248C26.6942 19.9106 23.526 20.6585 22.6212 22.0223C21.7198 23.3843 25.4576 23.9357 28.3815 25.6726C31.5696 27.5646 35.3404 32.2286 35.2347 28.925L35.2364 28.9267Z" fill="white"/>
<path fill-rule="evenodd" clip-rule="evenodd" d="M17.3384 24.3754C14.3122 19.3184 16.4651 16.771 16.8563 15.6384C17.1585 14.77 15.5455 11.9848 15.3622 11.4944C14.9082 10.2842 14.1702 14.2879 13.8697 17.5882C13.5643 20.8786 14.8587 24.382 14.1718 26.2624C13.9622 26.832 13.1433 27.2316 12.6117 27.5552C12.0751 27.8903 10.652 28.0637 10.1715 28.3575C8.93823 29.1533 8.75993 29.8088 9.03234 29.9408C10.3119 30.5269 16.1464 28.0587 19.0571 25.5756C20.3746 24.4447 20.8501 22.2357 20.4439 22.2704C19.5623 22.3628 18.4396 23.9593 17.3384 24.377" fill="white"/>
<path d="M8.98774 30.0679C8.91014 30.0332 8.8474 29.9639 8.81604 29.8846C8.69717 29.4719 9.07359 28.9221 10.1137 28.2353C10.1946 28.1775 10.2904 28.1296 10.4026 28.0916C10.9359 27.8869 11.7944 27.7367 12.3062 27.5419C12.4102 27.5039 12.4977 27.4643 12.5621 27.4213C13.1003 27.101 13.8928 26.6916 14.0546 26.1963C14.7166 24.4248 13.447 20.8934 13.7492 17.56C13.8763 16.1534 14.0794 14.6147 14.3138 13.4144C14.5763 12.1844 14.7249 11.3556 15.1112 11.136C15.3358 11.0717 15.4629 11.2582 15.5339 11.4365C15.6428 11.7172 16.3231 12.9406 16.7374 14.022C16.9851 14.6774 17.1601 15.2668 17.0247 15.6845C16.6698 16.7048 15.0914 18.6051 16.5014 22.2983C16.7242 22.8778 17.0297 23.5118 17.4259 24.1854C18.324 23.7826 19.2783 22.546 20.15 22.191C20.2524 22.1498 20.3514 22.1283 20.4588 22.1233C20.5875 22.1002 20.7015 22.2075 20.7229 22.295C20.9045 22.8597 20.3746 24.6229 19.1776 25.6796C17.4936 27.1291 14.852 28.5407 12.6562 29.3893C11.0118 30.0101 9.65473 30.3502 8.98774 30.0679ZM10.5116 28.3822C10.4125 28.4152 10.3366 28.4549 10.2805 28.4895C9.25355 29.1285 9.05873 29.698 9.10166 29.774C9.11486 29.7872 9.10826 29.7806 9.11651 29.7971C9.54742 30.0167 10.9425 29.7426 12.5489 29.1086C14.715 28.2732 17.3318 26.8666 18.9778 25.455C20.0658 24.5519 20.5661 22.7507 20.4456 22.4255C20.3845 22.437 20.3201 22.4568 20.2573 22.4733C19.4995 22.7623 18.4891 24.0897 17.4408 24.509L17.3186 24.5998L17.2327 24.4512C16.7952 23.7231 16.4634 23.038 16.2174 22.4106C14.7431 18.6166 16.4254 16.4918 16.7457 15.5821C16.8365 15.3527 16.6978 14.76 16.4551 14.1326C16.0457 13.0693 15.3754 11.879 15.245 11.5504C15.2301 11.5059 15.2152 11.4712 15.1971 11.4514C15.1542 11.5092 15.0419 11.7023 14.9643 11.9896C14.8471 12.3627 14.7282 12.8795 14.6093 13.4689C14.3864 14.6658 14.1768 16.2013 14.048 17.5996C13.7376 20.8554 15.0402 24.329 14.3435 26.302C14.0893 26.9871 13.244 27.3652 12.7091 27.6855C12.6282 27.735 12.534 27.7879 12.4152 27.8357C11.8555 28.0405 11.0052 28.1973 10.5182 28.3855H10.5099L10.5116 28.3822ZM17.3566 24.3753L17.4936 24.2894L17.3566 24.3753Z" fill="white"/>
</g>
<defs>
<clipPath id="clip0_1289_47620">
<rect width="180" height="60.596" fill="white"/>
</clipPath>
</defs>
</svg>
