<svg width="1088" height="677" viewBox="0 0 1088 677" fill="none" xmlns="http://www.w3.org/2000/svg"><path d="M739.932 -481.802C739.932 -481.802 533.496 -320.428 674.451 -41.3391C815.406 237.75 955.669 -10.4126 989.489 -52.9717C1023.31 -95.5307 1052.32 -133.695 1083.92 -150.802M690.674 -449.902C690.674 -449.902 511.326 -268.837 670.323 1.83158C829.325 272.503 965.198 34.3802 997.139 -29.3455C1029.08 -93.0712 1072.76 -144.221 1127.79 -163.895M641.415 -418.002C641.415 -418.002 489.155 -217.246 666.202 45.001C843.247 307.252 974.734 79.1718 1004.79 -5.72368C1034.85 -90.6192 1093.21 -154.752 1171.67 -176.992M592.157 -386.103C592.157 -386.103 466.988 -165.659 662.082 88.1703C857.176 342 984.266 123.96 1012.45 17.898C1040.62 -88.1642 1113.66 -165.282 1215.54 -190.092M542.898 -354.203C542.898 -354.203 444.813 -114.071 657.958 131.344C871.099 376.756 993.795 168.76 1020.1 41.5274C1046.4 -85.7058 1134.1 -175.805 1259.42 -203.181M493.64 -322.304C493.64 -322.304 422.642 -62.4801 653.833 174.51C885.024 411.5 1003.33 213.549 1027.75 65.1456C1052.17 -83.2573 1154.55 -186.339 1303.29 -216.282M444.377 -290.407C444.377 -290.407 400.468 -10.8917 649.705 217.681C898.943 446.253 1012.86 258.341 1035.4 88.7719C1057.93 -80.8007 1174.99 -196.865 1347.16 -229.377M395.115 -258.503C395.115 -258.503 378.297 40.6996 645.582 260.855C912.866 481.009 1022.39 303.137 1043.05 112.398C1063.71 -78.3455 1195.43 -207.387 1391.03 -242.47M345.857 -226.604C345.857 -226.604 356.127 92.2908 641.461 304.024C926.796 515.757 1031.92 347.933 1050.7 136.016C1069.49 -75.8946 1215.88 -217.921 1434.91 -255.571M296.598 -194.705C296.598 -194.705 333.956 143.882 637.337 347.197C940.718 550.513 1041.45 392.729 1058.36 159.645C1075.26 -73.4396 1236.33 -228.444 1478.78 -268.66M247.34 -162.805C247.34 -162.805 311.786 195.473 633.213 390.364C954.639 585.254 1050.99 437.517 1066.01 183.263C1081.03 -70.9878 1256.77 -238.978 1522.65 -281.764M198.081 -130.906C198.081 -130.906 289.616 247.064 629.092 433.533C968.566 620.006 1060.52 482.306 1073.66 206.885C1086.8 -68.5359 1277.22 -249.509 1566.53 -294.861M148.823 -99.0061C148.823 -99.0061 267.449 298.651 624.969 476.707C982.489 654.762 1070.05 527.106 1081.31 230.514C1092.58 -66.0775 1297.67 -260.031 1610.4 -307.95M99.5644 -67.1062C99.5644 -67.1062 245.278 350.243 620.848 519.876C996.418 689.51 1079.58 571.898 1088.97 254.136C1098.35 -63.6252 1318.12 -270.562 1654.28 -321.05M50.3015 -35.2102C50.3015 -35.2102 223.103 401.83 616.716 563.043C1010.33 724.26 1089.11 616.687 1096.61 277.759C1104.11 -61.1694 1338.55 -281.087 1698.14 -334.146M1.04298 -3.31049C1.04298 -3.31049 200.933 453.422 612.595 606.213C1024.26 759.004 1098.64 661.479 1104.26 301.381C1109.89 -58.7183 1359.01 -291.614 1742.02 -347.242" stroke="white" stroke-width="2" stroke-miterlimit="10"/></svg>