<svg width="180" height="61" viewBox="0 0 180 61" fill="none" xmlns="http://www.w3.org/2000/svg">
<g clip-path="url(#clip0_1289_47577)">
<path d="M59.6223 51.9621C59.6223 51.9439 59.6124 51.9241 59.6025 51.9076C59.5926 51.8911 59.5827 51.8828 59.5827 51.8828C59.1171 51.8746 58.64 51.863 58.1513 51.8548C57.6626 51.8482 57.164 51.8432 56.6621 51.8432C55.1415 51.8432 54.3821 51.8482 54.0023 51.863C53.6226 51.8779 53.6226 51.901 53.6226 51.9406V55.3548C53.6226 55.7098 53.6325 56.035 53.6589 56.3388C53.687 56.641 53.7316 56.9233 53.8009 57.1891C53.8306 57.298 54.1064 57.3955 54.3953 57.4664C54.6842 57.5374 54.983 57.5837 55.0623 57.5837C55.1118 57.5837 55.1316 57.6959 55.1349 57.8247C55.1366 57.9535 55.1234 58.0955 55.1019 58.1549C54.7073 58.1351 54.3524 58.112 53.9875 58.0905C53.6226 58.0707 53.2462 58.0558 52.812 58.0558C52.3778 58.0558 51.9931 58.0707 51.6282 58.0905C51.2634 58.1103 50.8985 58.1351 50.4445 58.1549C50.4247 58.1351 50.4049 58.0905 50.39 58.036C50.3751 57.9816 50.3652 57.9188 50.3652 57.8577C50.3652 57.7966 50.3735 57.7306 50.39 57.6761C50.4049 57.6216 50.4247 57.582 50.4445 57.582C50.5634 57.582 50.8688 57.5424 51.1561 57.4731C51.445 57.4037 51.7157 57.3047 51.7669 57.1874C51.8264 56.9596 51.8594 56.6096 51.8808 56.2711C51.9006 55.9343 51.9056 55.6074 51.9056 55.4308V47.7735C51.9056 47.5952 51.9006 47.27 51.8808 46.9332C51.861 46.5947 51.8264 46.2447 51.7669 46.0185C51.7174 45.8997 51.4466 45.7957 51.1561 45.723C50.8671 45.6487 50.5617 45.6041 50.4445 45.6041C50.4247 45.6041 50.4049 45.5695 50.39 45.5199C50.3751 45.4721 50.3652 45.406 50.3652 45.3482C50.3652 45.2905 50.3735 45.2211 50.39 45.1617C50.4049 45.1022 50.4247 45.0527 50.4445 45.0329C50.8985 45.0511 51.2634 45.0824 51.6282 45.1072C51.9931 45.132 52.3596 45.1518 52.812 45.1518C53.2644 45.1518 53.6226 45.132 53.9875 45.1072C54.3524 45.0824 54.7073 45.0527 55.1019 45.0329C55.1217 45.0923 55.1366 45.2343 55.1349 45.3631C55.1333 45.4919 55.1135 45.6058 55.0623 45.6058C54.983 45.6058 54.6826 45.6553 54.3953 45.7296C54.1064 45.8072 53.8306 45.9096 53.8009 46.0185C53.7316 46.2843 53.687 46.5667 53.6589 46.8704C53.6325 47.1742 53.6226 47.4995 53.6226 47.8544V50.7948C53.6226 50.8047 53.6325 50.8196 53.6424 50.8312C53.6523 50.8427 53.6622 50.8526 53.6622 50.8526C54.146 50.8625 54.6198 50.8708 55.1085 50.879C55.5989 50.8873 56.1074 50.8906 56.6604 50.8906C57.1244 50.8906 57.6312 50.8873 58.1348 50.879C58.6383 50.8724 59.1369 50.8625 59.581 50.8526C59.581 50.8526 59.5909 50.8427 59.6008 50.8278C59.6107 50.813 59.6206 50.7932 59.6206 50.7734V47.7735C59.6206 47.5952 59.6157 47.27 59.5959 46.9332C59.5761 46.5947 59.5414 46.2447 59.482 46.0185C59.4341 45.8997 59.1617 45.7957 58.8727 45.723C58.5838 45.6487 58.2784 45.6041 58.1595 45.6041C58.11 45.6041 58.0852 45.4853 58.0852 45.3548C58.0852 45.2244 58.11 45.0808 58.1595 45.0312C58.6135 45.0494 58.9834 45.0808 59.3532 45.1055C59.723 45.1303 60.0928 45.1501 60.5468 45.1501C61.0009 45.1501 61.3459 45.1303 61.7009 45.1055C62.0558 45.0808 62.4009 45.0511 62.7955 45.0312C62.8054 45.061 62.8153 45.1105 62.8235 45.1633C62.8301 45.2178 62.8351 45.2772 62.8351 45.3268C62.8351 45.3862 62.8302 45.4539 62.8169 45.5084C62.8054 45.5629 62.7856 45.6025 62.7559 45.6025C62.6766 45.6025 62.3761 45.652 62.0872 45.7263C61.7983 45.8039 61.5226 45.9063 61.4929 46.0152C61.4235 46.281 61.3839 46.5634 61.3624 46.8671C61.3393 47.1709 61.3344 47.4962 61.3344 47.8511V55.3499C61.3344 55.7049 61.3393 56.0301 61.3624 56.3339C61.3839 56.636 61.4235 56.9183 61.4929 57.1841C61.5226 57.2931 61.7983 57.3905 62.0872 57.4615C62.3761 57.5325 62.6766 57.5787 62.7559 57.5787C62.7856 57.5787 62.8054 57.6233 62.8169 57.6827C62.8285 57.7422 62.8351 57.8148 62.8351 57.8742C62.8351 57.9254 62.8301 57.9783 62.8235 58.0294C62.8169 58.0773 62.8054 58.1219 62.7955 58.1516C62.4009 58.1318 62.0558 58.1087 61.7009 58.0872C61.3459 58.0674 60.9811 58.0525 60.5468 58.0525C60.1126 58.0525 59.723 58.0674 59.3532 58.0872C58.9834 58.107 58.6135 58.1318 58.1595 58.1516C58.11 58.1021 58.0852 57.9601 58.0852 57.828C58.0852 57.6959 58.11 57.5787 58.1595 57.5787C58.2784 57.5787 58.5838 57.5391 58.8727 57.4698C59.1617 57.4004 59.4324 57.3013 59.482 57.1841C59.5414 56.9563 59.5761 56.6063 59.5959 56.2678C59.6157 55.931 59.6206 55.6041 59.6206 55.4275V51.9522L59.6223 51.9621Z" fill="black"/>
<path d="M66.0423 46.0223C65.9928 45.9034 65.722 45.7994 65.4314 45.7267C65.1425 45.6524 64.8371 45.6079 64.7199 45.6079C64.7001 45.6079 64.6802 45.5732 64.6654 45.5237C64.6505 45.4758 64.6406 45.4097 64.6406 45.352C64.6406 45.2942 64.6505 45.2248 64.6654 45.1654C64.6802 45.106 64.7001 45.0564 64.7199 45.0366C65.1739 45.0548 65.5388 45.0795 65.9036 45.101C66.2685 45.1208 66.6334 45.1357 67.0874 45.1357C67.5414 45.1357 67.898 45.1208 68.2612 45.101C68.6261 45.0812 68.9811 45.0564 69.3773 45.0366C69.3872 45.0663 69.3971 45.1159 69.4054 45.1687C69.412 45.2232 69.4169 45.2826 69.4169 45.3321C69.4169 45.3916 69.412 45.4593 69.3988 45.5138C69.3872 45.5682 69.3657 45.6079 69.3377 45.6079C69.2601 45.6079 68.9579 45.6574 68.669 45.7317C68.3818 45.8093 68.1044 45.9116 68.0747 46.0206C68.0053 46.2864 67.9608 46.5687 67.9343 46.8725C67.9063 47.1763 67.898 47.5015 67.898 47.8565V55.3553C67.898 55.7102 67.9079 56.0355 67.9343 56.3392C67.9624 56.6414 68.0053 56.9237 68.0747 57.1895C68.1044 57.2985 68.3801 57.3959 68.669 57.4669C68.9579 57.5379 69.2601 57.5841 69.3377 57.5841C69.3674 57.5841 69.3872 57.6287 69.3988 57.6881C69.4103 57.7475 69.4169 57.8202 69.4169 57.8796C69.4169 57.9308 69.412 57.9836 69.4054 58.0348C69.3988 58.0827 69.3872 58.1273 69.3773 58.157C68.9827 58.1372 68.6277 58.114 68.2612 58.0926C67.8964 58.0728 67.5216 58.0579 67.0874 58.0579C66.6532 58.0579 66.2685 58.0728 65.9036 58.0926C65.5388 58.1124 65.1722 58.1372 64.7199 58.157C64.7001 58.1372 64.6802 58.0926 64.6654 58.0381C64.6505 57.9836 64.6406 57.9209 64.6406 57.8598C64.6406 57.7987 64.6505 57.7327 64.6654 57.6782C64.6802 57.6237 64.7001 57.5841 64.7199 57.5841C64.8371 57.5841 65.1442 57.5445 65.4314 57.4751C65.7204 57.4058 65.9911 57.3067 66.0423 57.1895C66.1017 56.9617 66.1348 56.6117 66.1546 56.2732C66.1744 55.9364 66.1793 55.6095 66.1793 55.4329V47.7756C66.1793 47.5973 66.1744 47.2721 66.1546 46.9353C66.1348 46.5968 66.1001 46.2468 66.0423 46.0206V46.0223Z" fill="black"/>
<path d="M77.3656 44.9372C78.0161 44.9372 78.7871 45.0511 79.5928 45.2179C80.4001 45.3846 81.2438 45.6075 82.0429 45.8238C82.0429 45.8238 82.0627 46.3868 82.0808 46.9745C82.1007 47.5606 82.1205 48.1748 82.1205 48.2705C82.1205 48.3663 82.066 48.4422 81.9884 48.4934C81.9091 48.5429 81.8051 48.5677 81.7077 48.5677C81.6483 48.5677 81.5938 48.5578 81.5509 48.5396C81.5063 48.5215 81.4716 48.4984 81.4518 48.4686C81.3924 48.1632 81.2454 47.488 80.6825 46.8854C80.1211 46.286 79.1437 45.7627 77.4267 45.7627C76.0944 45.7627 74.9403 46.4198 74.1182 47.4632C73.2976 48.5066 72.8089 49.938 72.8089 51.485C72.8089 52.8471 73.3108 54.3164 74.2007 55.4474C75.0873 56.5766 76.3618 57.3658 77.9006 57.3658C78.414 57.3658 78.8878 57.346 79.3171 57.2816C79.7464 57.2189 80.131 57.1082 80.4662 56.9332C80.5256 56.9019 80.5603 56.8622 80.5801 56.8127C80.5999 56.7648 80.6049 56.7054 80.6049 56.6361C80.6049 56.3686 80.5999 55.9641 80.595 55.6273C80.59 55.2889 80.5851 55.0181 80.5851 55.0181V54.8794C80.5851 54.7127 80.5851 54.3924 80.5652 54.0622C80.5454 53.732 80.5058 53.3902 80.4266 53.1839C80.3671 53.0353 80.0468 52.928 79.7117 52.857C79.3765 52.7843 79.0265 52.7496 78.9077 52.7496C78.8581 52.7496 78.8334 52.6324 78.8334 52.5003C78.8334 52.3683 78.8581 52.2279 78.9077 52.1768C79.4096 52.1966 79.8041 52.2213 80.2004 52.2411C80.595 52.261 80.9895 52.2758 81.4931 52.2758C81.9075 52.2758 82.2426 52.261 82.5745 52.2411C82.9047 52.2213 83.2299 52.1966 83.6245 52.1768C83.6344 52.2065 83.6443 52.2461 83.6526 52.2923C83.6592 52.3402 83.6641 52.3947 83.6641 52.4541C83.6641 52.5235 83.6592 52.5978 83.646 52.6539C83.6344 52.71 83.613 52.7496 83.5849 52.7496C83.5056 52.7496 83.2795 52.8041 83.0434 52.8751C82.8056 52.9478 82.5596 53.0353 82.4408 53.1046C82.3516 53.164 82.3021 53.2582 82.2757 53.4563C82.2492 53.6527 82.2443 53.9532 82.2443 54.4287C82.2443 54.7837 82.2591 55.0891 82.274 55.3318C82.2889 55.5728 82.3037 55.7511 82.3037 55.8485C82.3037 56.1441 82.3731 56.3669 82.4424 56.5387C82.5118 56.712 82.5811 56.8342 82.5811 56.9349C82.5811 56.9927 82.5464 57.0472 82.4688 57.1033C82.3896 57.1594 82.2658 57.2189 82.0891 57.2899C81.5657 57.4863 81.0292 57.7175 80.273 57.9007C79.5185 58.0823 78.5461 58.216 77.156 58.216C75.4092 58.216 73.8441 57.4715 72.7181 56.2894C71.5905 55.1073 70.9004 53.4893 70.9004 51.7442C70.9004 49.8984 71.6054 48.1962 72.7677 46.9564C73.9299 45.7148 75.5479 44.9355 77.3739 44.9355L77.3656 44.9372Z" fill="black"/>
<path d="M94.1187 51.9621C94.1187 51.9439 94.1088 51.9241 94.0989 51.9076C94.089 51.8927 94.0791 51.8828 94.0791 51.8828C93.6151 51.8746 93.138 51.863 92.6477 51.8548C92.159 51.8482 91.6604 51.8432 91.1585 51.8432C89.6396 51.8432 88.8785 51.8482 88.4987 51.863C88.119 51.8779 88.119 51.901 88.119 51.9406V55.3548C88.119 55.7098 88.1289 56.035 88.157 56.3388C88.1834 56.641 88.228 56.9233 88.2973 57.1891C88.327 57.298 88.6028 57.3955 88.8917 57.4664C89.1806 57.5374 89.4811 57.5837 89.5603 57.5837C89.6098 57.5837 89.6297 57.6959 89.6313 57.8247C89.6346 57.9535 89.6198 58.0955 89.5999 58.1549C89.2054 58.1351 88.8504 58.112 88.4839 58.0905C88.119 58.0707 87.7442 58.0558 87.31 58.0558C86.8758 58.0558 86.4911 58.0707 86.1263 58.0905C85.7614 58.1103 85.3965 58.1351 84.9425 58.1549C84.9244 58.1351 84.9029 58.0905 84.888 58.036C84.8732 57.9816 84.8633 57.9188 84.8633 57.8577C84.8633 57.7966 84.8732 57.7306 84.888 57.6761C84.9029 57.6216 84.9227 57.582 84.9425 57.582C85.0614 57.582 85.3668 57.5424 85.6558 57.4731C85.9447 57.4037 86.2154 57.3047 86.265 57.1874C86.3244 56.9596 86.3591 56.6096 86.3789 56.2711C86.3987 55.9343 86.4036 55.6074 86.4036 55.4308V47.7735C86.4036 47.5952 86.4003 47.27 86.3789 46.9332C86.3591 46.5947 86.3244 46.2447 86.265 46.0185C86.2171 45.8997 85.9447 45.7957 85.6558 45.723C85.3668 45.6487 85.0614 45.6041 84.9425 45.6041C84.9244 45.6041 84.9029 45.5695 84.888 45.5199C84.8732 45.4721 84.8633 45.406 84.8633 45.3482C84.8633 45.2905 84.8732 45.2211 84.888 45.1617C84.9029 45.1022 84.9227 45.0527 84.9425 45.0329C85.3965 45.0511 85.7614 45.0824 86.1263 45.1072C86.4911 45.132 86.8577 45.1518 87.31 45.1518C87.7624 45.1518 88.119 45.132 88.4839 45.1072C88.8488 45.0824 89.2054 45.0527 89.5999 45.0329C89.6198 45.0923 89.6346 45.2343 89.6313 45.3631C89.6297 45.4919 89.6098 45.6058 89.5603 45.6058C89.4811 45.6058 89.1806 45.6553 88.8917 45.7296C88.6028 45.8072 88.327 45.9096 88.2973 46.0185C88.228 46.2843 88.1834 46.5667 88.157 46.8704C88.1289 47.1742 88.119 47.4995 88.119 47.8544V50.7948C88.119 50.8047 88.1289 50.8196 88.1388 50.8312C88.1487 50.8427 88.1586 50.8526 88.1586 50.8526C88.6424 50.8625 89.1146 50.8708 89.6066 50.879C90.0969 50.8873 90.6054 50.8906 91.1585 50.8906C91.6224 50.8906 92.1309 50.8873 92.6328 50.879C93.138 50.8724 93.635 50.8625 94.0791 50.8526C94.0791 50.8526 94.089 50.8427 94.0989 50.8278C94.1088 50.813 94.1187 50.7932 94.1187 50.7734V47.7735C94.1187 47.5952 94.1137 47.27 94.0939 46.9332C94.0741 46.5947 94.0394 46.2447 93.9817 46.0185C93.9321 45.8997 93.6614 45.7957 93.3708 45.723C93.0835 45.6487 92.7764 45.6041 92.6592 45.6041C92.6097 45.6041 92.5849 45.4853 92.5849 45.3548C92.5849 45.2244 92.6097 45.0808 92.6592 45.0312C93.1132 45.0494 93.4831 45.0808 93.8529 45.1055C94.2227 45.1303 94.5925 45.1501 95.0465 45.1501C95.5006 45.1501 95.8456 45.1303 96.2022 45.1055C96.5572 45.0808 96.9022 45.0511 97.2968 45.0312C97.3067 45.061 97.3166 45.1105 97.3232 45.1633C97.3315 45.2178 97.3365 45.2772 97.3365 45.3268C97.3365 45.3862 97.3315 45.4539 97.3183 45.5084C97.3067 45.5629 97.2869 45.6025 97.2572 45.6025C97.178 45.6025 96.8775 45.652 96.5886 45.7263C96.2996 45.8039 96.0239 45.9063 95.9942 46.0152C95.9249 46.281 95.8852 46.5634 95.8621 46.8671C95.8407 47.1709 95.8357 47.4962 95.8357 47.8511V55.3499C95.8357 55.7049 95.839 56.0301 95.8621 56.3339C95.8852 56.636 95.9249 56.9183 95.9942 57.1841C96.0223 57.2931 96.2996 57.3905 96.5886 57.4615C96.8775 57.5325 97.178 57.5787 97.2572 57.5787C97.2869 57.5787 97.3067 57.6233 97.3183 57.6827C97.3315 57.7422 97.3365 57.8148 97.3365 57.8742C97.3365 57.9254 97.3315 57.9783 97.3232 58.0294C97.3166 58.0773 97.3067 58.1219 97.2968 58.1516C96.9022 58.1318 96.5555 58.1087 96.2022 58.0872C95.8473 58.0674 95.4824 58.0525 95.0465 58.0525C94.6107 58.0525 94.2227 58.0674 93.8529 58.0872C93.4831 58.107 93.1132 58.1318 92.6592 58.1516C92.6097 58.1021 92.5849 57.9601 92.5849 57.828C92.5849 57.6959 92.6097 57.5787 92.6592 57.5787C92.7764 57.5787 93.0835 57.5391 93.3708 57.4698C93.6597 57.4004 93.9305 57.3013 93.9817 57.1841C94.0411 56.9563 94.0741 56.6063 94.0939 56.2678C94.1137 55.931 94.1187 55.6041 94.1187 55.4275V51.9522V51.9621Z" fill="black"/>
<path d="M108.466 44.9575C109.078 44.9575 109.496 45.0219 109.927 45.1226C110.356 45.225 110.795 45.362 111.447 45.5106C111.565 46.0323 111.624 46.6052 111.654 47.1137C111.683 47.6206 111.683 48.0663 111.683 48.3305C111.683 48.4015 111.649 48.4345 111.606 48.4527C111.565 48.4708 111.515 48.4708 111.485 48.4708C111.447 48.4708 111.328 48.4708 111.215 48.4444C111.101 48.4196 110.993 48.3718 110.973 48.2727C110.914 47.7791 110.643 47.1517 110.191 46.6498C109.74 46.1462 109.108 45.7649 108.329 45.7649C107.46 45.7649 106.922 46.0422 106.602 46.4368C106.28 46.8314 106.176 47.3432 106.176 47.817C106.176 48.6078 106.541 49.1642 107.069 49.6281C107.597 50.0921 108.287 50.4602 108.939 50.8763C109.59 51.2907 110.448 51.7546 111.144 52.3589C111.839 52.9631 112.372 53.7094 112.372 54.6851C112.372 55.7715 111.868 56.6745 111.102 57.3052C110.335 57.9375 109.304 58.2975 108.248 58.2975C107.577 58.2975 106.93 58.2034 106.331 58.0845C105.732 57.9673 105.179 57.822 104.696 57.7246C104.578 57.1434 104.455 56.417 104.36 55.8078C104.267 55.1986 104.201 54.7066 104.201 54.5877C104.201 54.5382 104.246 54.5101 104.308 54.4919C104.37 54.4754 104.449 54.4705 104.518 54.4705C104.627 54.4705 104.734 54.4952 104.824 54.5299C104.913 54.5629 104.982 54.6075 105.012 54.6488C105.081 54.9443 105.248 55.6559 105.723 56.2899C106.201 56.9271 106.985 57.4901 108.287 57.4901C108.9 57.4901 109.491 57.3069 109.93 56.9321C110.368 56.5573 110.655 55.991 110.655 55.2217C110.655 54.4011 110.34 53.8877 109.852 53.4832C109.367 53.0754 108.712 52.7749 108.03 52.3803C107.27 51.9362 106.41 51.4475 105.743 50.8202C105.075 50.1944 104.596 49.43 104.596 48.4345C104.596 47.3878 105.07 46.521 105.789 45.9134C106.511 45.3059 107.477 44.9608 108.464 44.9608L108.466 44.9575Z" fill="black"/>
<path d="M125.078 57.351C124.505 57.6961 123.78 57.9124 122.971 58.0428C122.162 58.1749 121.269 58.2195 120.361 58.2195C118.614 58.2195 117.051 57.4749 115.923 56.2928C114.796 55.1107 114.105 53.4927 114.105 51.7476C114.105 49.9018 114.81 48.1997 115.971 46.9598C117.133 45.7182 118.751 44.939 120.577 44.939C121.229 44.939 122.033 44.9835 122.872 45.0677C123.711 45.1503 124.584 45.2741 125.372 45.4326C125.372 45.4326 125.364 46.0947 125.354 46.7798C125.344 47.465 125.334 48.1782 125.334 48.2756C125.334 48.373 125.279 48.4473 125.2 48.4985C125.121 48.548 125.017 48.5728 124.918 48.5728C124.858 48.5728 124.804 48.5629 124.759 48.5447C124.716 48.5265 124.682 48.5034 124.66 48.4737C124.601 48.1683 124.419 47.493 123.84 46.8904C123.26 46.2911 122.283 45.7678 120.635 45.7678C119.304 45.7678 118.139 46.4694 117.308 47.5161C116.478 48.5612 115.979 49.953 115.979 51.3332C115.979 52.8736 116.404 54.3826 117.257 55.5086C118.111 56.6329 119.394 57.3725 121.111 57.3725C121.771 57.3725 122.372 57.2487 122.887 57.044C123.401 56.8392 123.825 56.5536 124.13 56.2267C124.447 55.8916 124.649 55.4128 124.792 55.0182C124.936 54.6236 125.018 54.3149 125.098 54.3149C125.236 54.3149 125.4 54.3578 125.527 54.4024C125.656 54.447 125.75 54.4915 125.75 54.4915C125.75 54.6005 125.626 55.2906 125.481 55.9675C125.335 56.6428 125.167 57.3032 125.08 57.3543L125.078 57.351Z" fill="black"/>
<path d="M136.464 51.9621C136.464 51.9439 136.454 51.9241 136.445 51.9076C136.435 51.8911 136.425 51.8828 136.425 51.8828C135.961 51.8746 135.482 51.863 134.993 51.8548C134.506 51.8482 134.008 51.8432 133.504 51.8432C131.984 51.8432 131.226 51.8482 130.846 51.863C130.466 51.8779 130.466 51.901 130.466 51.9406V55.3548C130.466 55.7098 130.476 56.035 130.504 56.3388C130.531 56.641 130.575 56.9233 130.645 57.1891C130.674 57.298 130.95 57.3955 131.239 57.4664C131.526 57.5374 131.828 57.5837 131.906 57.5837C131.956 57.5837 131.975 57.6959 131.977 57.8247C131.98 57.9535 131.965 58.0955 131.944 58.1549C131.549 58.1351 131.194 58.112 130.83 58.0905C130.465 58.0707 130.09 58.0558 129.656 58.0558C129.222 58.0558 128.835 58.0707 128.472 58.0905C128.107 58.1103 127.741 58.1351 127.288 58.1549C127.268 58.1351 127.249 58.0905 127.234 58.036C127.219 57.9816 127.209 57.9188 127.209 57.8577C127.209 57.7966 127.219 57.7306 127.234 57.6761C127.249 57.6216 127.268 57.582 127.288 57.582C127.407 57.582 127.713 57.5424 128.001 57.4731C128.29 57.4037 128.561 57.3047 128.611 57.1874C128.67 56.9596 128.703 56.6096 128.725 56.2711C128.743 55.9343 128.749 55.6074 128.749 55.4308V47.7735C128.749 47.5952 128.744 47.27 128.725 46.9332C128.705 46.5947 128.67 46.2447 128.611 46.0185C128.561 45.8997 128.29 45.7957 128.001 45.723C127.713 45.6487 127.407 45.6041 127.288 45.6041C127.268 45.6041 127.249 45.5695 127.234 45.5199C127.219 45.4721 127.209 45.406 127.209 45.3482C127.209 45.2905 127.219 45.2211 127.234 45.1617C127.249 45.1022 127.268 45.0527 127.288 45.0329C127.742 45.0511 128.107 45.0824 128.472 45.1072C128.837 45.132 129.202 45.1518 129.656 45.1518C130.11 45.1518 130.465 45.132 130.83 45.1072C131.194 45.0824 131.549 45.0527 131.944 45.0329C131.964 45.0923 131.979 45.2343 131.977 45.3631C131.975 45.4919 131.956 45.6058 131.906 45.6058C131.828 45.6058 131.526 45.6553 131.239 45.7296C130.95 45.8072 130.674 45.9096 130.645 46.0185C130.575 46.2843 130.531 46.5667 130.504 46.8704C130.476 47.1742 130.466 47.4995 130.466 47.8544V50.7948C130.466 50.8047 130.476 50.8196 130.486 50.8312C130.496 50.8427 130.506 50.8526 130.506 50.8526C130.99 50.8625 131.464 50.8708 131.954 50.879C132.444 50.8873 132.953 50.8906 133.506 50.8906C133.97 50.8906 134.477 50.8873 134.98 50.879C135.484 50.8724 135.982 50.8625 136.426 50.8526C136.426 50.8526 136.436 50.8427 136.446 50.8278C136.456 50.813 136.466 50.7932 136.466 50.7734V47.7735C136.466 47.5952 136.463 47.27 136.441 46.9332C136.423 46.5947 136.387 46.2447 136.327 46.0185C136.278 45.8997 136.007 45.7957 135.718 45.723C135.429 45.6487 135.124 45.6041 135.005 45.6041C134.955 45.6041 134.931 45.4853 134.931 45.3548C134.931 45.2244 134.955 45.0808 135.005 45.0312C135.459 45.0494 135.829 45.0808 136.199 45.1055C136.568 45.1303 136.938 45.1501 137.392 45.1501C137.846 45.1501 138.191 45.1303 138.546 45.1055C138.901 45.0808 139.248 45.0511 139.641 45.0312C139.651 45.061 139.661 45.1105 139.669 45.1633C139.677 45.2178 139.681 45.2772 139.681 45.3268C139.681 45.3862 139.677 45.4539 139.662 45.5084C139.651 45.5629 139.631 45.6025 139.601 45.6025C139.522 45.6025 139.222 45.652 138.933 45.7263C138.645 45.8039 138.368 45.9063 138.338 46.0152C138.269 46.281 138.229 46.5634 138.208 46.8671C138.186 47.1709 138.18 47.4962 138.18 47.8511V55.3499C138.18 55.7049 138.185 56.0301 138.208 56.3339C138.229 56.636 138.269 56.9183 138.338 57.1841C138.368 57.2931 138.645 57.3905 138.933 57.4615C139.222 57.5325 139.522 57.5787 139.601 57.5787C139.631 57.5787 139.651 57.6233 139.662 57.6827C139.676 57.7422 139.681 57.8148 139.681 57.8742C139.681 57.9254 139.677 57.9783 139.669 58.0294C139.662 58.0773 139.651 58.1219 139.641 58.1516C139.246 58.1318 138.901 58.1087 138.546 58.0872C138.191 58.0674 137.826 58.0525 137.392 58.0525C136.938 58.0525 136.568 58.0674 136.199 58.0872C135.829 58.107 135.459 58.1318 135.005 58.1516C134.955 58.1021 134.931 57.9601 134.931 57.828C134.931 57.6959 134.955 57.5787 135.005 57.5787C135.122 57.5787 135.429 57.5391 135.718 57.4698C136.005 57.4004 136.278 57.3013 136.327 57.1841C136.387 56.9563 136.421 56.6063 136.441 56.2678C136.461 55.931 136.466 55.6041 136.466 55.4275V51.9522L136.464 51.9621Z" fill="black"/>
<path d="M147.448 44.938C149.185 44.938 150.763 45.6875 151.907 46.8994C153.051 48.1112 153.763 49.7836 153.763 51.6278C153.763 53.4719 153.053 55.1411 151.907 56.3463C150.763 57.5531 149.185 58.2977 147.448 58.2977C145.711 58.2977 144.138 57.5531 142.998 56.3463C141.859 55.1411 141.154 53.4719 141.154 51.6278C141.154 49.7836 141.859 48.1112 142.998 46.8994C144.138 45.6875 145.713 44.938 147.448 44.938ZM143.106 51.1936C143.106 52.724 143.505 54.2859 144.286 55.468C145.069 56.6501 146.233 57.4491 147.762 57.4491C149.094 57.4491 150.106 56.7541 150.783 55.7255C151.461 54.6969 151.806 53.3349 151.806 52.0042C151.806 50.4737 151.407 48.9152 150.624 47.7397C149.843 46.5626 148.678 45.7684 147.149 45.7684C145.828 45.7684 144.816 46.4651 144.136 47.4921C143.454 48.5173 143.106 49.8744 143.106 51.1952V51.1936Z" fill="black"/>
<path d="M161.991 44.938C163.728 44.938 165.306 45.6875 166.45 46.8994C167.594 48.1112 168.306 49.7836 168.306 51.6278C168.306 53.4719 167.596 55.1411 166.45 56.3463C165.306 57.5531 163.728 58.2977 161.991 58.2977C160.254 58.2977 158.681 57.5531 157.541 56.3463C156.402 55.1411 155.697 53.4719 155.697 51.6278C155.697 49.7836 156.402 48.1112 157.541 46.8994C158.681 45.6875 160.256 44.938 161.991 44.938ZM157.649 51.1936C157.649 52.724 158.048 54.2859 158.831 55.468C159.612 56.6501 160.776 57.4491 162.306 57.4491C163.638 57.4491 164.651 56.7541 165.329 55.7255C166.008 54.6969 166.353 53.3349 166.353 52.0042C166.353 50.4737 165.953 48.9152 165.172 47.7397C164.39 46.5626 163.226 45.7684 161.695 45.7684C160.375 45.7684 159.362 46.4651 158.682 47.4921C158 48.5173 157.65 49.8744 157.65 51.1952L157.649 51.1936Z" fill="black"/>
<path d="M174.515 45.0362C174.525 45.0659 174.535 45.1154 174.543 45.1683C174.55 45.2228 174.555 45.2822 174.555 45.3317C174.555 45.3912 174.55 45.4589 174.536 45.5133C174.525 45.5678 174.505 45.6074 174.475 45.6074C174.396 45.6074 174.096 45.657 173.808 45.7313C173.519 45.8089 173.244 45.9112 173.214 46.0202C173.145 46.286 173.1 46.5683 173.074 46.8721C173.046 47.1759 173.037 47.5011 173.037 47.8561V55.2954C173.037 55.6504 173.047 55.9508 173.074 56.2299C173.1 56.5089 173.145 56.7664 173.214 57.0306C173.244 57.1197 173.371 57.1693 173.597 57.1973C173.821 57.2238 174.142 57.2287 174.556 57.2287H175.502C175.879 57.2287 176.356 57.2188 176.813 57.1726C177.27 57.1247 177.705 57.0421 177.99 56.8936C178.177 56.7961 178.41 56.5584 178.634 56.215C178.859 55.8716 179.077 55.4242 179.233 54.9008C179.243 54.8612 179.278 54.8315 179.326 54.8117C179.375 54.7935 179.44 54.7836 179.509 54.7836C179.608 54.7836 179.715 54.7968 179.808 54.8199C179.899 54.843 179.973 54.8711 180.003 54.9008C179.816 55.4341 179.583 56.035 179.382 56.6129C179.179 57.1891 179.007 57.7422 178.938 58.1764C177.861 58.1764 176.821 58.1483 175.728 58.1169C174.635 58.0856 173.491 58.0575 172.208 58.0575C171.745 58.0575 171.149 58.0724 170.666 58.0856C170.186 58.1021 169.819 58.1169 169.819 58.1169C169.81 58.107 169.795 58.0724 169.783 58.0179C169.77 57.9634 169.762 57.8891 169.762 57.7999C169.762 57.7405 169.765 57.6778 169.777 57.6282C169.786 57.5787 169.801 57.544 169.821 57.544C169.94 57.544 170.241 57.5094 170.531 57.44C170.822 57.3707 171.104 57.2683 171.183 57.1296C171.253 57.0124 171.287 56.7301 171.304 56.3867C171.322 56.0433 171.322 55.6405 171.322 55.2739V47.8132C171.322 47.6348 171.317 47.3014 171.297 46.9513C171.277 46.6046 171.243 46.2431 171.185 46.0169C171.135 45.898 170.865 45.794 170.574 45.7214C170.285 45.6471 169.98 45.6025 169.862 45.6025C169.843 45.6025 169.823 45.5678 169.808 45.5183C169.793 45.4704 169.783 45.4044 169.783 45.3466C169.783 45.2888 169.793 45.2195 169.808 45.16C169.823 45.1006 169.843 45.0511 169.862 45.0312C170.316 45.0494 170.681 45.0808 171.046 45.1055C171.411 45.1303 171.778 45.1501 172.23 45.1501C172.682 45.1501 173.041 45.1303 173.405 45.1055C173.77 45.0808 174.125 45.0511 174.52 45.0312L174.515 45.0362Z" fill="black"/>
<path d="M175.93 38.8773H112.956H49.9844V38.4563V38.0337H112.956H175.93V38.4563V38.8773Z" fill="black"/>
<path d="M59.6556 5.69575C59.7249 5.80472 59.7645 6.12996 59.7612 6.42879C59.7596 6.72762 59.715 6.99838 59.616 6.99838C59.4178 6.99838 58.8004 7.06277 58.2341 7.26584C57.6661 7.46726 57.1477 7.80736 57.1477 8.35879C57.1477 8.78474 57.468 9.75552 58.102 11.3916C58.736 13.0278 59.6836 15.3276 60.9367 18.405C61.47 19.7572 62.1981 21.3867 62.8007 22.6646C63.4033 23.9424 63.8771 24.8703 63.897 24.8207L66.768 18.0005L69.6391 11.182C69.8355 10.7081 70.0287 10.1897 70.1723 9.70929C70.316 9.22886 70.4101 8.78474 70.4101 8.4595C70.4101 7.94604 69.9709 7.58118 69.403 7.34343C68.835 7.10734 68.14 6.99838 67.6265 6.99838C67.5275 6.99838 67.4878 6.72762 67.4911 6.42879C67.4928 6.13161 67.5374 5.80472 67.6067 5.69575C68.3662 5.73538 69.0563 5.79977 69.7563 5.8526C70.458 5.90708 71.1679 5.95166 71.967 5.95166C72.875 5.95166 73.5222 5.90708 74.1529 5.8526C74.7852 5.79977 75.401 5.73538 76.2496 5.69575C76.2777 5.74528 76.309 5.83939 76.3305 5.9467C76.352 6.05567 76.3668 6.17949 76.3668 6.28681C76.3668 6.40568 76.3635 6.57903 76.3454 6.72101C76.3272 6.86465 76.2991 6.97692 76.2496 6.97692C76.0515 6.97692 75.5694 7.04131 75.0444 7.21301C74.5227 7.38636 73.9597 7.66703 73.6031 8.10124C73.3307 8.51728 73.0434 9.05715 72.7545 9.65481C72.4656 10.2541 72.1717 10.9129 71.8861 11.5749L67.7784 21.1952L63.6708 30.8171C63.4561 31.3256 63.1969 31.6707 62.9278 31.8886C62.6587 32.1082 62.383 32.199 62.1354 32.199C62.0082 32.199 61.8778 32.1577 61.7655 32.0917C61.6516 32.0256 61.5526 31.9315 61.4832 31.8225L57.4367 21.7169L53.3901 11.6112C53.1259 10.9376 52.8634 10.2904 52.6075 9.69774C52.35 9.10338 52.0974 8.56186 51.8514 8.09793C51.6467 7.68849 51.0688 7.41113 50.4943 7.23777C49.9181 7.06442 49.3452 6.99178 49.1471 6.99178C49.0975 6.99178 49.0579 6.90262 49.0315 6.78375C49.0034 6.66653 48.9902 6.51794 48.9902 6.39907C48.9902 6.29011 49.0001 6.13822 49.02 5.99954C49.0398 5.86085 49.0695 5.73703 49.1091 5.6875C49.9577 5.72712 50.7898 5.79151 51.6351 5.84434C52.4788 5.89883 53.3323 5.9434 54.2205 5.9434C55.1088 5.9434 56.0911 5.89883 57.0371 5.84434C57.9848 5.79151 58.8978 5.72712 59.649 5.6875L59.6556 5.69575Z" fill="black"/>
<path d="M84.4213 29.775C84.4807 29.9929 85.0074 30.2141 85.5605 30.3825C86.1135 30.5493 86.6897 30.6632 86.8482 30.6632C86.9473 30.6632 86.9919 30.9307 87.0018 31.2262C87.01 31.5217 86.9869 31.8486 86.9473 31.9658C86.1482 31.9279 85.3244 31.8635 84.5104 31.8073C83.6965 31.7545 82.8925 31.7099 82.1314 31.7099C81.3125 31.7099 80.5085 31.7545 79.7044 31.8073C78.8988 31.8635 78.0964 31.9262 77.2775 31.9658C77.1784 31.8668 77.1289 31.5415 77.1289 31.241C77.1289 30.9406 77.1784 30.6632 77.2775 30.6632C77.5136 30.6632 78.1063 30.5509 78.6528 30.3825C79.2009 30.2141 79.7044 29.9929 79.7622 29.775C79.8811 29.2698 79.9504 28.654 79.9901 28.1124C80.0297 27.5693 80.0396 27.1004 80.0396 26.894V20.4601C80.0396 20.2818 80.0247 19.7981 79.9372 19.283C79.8514 18.7679 79.6929 18.2197 79.4073 17.9127C79.0325 17.4686 78.4745 17.2919 78.0105 17.1994C77.5466 17.1086 77.1768 17.1037 77.1768 17.0046C77.1768 16.9634 77.1801 16.6744 77.2115 16.3905C77.2412 16.1065 77.2957 15.8308 77.3947 15.8192C78.0947 15.7499 79.3132 15.5584 80.5398 15.3256C81.7665 15.0944 82.9998 14.822 83.7312 14.5942C83.7493 14.5942 83.8187 14.576 83.888 14.5562C83.9574 14.5364 84.0267 14.5149 84.0465 14.5149C84.1852 14.5149 84.2876 14.6536 84.3553 14.8171C84.4229 14.9789 84.451 15.1671 84.4411 15.2661C84.3619 15.8968 84.2843 16.4103 84.2248 16.9336C84.1654 17.457 84.1258 17.9886 84.1258 18.6606V26.2204C84.1258 26.8825 84.1291 27.5049 84.1687 28.0943C84.2083 28.6837 84.2826 29.2417 84.4213 29.775ZM81.7566 5.51709C82.4385 5.51709 83.0493 5.7895 83.4901 6.22866C83.931 6.67113 84.2034 7.28199 84.2034 7.96385C84.2034 8.6457 83.931 9.25657 83.4901 9.69738C83.0493 10.1398 82.4368 10.4106 81.7566 10.4106C81.0764 10.4106 80.4639 10.1398 80.0231 9.69738C79.5823 9.25657 79.3099 8.6457 79.3099 7.96385C79.3099 7.28199 79.5823 6.67113 80.0231 6.22866C80.4639 5.78785 81.0764 5.51709 81.7566 5.51709Z" fill="black"/>
<path d="M104.072 15.6828C104.072 16.8187 103.914 17.6508 103.598 18.2022C103.283 18.7536 102.809 19.0194 102.177 19.0194C101.407 19.0194 101.028 18.6232 100.62 18.2303C100.214 17.834 99.7779 17.4411 98.9012 17.4411C98.0246 17.4411 97.3724 18.0239 96.9399 18.7949C96.509 19.5676 96.296 20.5301 96.296 21.2895V26.2441C96.296 26.8963 96.3009 27.5121 96.3406 28.0998C96.3802 28.6876 96.4545 29.244 96.5932 29.7772C96.6526 29.9952 97.1661 30.2164 97.7026 30.3848C98.2409 30.5516 98.8038 30.6655 98.9607 30.6655C99.0597 30.6655 99.1043 30.9329 99.1142 31.2285C99.1225 31.524 99.0994 31.8509 99.0597 31.9681C98.2607 31.9301 97.4517 31.8657 96.6509 31.8096C95.8519 31.7568 95.0627 31.7122 94.3033 31.7122C93.4844 31.7122 92.6803 31.7568 91.8763 31.8096C91.0723 31.8657 90.2666 31.9285 89.4494 31.9681C89.3503 31.869 89.3008 31.5438 89.3008 31.2433C89.3008 30.9428 89.3503 30.6655 89.4494 30.6655C89.6855 30.6655 90.2782 30.5532 90.8246 30.3848C91.3728 30.2164 91.8763 29.9952 91.9357 29.7772C92.0546 29.272 92.124 28.6562 92.1636 28.1147C92.2032 27.5715 92.2131 27.1027 92.2131 26.8963V20.4624C92.2131 20.2841 92.1983 19.8004 92.1124 19.2853C92.0265 18.7701 91.8681 18.222 91.5808 17.9149C91.206 17.4708 90.648 17.2942 90.1841 17.2017C89.7201 17.1109 89.3503 17.106 89.3503 17.0069C89.3503 16.9656 89.3553 16.6767 89.385 16.3927C89.4147 16.1088 89.4692 15.833 89.5682 15.8215C90.2683 15.7522 91.3199 15.5705 92.4624 15.3444C93.6049 15.1165 94.8382 14.8458 95.9031 14.5981C95.913 14.5981 95.9823 14.58 96.0549 14.5601C96.1259 14.5403 96.2002 14.5189 96.22 14.5189C96.3587 14.5189 96.4611 14.6575 96.5271 14.821C96.5948 14.9828 96.6229 15.171 96.6146 15.2701C96.5849 15.4764 96.5403 15.8562 96.4974 16.2276C96.4561 16.5975 96.4165 16.9574 96.3967 17.1258C96.8012 16.543 97.4368 15.8578 98.2095 15.3179C98.9821 14.7781 99.8902 14.3818 100.838 14.3818C101.597 14.3818 102.248 14.5205 102.789 14.7533C103.329 14.9844 103.76 15.3097 104.075 15.6845L104.072 15.6828Z" fill="black"/>
<path d="M106.535 17.1441C106.446 17.1441 106.381 16.9658 106.34 16.7495C106.297 16.5316 106.277 16.2757 106.277 16.1172C106.277 16.038 106.277 15.9703 106.284 15.9108C106.292 15.8514 106.305 15.8019 106.335 15.7622C106.65 15.6136 107.151 15.328 107.697 14.9582C108.245 14.5867 108.841 14.1344 109.356 13.6506C109.929 13.1075 110.54 12.4372 111.027 11.8841C111.514 11.3327 111.874 10.8984 111.944 10.8291C112.16 10.8291 112.437 10.8638 112.658 10.9199C112.88 10.976 113.048 11.0553 113.048 11.1444V15.0325C113.916 15.0325 114.976 15.0375 115.891 15.0424C116.802 15.0474 117.568 15.0523 117.846 15.0523C117.945 15.0523 118.022 15.087 118.077 15.1514C118.131 15.2158 118.159 15.3099 118.159 15.4287C118.159 15.6054 118.13 15.8976 118.065 16.213C118.001 16.5299 117.904 16.87 117.765 17.1474H113.046V26.6604C113.046 27.7071 113.279 28.5161 113.71 29.0642C114.143 29.6123 114.773 29.8979 115.572 29.8979C116.135 29.8979 116.667 29.7444 117.083 29.5843C117.497 29.4241 117.793 29.2574 117.882 29.226C117.991 29.1979 118.128 29.3911 118.237 29.6041C118.346 29.8187 118.425 30.0548 118.415 30.1142C118.267 30.4114 117.641 30.9083 116.802 31.3327C115.964 31.757 114.912 32.107 113.915 32.107C112.691 32.107 111.452 31.7371 110.519 30.8803C109.586 30.0218 108.96 28.6746 108.96 26.7198V17.1491H106.533L106.535 17.1441Z" fill="black"/>
<path d="M138.058 26.4589C138.058 26.8139 138.066 27.3125 138.114 27.8177C138.16 28.3196 138.244 28.8281 138.393 29.2028C138.55 29.5099 139.048 29.6387 139.522 29.6948C139.996 29.751 140.445 29.7361 140.505 29.7559C140.544 29.7757 140.579 29.8401 140.604 29.9144C140.628 29.9871 140.643 30.0729 140.643 30.1323C140.643 30.1703 140.623 30.3932 140.579 30.6045C140.534 30.8175 140.465 31.0189 140.366 31.0189C139.329 31.0784 137.805 31.3442 136.536 31.5968C135.266 31.8477 134.249 32.0838 134.229 32.0838C134.13 32.0838 134.061 31.9847 134.016 31.851C133.973 31.7189 133.952 31.5505 133.952 31.4135V29.6767C133.952 29.5776 133.932 29.5248 133.907 29.4984C133.882 29.4736 133.853 29.4786 133.835 29.4984C133.331 30.0316 132.542 30.6689 131.581 31.1725C130.62 31.676 129.491 32.0442 128.307 32.0442C126.451 32.0442 125.193 31.0585 124.399 29.6651C123.605 28.2733 123.273 26.4771 123.273 24.8591V20.4592C123.273 20.2809 123.258 19.7972 123.171 19.2821C123.085 18.767 122.927 18.2188 122.641 17.9118C122.266 17.4677 121.71 17.291 121.246 17.1985C120.78 17.1077 120.412 17.1028 120.412 17.0037C120.412 16.9625 120.417 16.6735 120.447 16.3896C120.476 16.1056 120.529 15.8299 120.63 15.8183C121.33 15.749 122.548 15.5575 123.775 15.3247C125.002 15.0935 126.235 14.8211 126.965 14.5933C126.985 14.5933 127.054 14.5751 127.123 14.5553C127.193 14.5355 127.262 14.514 127.28 14.514C127.419 14.514 127.521 14.6527 127.589 14.8162C127.657 14.978 127.685 15.1662 127.675 15.2652C127.597 15.8959 127.511 16.4193 127.449 16.9525C127.384 17.4858 127.34 18.029 127.34 18.6993V23.4756C127.34 25.5178 127.605 26.9542 128.196 27.8787C128.786 28.8049 129.699 29.2177 130.992 29.2177C131.919 29.2177 132.669 28.8578 133.187 28.3972C133.704 27.9349 133.991 27.3735 133.991 26.9691V20.4559C133.991 20.2776 133.977 19.7939 133.891 19.2788C133.805 18.7637 133.646 18.2155 133.361 17.9085C132.986 17.4644 132.428 17.2877 131.964 17.1952C131.498 17.1044 131.13 17.0995 131.13 17.0004C131.13 16.9591 131.135 16.6702 131.165 16.3863C131.195 16.1023 131.248 15.8266 131.348 15.815C132.048 15.7457 133.267 15.5542 134.493 15.3214C135.72 15.0902 136.953 14.8178 137.683 14.59C137.703 14.59 137.772 14.5718 137.842 14.552C137.911 14.5322 137.98 14.5107 138 14.5107C138.139 14.5107 138.241 14.6494 138.307 14.8129C138.375 14.9747 138.403 15.1629 138.395 15.2619C138.315 15.8926 138.231 16.4061 138.167 16.9278C138.102 17.4478 138.058 17.9762 138.058 18.6382V26.4539V26.4589Z" fill="black"/>
<path d="M156.036 20.0842V27.8405C156.036 28.3738 156.163 28.7832 156.388 29.0589C156.612 29.3363 156.934 29.4783 157.319 29.4783C157.674 29.4783 157.981 29.3693 158.215 29.2488C158.448 29.1266 158.612 28.9945 158.681 28.945C158.75 28.9648 158.805 29.0391 158.841 29.1266C158.877 29.2158 158.897 29.3198 158.897 29.399C158.897 29.6467 158.867 29.8828 158.823 30.0825C158.778 30.2823 158.719 30.4441 158.661 30.5448C158.384 30.7908 157.857 31.1705 157.23 31.4892C156.604 31.8062 155.878 32.0654 155.207 32.0654C154.537 32.0654 153.915 31.7731 153.391 31.3654C152.869 30.9559 152.465 30.4259 152.287 29.9521C152.209 29.9719 151.676 30.5101 150.812 31.0434C149.949 31.5767 148.755 32.1033 147.354 32.1033C146.051 32.1033 144.936 31.7286 144.146 31.0352C143.357 30.3417 142.893 29.3313 142.893 28.0568C142.893 26.0145 144.309 24.7515 146.107 23.8649C147.905 22.98 150.088 22.4715 151.616 21.9382C151.735 21.8986 151.824 21.8194 151.884 21.7154C151.943 21.6114 151.973 21.4826 151.973 21.3455V19.1563C151.973 18.2186 151.737 17.4822 151.326 16.982C150.916 16.4801 150.335 16.2143 149.643 16.2143C148.874 16.2143 148.242 16.4553 147.804 16.9242C147.365 17.3931 147.119 18.0882 147.119 18.9962C147.119 19.5691 146.857 19.9521 146.482 20.1965C146.107 20.4375 145.618 20.5366 145.164 20.5366C144.78 20.5366 144.37 20.4573 144.01 20.2972C143.65 20.1387 143.34 19.8943 143.152 19.5691C143.152 18.316 144.213 17.0134 145.742 16.0228C147.271 15.0338 149.27 14.3569 151.144 14.3569C152.704 14.3569 153.928 14.6937 154.761 15.5754C155.595 16.4586 156.039 17.89 156.039 20.0809L156.036 20.0842ZM151.97 27.7216V23.6965C151.072 24.0333 149.858 24.3322 148.869 24.8258C147.88 25.3195 147.116 26.0063 147.116 27.1108C147.116 27.9891 147.382 28.6 147.796 28.9929C148.21 29.3858 148.772 29.5575 149.364 29.5575C150.096 29.5575 150.746 29.3247 151.215 28.9797C151.684 28.6346 151.97 28.1757 151.97 27.7216Z" fill="black"/>
<path d="M168.188 29.6959C168.247 29.9122 168.711 30.15 169.2 30.3316C169.689 30.5132 170.202 30.642 170.361 30.642C170.46 30.642 170.499 30.9094 170.504 31.2049C170.509 31.5021 170.479 31.8257 170.44 31.9446C169.651 31.9066 168.88 31.8472 168.12 31.7976C167.361 31.7481 166.611 31.7085 165.86 31.7085C165.031 31.7085 164.282 31.7465 163.532 31.7976C162.783 31.8472 162.031 31.905 161.203 31.9446C161.104 31.8472 161.054 31.5203 161.054 31.2198C161.054 30.9193 161.104 30.642 161.203 30.642C161.439 30.642 161.982 30.5132 162.48 30.3316C162.979 30.1483 163.433 29.9122 163.492 29.6959C163.611 29.1825 163.689 28.5518 163.738 27.9987C163.788 27.4457 163.808 26.9718 163.808 26.7737V10.353C163.808 10.0179 163.788 9.54406 163.748 9.05537C163.709 8.56668 163.649 8.06313 163.57 7.66854C163.492 7.39283 163.166 7.23433 162.776 7.14518C162.386 7.05768 161.932 7.03787 161.597 7.03787H161.203C161.123 7.03787 161.064 6.98834 161.024 6.90414C160.985 6.82159 160.965 6.70272 160.965 6.56238C160.965 6.52441 160.975 6.36592 161.009 6.21733C161.044 6.06874 161.104 5.93171 161.203 5.93171C163.374 5.73524 164.982 5.35882 166.063 5.03357C167.144 4.70833 167.696 4.43262 167.755 4.43262H167.835C167.952 4.43262 168.081 4.54158 168.185 4.67366C168.289 4.80739 168.366 4.96423 168.386 5.06329C168.386 5.06329 168.267 5.43807 168.15 6.0902C168.031 6.74234 167.912 7.66854 167.912 8.7747V26.143C167.912 26.8133 167.912 27.4258 167.947 28.007C167.982 28.5898 168.051 29.1429 168.188 29.6959Z" fill="black"/>
<path d="M17.328 3.66057C13.6959 2.72281 10.0307 3.61434 7.28347 5.75236V5.75566C7.06719 5.91911 7.10516 6.28068 7.29833 6.58115C7.48819 6.87503 7.80353 7.09791 8.04127 6.96418C10.4616 5.02593 13.7322 4.21365 16.9681 5.04574C20.1562 5.86793 22.5881 8.10996 23.79 10.915L23.7982 10.9183C23.9699 11.1048 24.3381 11.019 24.627 10.8324C24.8928 10.6607 25.1009 10.39 25.0365 10.1572L25.0266 10.1423C23.6249 7.03683 20.8859 4.56861 17.328 3.65726V3.66057Z" fill="black"/>
<path d="M27.4703 7.98594C27.4521 7.96118 27.4802 7.97604 27.4554 7.95788C25.5997 4.3736 22.306 1.55042 18.0894 0.470674C13.6185 -0.685013 9.0899 0.355106 5.65255 2.92073C5.41151 3.07592 5.44783 3.4507 5.64595 3.75613C5.84737 4.06156 6.17261 4.2927 6.41035 4.13585C9.53071 1.77495 13.6565 0.802522 17.7361 1.84759C21.6275 2.85304 24.6636 5.49461 26.3113 8.83125C26.3129 8.83785 26.3129 8.84941 26.3146 8.84941C26.3146 8.84941 26.3168 8.85051 26.3212 8.85271C26.3311 8.87252 26.341 8.88573 26.3476 8.90389L26.3377 8.89729C26.5193 9.06734 26.9007 8.97984 27.1863 8.79327C27.4967 8.5869 27.6288 8.22699 27.4686 7.98594H27.4703Z" fill="black"/>
<path d="M21.8643 11.7087L21.8808 11.6971C20.9579 9.40389 19.0065 7.56965 16.4359 6.90431C13.796 6.22575 11.1263 6.95879 9.19798 8.60977H9.20788C8.97675 8.76496 9.00646 9.13148 9.20293 9.43856C9.39775 9.7473 9.71969 9.98504 9.96073 9.8315C9.96734 9.8282 9.96569 9.82655 9.96569 9.82159C11.5556 8.36873 13.8323 7.7298 16.076 8.30764C18.2784 8.87888 19.9244 10.4787 20.6409 12.4698C20.6409 12.4698 20.6657 12.5606 20.6971 12.6068C20.8572 12.8396 21.2501 12.7537 21.5556 12.5523C21.8561 12.3476 22.0459 11.9216 21.8891 11.6922C21.8874 11.6872 21.8676 11.7087 21.8676 11.7087H21.8643Z" fill="black"/>
<path fill-rule="evenodd" clip-rule="evenodd" d="M7.82176 51.53C10.0159 53.4204 12.6558 55.177 15.0217 56.6695C17.4222 58.1851 19.5916 60.0639 22.1903 60.5031C24.4884 60.896 27.1515 60.0012 29.8492 59.0139C34.4818 57.3084 38.6373 54.0015 40.4055 49.5802C41.3284 47.2787 40.9058 44.4324 41.1865 41.9097C42.3174 31.6967 40.6895 25.0862 35.6326 20.5031C27.972 13.5657 19.831 16.5787 17.0491 18.4674C14.2672 20.3578 11.7742 22.5305 10.2454 23.427C7.69794 24.9277 4.94245 25.8226 1.95087 29.9583C-1.06052 34.0874 -1.59709 43.4418 7.82011 51.53" fill="black"/>
<path fill-rule="evenodd" clip-rule="evenodd" d="M8.88339 50.4962C10.8992 52.2281 13.3245 53.8444 15.5005 55.218C17.7079 56.6082 19.7039 58.3334 22.0929 58.7396C24.2029 59.0962 26.6496 58.2823 29.136 57.3709C33.3939 55.8041 37.2159 52.7597 38.8438 48.7016C39.6874 46.5801 39.2994 43.9616 39.5553 41.6404C40.5988 32.2512 39.1046 26.1723 34.4505 21.959C27.4074 15.5796 19.9186 18.345 17.3661 20.0851C14.8071 21.8236 12.5139 23.8197 11.1073 24.6451C8.76287 26.0221 6.23192 26.8492 3.47973 30.6481C0.712682 34.4454 0.219039 43.0486 8.88174 50.4913" fill="#A41629"/>
<path fill-rule="evenodd" clip-rule="evenodd" d="M9.58521 50.0569C11.5152 51.7161 13.8398 53.2631 15.9217 54.5855C18.0366 55.9129 19.9501 57.5639 22.235 57.9552C24.2558 58.3019 26.6019 57.521 28.9793 56.6443C33.0572 55.1502 36.7191 52.2362 38.2727 48.3415C39.085 46.3158 38.7118 43.8079 38.9578 41.5857C39.9583 32.5977 38.5236 26.7764 34.0709 22.743C27.325 16.6344 20.1597 19.2826 17.7097 20.9501C15.2613 22.6143 13.0655 24.5211 11.7166 25.3136C9.47459 26.6294 7.0526 27.4219 4.41433 31.059C1.76616 34.6978 1.29397 42.9362 9.58521 50.0585" fill="#D12239"/>
<path fill-rule="evenodd" clip-rule="evenodd" d="M35.2383 28.9276C35.136 25.6257 33.2753 23.2516 30.6585 21.9258C26.6962 19.9116 23.5279 20.6595 22.6232 22.0232C21.7217 23.3853 25.4596 23.9367 28.3835 25.6736C31.5715 27.5656 35.3423 32.2296 35.2367 28.926L35.2383 28.9276Z" fill="#DE776B"/>
<path fill-rule="evenodd" clip-rule="evenodd" d="M34.7283 26.6229C34.3337 24.3775 32.767 22.8636 31.0153 21.9737C28.3588 20.6199 26.6583 21.0673 26.2373 21.9968C25.813 22.9296 28.1822 23.2846 30.1634 24.4502C32.3278 25.7248 35.1312 28.8732 34.7283 26.6212V26.6229Z" fill="white"/>
<path fill-rule="evenodd" clip-rule="evenodd" d="M17.3404 24.3764C14.3141 19.3194 16.467 16.7719 16.8583 15.6394C17.1604 14.7709 15.5474 11.9857 15.3642 11.4954C14.9101 10.2852 14.1722 14.2888 13.8717 17.5892C13.5662 20.8796 14.8606 24.383 14.1738 26.2634C13.9641 26.833 13.1452 27.2326 12.6136 27.5561C12.0771 27.8913 10.6539 28.0646 10.1735 28.3585C8.94019 29.1543 8.76188 29.8097 9.03429 29.9418C10.3138 30.5279 16.1484 28.0597 19.0591 25.5766C20.3765 24.4457 20.852 22.2367 20.4459 22.2713C19.5643 22.3638 18.4416 23.9603 17.3404 24.378" fill="black"/>
<path d="M8.98969 30.0688C8.91209 30.0342 8.84936 29.9648 8.81799 29.8856C8.69912 29.4728 9.07554 28.9231 10.1157 28.2362C10.1966 28.1785 10.2923 28.1306 10.4046 28.0926C10.9378 27.8879 11.7964 27.7377 12.3082 27.5428C12.4122 27.5049 12.4997 27.4652 12.5641 27.4223C13.1023 27.102 13.8948 26.6926 14.0566 26.1973C14.7186 24.4258 13.449 20.8943 13.7511 17.561C13.8782 16.1544 14.0813 14.6156 14.3158 13.4154C14.5783 12.1854 14.7269 11.3566 15.1132 11.137C15.3377 11.0726 15.4648 11.2592 15.5358 11.4375C15.6448 11.7182 16.325 12.9415 16.7394 14.0229C16.987 14.6784 17.1621 15.2678 17.0267 15.6855C16.6717 16.7058 15.0934 18.6061 16.5033 22.2993C16.7262 22.8788 17.0316 23.5128 17.4279 24.1864C18.326 23.7835 19.2803 22.547 20.152 22.192C20.2543 22.1507 20.3534 22.1293 20.4607 22.1243C20.5895 22.1012 20.7034 22.2085 20.7249 22.296C20.9065 22.8606 20.3765 24.6239 19.1796 25.6805C17.4956 27.1301 14.854 28.5417 12.6582 29.3903C11.0138 30.0111 9.65669 30.3512 8.98969 30.0688ZM10.5135 28.3832C10.4145 28.4162 10.3385 28.4558 10.2824 28.4905C9.2555 29.1294 9.06068 29.699 9.10361 29.775C9.11682 29.7882 9.11021 29.7816 9.11847 29.7981C9.54937 30.0177 10.9445 29.7436 12.5509 29.1096C14.7169 28.2742 17.3338 26.8676 18.9798 25.456C20.0678 24.5529 20.568 22.7517 20.4475 22.4264C20.3864 22.438 20.322 22.4578 20.2593 22.4743C19.5015 22.7632 18.4911 24.0906 17.4427 24.51L17.3205 24.6008L17.2347 24.4522C16.7972 23.7241 16.4653 23.039 16.2193 22.4116C14.745 18.6176 16.4274 16.4928 16.7477 15.5831C16.8385 15.3536 16.6998 14.7609 16.4571 14.1336C16.0476 13.0703 15.3773 11.88 15.2469 11.5514C15.2321 11.5068 15.2172 11.4722 15.199 11.4524C15.1561 11.5101 15.0438 11.7033 14.9662 11.9906C14.849 12.3637 14.7302 12.8805 14.6113 13.4699C14.3884 14.6668 14.1787 16.2022 14.05 17.6006C13.7396 20.8564 15.0422 24.33 14.3455 26.3029C14.0912 26.9881 13.2459 27.3662 12.711 27.6865C12.6301 27.736 12.536 27.7888 12.4171 27.8367C11.8574 28.0414 11.0072 28.1983 10.5202 28.3865H10.5119L10.5135 28.3832ZM17.3585 24.3763L17.4956 24.2904L17.3585 24.3763Z" fill="black"/>
</g>
<defs>
<clipPath id="clip0_1289_47577">
<rect width="180" height="60.596" fill="white"/>
</clipPath>
</defs>
</svg>
