<svg width="329" height="386" viewBox="0 0 329 386" fill="none" xmlns="http://www.w3.org/2000/svg"><path d="M570.705 632.892C570.705 632.892 616.95 471.295 438.543 379.651C260.136 288.008 280.963 469.677 279.468 504.516C277.972 539.355 277.316 570.099 267.372 590.895M584.231 597.761C584.231 597.761 608.993 436.164 424.401 355.695C239.805 275.226 259.123 450.03 266.587 495.143C274.05 540.256 270.678 583.272 249.546 614.237M597.758 562.629C597.758 562.629 601.037 401.032 410.256 331.741C219.475 262.447 237.28 430.386 253.706 485.773C270.131 541.16 264.041 596.449 231.72 637.582M611.284 527.498C611.284 527.498 593.081 365.904 396.111 307.788C199.141 249.672 215.441 410.742 240.825 476.403C266.209 542.064 257.404 609.625 213.898 660.927M624.81 492.366C624.81 492.366 585.128 330.772 381.966 283.831C178.807 236.889 193.598 391.091 227.941 467.03C262.284 542.968 250.763 622.798 196.069 684.269M638.337 457.235C638.337 457.235 577.172 295.641 367.825 259.878C158.477 224.114 171.759 371.447 215.064 457.66C258.369 543.872 244.129 635.975 178.247 707.614M651.867 422.103C651.867 422.103 569.219 260.51 353.683 235.921C138.146 211.332 149.919 351.8 202.183 448.286C254.45 544.773 237.491 649.148 160.424 730.956M665.393 386.968C665.393 386.968 561.263 225.378 339.538 211.964C117.812 198.549 128.076 332.152 189.302 438.913C250.528 545.677 230.854 662.317 142.598 754.297M678.92 351.837C678.92 351.837 553.307 190.247 325.393 188.01C97.4784 185.774 106.233 312.505 176.421 429.546C246.606 546.584 224.216 675.497 124.773 777.646M692.446 316.705C692.446 316.705 545.351 155.115 311.248 164.053C77.1448 172.992 84.3906 292.857 163.537 420.173C242.684 547.488 217.575 688.67 106.944 800.987M705.973 281.574C705.973 281.574 537.395 119.984 297.106 140.1C56.8176 160.217 62.5511 273.214 150.66 410.803C238.766 548.392 210.941 701.846 89.1248 824.332M719.499 246.443C719.499 246.443 529.439 84.8526 282.961 116.147C36.4837 147.438 40.7116 253.57 137.779 401.433C234.847 549.297 204.304 715.023 71.2991 847.678M733.026 211.311C733.026 211.311 521.482 49.7244 268.816 92.19C16.1497 134.656 18.8686 233.919 124.895 392.06C230.922 550.201 197.663 728.196 53.47 871.019M746.552 176.18C746.552 176.18 513.526 14.5928 254.671 68.2365C-4.18425 121.88 -2.97434 214.275 112.014 382.69C227.003 551.104 191.025 741.372 35.6475 894.364M760.082 141.049C760.082 141.049 505.574 -20.5384 240.533 44.2799C-24.5111 109.098 -24.8102 194.628 99.1371 373.316C223.084 552.005 184.391 754.542 17.8254 917.706M773.608 105.917C773.608 105.917 497.617 -55.67 226.388 20.3263C-44.8417 96.3227 -46.6531 174.983 86.2563 363.946C219.162 552.912 177.75 767.718 -0.000418946 941.051" stroke="white" stroke-width="1.28296" stroke-miterlimit="10"/></svg>