<svg width="828" height="306" viewBox="0 0 828 306" fill="none" xmlns="http://www.w3.org/2000/svg"><path d="M-61.694 -506.612C-61.694 -506.612 -133.785 -254.699 144.333 -111.836C422.45 31.0266 389.984 -252.177 392.315 -306.488C394.646 -360.798 395.668 -408.725 411.171 -441.144M-82.78 -451.846C-82.78 -451.846 -121.382 -199.933 166.378 -74.4901C454.144 50.9526 424.029 -221.549 412.395 -291.876C400.76 -362.203 406.016 -429.26 438.959 -477.531M-103.867 -397.08C-103.867 -397.08 -108.979 -145.166 188.429 -37.1489C485.837 70.8737 458.08 -190.926 432.474 -277.269C406.869 -363.612 416.363 -449.801 466.748 -513.924M-124.953 -342.314C-124.953 -342.314 -96.5763 -90.4055 210.479 0.191763C517.535 90.789 492.126 -160.303 452.554 -262.662C412.983 -365.021 426.71 -470.342 494.531 -550.316M-146.039 -287.547C-146.039 -287.547 -84.1787 -35.6391 232.53 37.5381C549.234 110.715 526.176 -129.669 472.639 -248.05C419.102 -366.43 437.063 -490.877 522.325 -586.703M-167.126 -232.781C-167.126 -232.781 -71.7763 19.127 254.575 74.8788C580.926 130.631 560.222 -99.0467 492.713 -233.443C425.205 -367.84 447.404 -511.418 550.108 -623.096M-188.217 -178.015C-188.217 -178.015 -59.3785 73.8935 276.621 112.225C612.62 150.557 594.267 -68.4184 512.793 -218.831C431.314 -369.244 457.752 -531.953 577.891 -659.483M-209.304 -123.243C-209.304 -123.243 -46.9757 128.66 298.671 149.571C644.318 170.483 628.318 -37.79 532.873 -204.219C437.428 -370.653 468.099 -552.483 605.679 -695.87M-230.39 -68.4766C-230.39 -68.4766 -34.5727 183.426 320.722 186.912C676.017 190.398 662.369 -7.16185 552.953 -189.617C443.542 -372.067 478.446 -573.029 633.468 -732.268M-251.477 -13.7101C-251.477 -13.7101 -22.1704 238.193 342.772 224.259C707.715 210.325 696.419 23.4665 573.038 -175.005C449.656 -373.477 488.798 -593.564 661.261 -768.655M-272.563 41.056C-272.563 41.056 -9.76738 292.959 364.818 261.599C739.403 230.24 730.465 54.0892 593.112 -160.398C455.765 -374.886 499.14 -614.105 689.039 -805.048M-293.649 95.822C-293.649 95.822 2.63558 347.725 386.869 298.94C771.101 250.16 764.511 84.712 613.192 -145.792C461.873 -376.296 509.487 -634.646 716.828 -841.441M-314.735 150.588C-314.735 150.588 15.0384 402.486 408.919 336.286C802.8 270.087 798.561 115.346 633.277 -131.18C467.993 -377.705 519.84 -655.181 744.622 -877.828M-335.822 205.355C-335.822 205.355 27.4414 457.252 430.97 373.628C834.499 290.003 832.612 145.969 653.357 -116.572C474.102 -379.114 530.187 -675.722 772.405 -914.22M-356.914 260.121C-356.914 260.121 39.8386 512.018 453.01 410.973C866.186 309.928 866.652 176.597 673.431 -101.961C480.21 -380.518 540.529 -696.252 800.188 -950.608M-378 314.887C-378 314.887 52.2415 566.785 475.06 448.314C897.879 329.844 900.703 207.22 693.511 -87.3535C486.324 -381.932 550.881 -716.792 827.976 -987" stroke="#005295" stroke-width="2" stroke-miterlimit="10"/></svg>