<svg width="80" height="155" viewBox="0 0 80 155" fill="none" xmlns="http://www.w3.org/2000/svg"><path d="M119.31 41.9163C100.83 15.9038 74.3028 19.5417 64.6447 23.4049C63.3248 23.92 62.0371 24.4673 60.7493 25.0146C62.1014 19.6705 65.2242 16.9018 66.4154 14.9702C67.0915 13.8112 66.9627 11.9118 66.6408 9.75483C66.0935 6.21353 64.8701 2.06054 64.7413 1.15912C64.6447 0.579636 64.3872 -0.0642368 63.6789 -0.0320432C62.359 0.386474 61.361 2.76881 59.7513 6.31011C58.2382 9.78702 56.5963 14.2941 55.2764 18.4471C54.2462 21.6665 53.7311 25.0468 53.377 28.3306C48.2904 30.6807 43.8798 32.8055 40.8214 33.8035C32.1291 36.6043 23.2437 37.5058 11.4608 47.9687C-0.354261 58.4316 -8.20951 86.247 14.7768 116.928C20.1209 124.075 26.9138 131.157 33.0628 137.242C39.3083 143.391 44.5881 150.506 52.1536 153.564C58.7855 156.268 67.4456 155.367 76.2345 154.176C91.3333 152.147 106.078 144.936 114.352 132.799C118.666 126.457 119.277 117.604 121.821 110.167C132.058 80.1302 131.543 59.1399 119.342 41.9485L119.31 41.9163ZM117.99 108.75C115.64 115.64 115.06 123.849 111.068 129.741C103.406 141.008 89.7236 147.672 75.7194 149.572C67.5422 150.699 59.5581 151.536 53.377 148.992C46.3909 146.159 41.4975 139.56 35.7026 133.861C30.0044 128.228 23.7266 121.66 18.7688 115.028C-2.57562 86.6011 4.70014 60.7818 15.6782 51.0915C26.624 41.369 34.8656 40.5642 42.914 37.9565C45.4251 37.1516 48.8698 35.542 52.8619 33.6747C52.4433 38.2784 51.9926 42.3026 50.4473 44.685C49.6425 46.0693 46.9704 46.7775 45.1354 47.3892C44.91 47.4536 44.6525 47.518 44.2983 47.5824C42.6243 47.8399 39.92 47.7112 38.1816 47.9687C37.8274 48.0331 37.5055 48.0975 37.2157 48.1941C33.6101 49.5784 32.1291 50.9627 32.1935 52.3149C32.2257 52.6046 32.3867 52.8299 32.5799 52.9909C34.4149 54.2787 38.7288 54.1821 44.1052 53.4094C51.2844 52.3149 60.202 49.8037 66.2222 46.5844C70.5362 44.202 73.3048 39.212 73.1439 37.4092C73.1439 37.1194 72.8863 36.7331 72.4678 36.7009C72.1459 36.6687 71.8239 36.6687 71.502 36.7009C68.6368 37.1838 64.9345 40.2744 61.9405 40.8861C61.2 38.6004 60.6849 36.4756 60.4274 34.5761C60.202 33.063 60.1054 31.6787 60.1054 30.3588C61.7151 29.6505 63.357 28.9423 64.9989 28.2984C73.9487 24.7249 98.5769 21.3445 115.704 45.4898C127.004 61.4257 127.455 80.9028 117.99 108.783V108.75Z" fill="#FFE0E7"/></svg>