<?xml version="1.0" encoding="UTF-8"?>
<svg xmlns="http://www.w3.org/2000/svg" viewBox="0 0 1041.51 1041.51">
  <defs>
    <style>
      .cls-1 {
        fill: none;
      }

      .cls-1, .cls-2, .cls-3 {
        stroke: #003e68;
        stroke-linecap: round;
        stroke-linejoin: round;
        stroke-width: 14px;
      }

      .cls-2 {
        fill: #fff;
      }

      .cls-4 {
        fill: #003e68;
      }

      .cls-3, .cls-5 {
        fill: #cfdde8;
      }

      .cls-6 {
        fill: #fae1e7;
      }
    </style>
  </defs>
  <g id="BG">
    <circle class="cls-6" cx="520.75" cy="520.75" r="520.75"/>
  </g>
  <g id="Icons">
    <g>
      <g>
        <path class="cls-3" d="m849.46,491.11h-42.6c-16.35-46.71-49.21-85.66-91.6-109.85-3.04-1.74-4.9-4.99-4.9-8.49v-79.52c0-14.37-14.55-24.22-27.87-18.83-52.17,21.11-60.47,65.29-61.77,80.25-2.13-.07-4.26-.11-6.41-.11h-157.54c-112.84,0-205.95,90.68-206.19,203.52-.19,87.61,54.87,162.37,132.28,191.44v76.18c0,4.17,3.38,7.55,7.55,7.55h88.74c4.17,0,7.55-3.38,7.55-7.55l4.45-64.01h86.56l4.45,64.01c0,4.17,3.38,7.55,7.55,7.55h88.74c4.17,0,7.55-3.38,7.55-7.55v-76.18c60.48-22.71,107.31-73.32,124.82-136.16h38.64c4.17,0,7.55-3.38,7.55-7.55v-107.15c0-4.17-3.38-7.55-7.55-7.55Z"/>
        <path class="cls-1" d="m246.2,532.89c-12.75-.95-38.29-16-55.34-33.64-13.48-13.94-15.01-31.67-4.96-43.65,9.37-11.16,28.52-14.56,39.8-2.07,8.9,9.86,9.78,24.89,1.31,36.36-16.19,21.95-61.14,35.78-90.52,2.94"/>
      </g>
      <g>
        <circle class="cls-2" cx="465.84" cy="314.89" r="130.63"/>
        <line class="cls-1" x1="465.84" y1="238.31" x2="465.84" y2="390.8"/>
        <path class="cls-1" d="m495.77,274.59s.47-24.62-29.94-24.62c-13.89,0-30.41,5.83-30.41,30.11,0,36.91,63.13,17.48,63.13,61.19,0,20.4-13,31.37-32.73,31.37s-34.39-12.1-34.39-30.48"/>
      </g>
      <g>
        <rect class="cls-5" x="362.8" y="440.99" width="219.14" height="70.08"/>
        <line class="cls-3" x1="366.42" y1="436.62" x2="579.18" y2="437.04"/>
      </g>
      <circle class="cls-4" cx="720.76" cy="478.16" r="11.91"/>
    </g>
  </g>
</svg>