<?xml version="1.0" encoding="UTF-8"?>
<svg xmlns="http://www.w3.org/2000/svg" viewBox="0 0 1041.51 1041.51">
  <defs>
    <style>
      .cls-1 {
        fill: #fff;
      }

      .cls-1, .cls-2, .cls-3 {
        stroke: #003e68;
        stroke-linecap: round;
        stroke-linejoin: round;
        stroke-width: 14px;
      }

      .cls-2, .cls-4 {
        fill: #cfdde8;
      }

      .cls-3 {
        fill: #006daa;
      }

      .cls-5 {
        fill: #fae1e7;
      }
    </style>
  </defs>
  <g id="BG">
    <circle class="cls-5" cx="520.75" cy="520.75" r="520.75"/>
  </g>
  <g id="Icons">
    <g>
      <g>
        <path class="cls-2" d="m187.02,292.45c0-12.5,10.23-22.7,22.73-22.7h622.05c12.48,0,22.75,10.2,22.75,22.7v430.92h-263.32c-3.88,0-7.04,3.16-7.04,7.06,0,2.55-2.61,4.72-5.71,4.72h-115.38c-3.1,0-5.71-2.17-5.71-4.72,0-3.9-3.16-7.06-7.04-7.06H187.02v-430.92Z"/>
        <path class="cls-2" d="m932.57,725.13v25.17h-.02c-.27,11.82-14.76,21.45-24.9,21.45H133.91c-10.14,0-24.62-9.63-24.9-21.45h-.02v-25.17h341.34c0,6.48,5.74,11.78,12.75,11.78h115.39c7.01,0,12.75-5.29,12.75-11.78h341.34Z"/>
      </g>
      <path class="cls-3" d="m816.08,309.24H225.48v367.57h590.61v-367.57Z"/>
    </g>
    <circle class="cls-1" cx="520.75" cy="415.96" r="73.34"/>
    <path class="cls-1" d="m682.68,676.11c0-89.43-72.5-161.93-161.93-161.93s-161.93,72.5-161.93,161.93h323.86Z"/>
    <g>
      <path class="cls-1" d="m676.69,393.09v77.66l66.4-77.66h143.76v-207.2h-260.85v207.5s50.24-.74,50.68-.3Z"/>
      <circle class="cls-4" cx="701.22" cy="287.79" r="16.45"/>
      <circle class="cls-4" cx="756.43" cy="287.79" r="16.45"/>
      <circle class="cls-4" cx="811.65" cy="287.79" r="16.45"/>
    </g>
  </g>
</svg>