<?xml version="1.0" encoding="UTF-8"?>
<svg id="Layer_1" data-name="Layer 1" xmlns="http://www.w3.org/2000/svg" viewBox="0 0 300 300">
  <defs>
    <style>
      .cls-1, .cls-2 {
        fill: #004a87;
      }

      .cls-2 {
        fill-rule: evenodd;
      }
    </style>
  </defs>
  <g>
    <path class="cls-1" d="m135.04,33.99c-15.82-4.08-31.78-.2-43.75,9.11v.02c-.94.71-.78,2.28.06,3.6.83,1.28,2.2,2.25,3.24,1.67h0c10.54-8.44,24.79-11.98,38.88-8.35,13.88,3.58,24.48,13.34,29.71,25.56h.04c.75.83,2.35.45,3.61-.36,1.16-.75,2.07-1.93,1.78-2.94l-.04-.06c-6.1-13.52-18.04-24.28-33.53-28.24Z"/>
    <path class="cls-1" d="m179.21,52.82c-.08-.11.04-.04-.06-.12-8.08-15.61-22.43-27.9-40.79-32.61-19.47-5.04-39.2-.5-54.16,10.67-1.05.68-.89,2.31-.03,3.64.88,1.33,2.29,2.33,3.33,1.66,13.58-10.28,31.55-14.52,49.32-9.96,16.95,4.38,30.17,15.89,37.35,30.42,0,.03,0,.08.02.08t.03.01c.05.08.09.14.12.22l-.04-.03c.79.74,2.45.36,3.7-.45,1.35-.9,1.93-2.46,1.23-3.52Z"/>
    <path class="cls-1" d="m154.79,69.04l.07-.05c-4.02-9.99-12.52-17.98-23.72-20.87-11.5-2.95-23.13.24-31.53,7.43h.04c-1.01.68-.88,2.27-.02,3.61.85,1.35,2.25,2.38,3.3,1.71.03-.02.02-.02.02-.04h0c6.93-6.33,16.84-9.11,26.61-6.59,9.59,2.49,16.76,9.45,19.88,18.13,0,0,.11.4.24.6.69,1.01,2.41.64,3.74-.23,1.31-.89,2.14-2.75,1.45-3.75,0-.02-.1.07-.1.07Z"/>
  </g>
  <path class="cls-2" d="m214.76,107.33c-33.36-30.22-68.82-17.09-80.93-8.86-12.11,8.23-22.97,17.7-29.63,21.6-11.1,6.53-23.1,10.43-36.13,28.44-13.12,17.98-15.45,58.72,25.56,93.95,9.56,8.23,21.05,15.88,31.36,22.39,10.45,6.6,19.9,14.79,31.22,16.7,10.01,1.71,21.61-2.18,33.36-6.49,20.18-7.43,38.27-21.83,45.98-41.09,4.02-10.02,2.18-22.42,3.4-33.41,4.93-44.48-2.16-73.27-24.19-93.23Zm17.09,92.08c-1.12,10.11.57,21.51-3.1,30.75-7.09,17.67-23.73,30.93-42.28,37.75-10.83,3.97-21.49,7.51-30.68,5.96-10.4-1.77-19.1-9.28-28.71-15.34-9.48-5.99-20.04-13.02-28.82-20.57-37.73-32.42-35.58-69.89-23.53-86.42,11.99-16.55,23.01-20.15,33.22-26.15,6.13-3.6,16.11-12.29,27.26-19.86,11.12-7.58,43.73-19.63,74.4,8.16,20.26,18.35,26.78,44.82,22.23,85.72Z"/>
  <path class="cls-2" d="m213.03,144.03c-.45-14.38-8.55-24.72-19.94-30.49-17.26-8.77-31.05-5.52-35,.43-3.93,5.93,12.35,8.33,25.09,15.9,13.89,8.24,30.3,28.55,29.85,14.17Z"/>
  <path class="cls-1" d="m149.81,115.14c-.09-.39-.59-.85-1.15-.75-.47.02-.9.11-1.34.29-3.8,1.55-7.96,6.93-11.87,8.69-1.73-2.93-3.06-5.69-4.03-8.22-6.14-16.09.74-24.36,2.28-28.81.59-1.82-.17-4.38-1.25-7.24-1.8-4.71-4.76-10.04-5.24-11.26-.31-.78-.86-1.59-1.84-1.31-1.69.96-2.33,4.57-3.47,9.93-1.03,5.23-1.91,11.93-2.46,18.06-1.32,14.52,4.21,29.9,1.33,37.62-.7,2.15-4.15,3.94-6.5,5.33-.28.19-.66.36-1.11.52-2.23.85-5.97,1.51-8.29,2.39-.49.17-.9.38-1.25.63-4.53,2.99-6.17,5.39-5.65,7.18.14.34.41.65.75.8,2.9,1.23,8.82-.25,15.98-2.96,9.56-3.69,21.07-9.84,28.4-16.15,5.21-4.6,7.52-12.28,6.73-14.74Z"/>
</svg>