<?xml version="1.0" encoding="UTF-8"?>
<svg id="Layer_1" data-name="Layer 1" xmlns="http://www.w3.org/2000/svg" viewBox="0 0 300 300">
  <defs>
    <style>
      .cls-1 {
        fill: #cfdde8;
      }

      .cls-1, .cls-2, .cls-3 {
        stroke: #003e68;
        stroke-linecap: round;
        stroke-linejoin: round;
        stroke-width: 3.5px;
      }

      .cls-4 {
        fill: #ffe0e7;
      }

      .cls-2 {
        fill: #fff;
      }

      .cls-3 {
        fill: #006daa;
      }
    </style>
  </defs>
  <circle class="cls-4" cx="150" cy="150" r="150"/>
  <g>
    <g>
      <g>
        <path class="cls-1" d="m61.13,84.34c0-3.33,2.73-6.04,6.05-6.04h165.62c3.32,0,6.06,2.72,6.06,6.04v114.73h-70.11c-1.03,0-1.88.84-1.88,1.88,0,.68-.7,1.26-1.52,1.26h-30.72c-.82,0-1.52-.58-1.52-1.26,0-1.04-.84-1.88-1.88-1.88H61.13v-114.73Z"/>
        <path class="cls-1" d="m259.64,199.54v6.7h0c-.07,3.15-3.93,5.71-6.63,5.71H46.99c-2.7,0-6.56-2.56-6.63-5.71h0v-6.7h90.88c0,1.73,1.53,3.14,3.4,3.14h30.72c1.87,0,3.4-1.41,3.4-3.14h90.88Z"/>
      </g>
      <path class="cls-2" d="m228.62,88.81H71.37v97.87h157.25v-97.87Z"/>
    </g>
    <path class="cls-3" d="m136.2,171.84l-29.18-29.18c-.3-.3-.3-.78,0-1.08l6.38-6.38c.3-.3.78-.3,1.08,0l21.72,21.72c.3.3.78.3,1.08,0l48.25-48.25c.3-.3.78-.3,1.08,0l6.38,6.38c.3.3.3.78,0,1.08l-55.71,55.71c-.3.3-.78.3-1.08,0Z"/>
  </g>
</svg>