<?xml version="1.0" encoding="UTF-8"?>
<svg id="Layer_1" data-name="Layer 1" xmlns="http://www.w3.org/2000/svg" xmlns:xlink="http://www.w3.org/1999/xlink" viewBox="0 0 300 300">
  <defs>
    <style>
      .cls-1 {
        fill: #ffe0e7;
      }

      .cls-2 {
        fill: #fff;
      }

      .cls-2, .cls-3, .cls-4 {
        stroke-linecap: round;
      }

      .cls-2, .cls-3, .cls-4, .cls-5 {
        stroke: #003e68;
        stroke-linejoin: round;
        stroke-width: 3.5px;
      }

      .cls-3 {
        fill: #006daa;
      }

      .cls-6 {
        clip-path: url(#clippath);
      }

      .cls-7, .cls-4 {
        fill: none;
      }

      .cls-5 {
        fill: #cfdde8;
      }
    </style>
    <clipPath id="clippath">
      <circle class="cls-7" cx="143.39" cy="119.43" r="62.75"/>
    </clipPath>
  </defs>
  <circle class="cls-1" cx="150" cy="150" r="150"/>
  <g>
    <line class="cls-4" x1="107.11" y1="186.24" x2="179.44" y2="53.27"/>
    <rect class="cls-5" x="135.85" y="206.7" width="13.64" height="34.58"/>
    <path class="cls-5" d="m181.24,36.48l-7.57,13.82c26.49,11.71,44.98,38.21,44.98,69.03,0,41.66-33.77,75.43-75.43,75.43-15.45,0-29.82-4.65-41.78-12.62l-7.57,13.82c14.22,9.18,31.17,14.51,49.36,14.51,50.34,0,91.14-40.81,91.14-91.14,0-36.76-21.77-68.43-53.11-82.85Z"/>
    <rect class="cls-5" x="82.76" y="234.46" width="120.79" height="15.1"/>
    <circle class="cls-3" cx="143.39" cy="119.43" r="62.75"/>
    <g class="cls-6">
      <g>
        <path class="cls-2" d="m210.36,104.22c-1.43-7.81-5.16-19.02-13.14-23.91-2.84.97-5.7,1.9-8.74,1.95-3.98.06-10.17-2.91-12.83.83-1.11,1.56-1.19,4.14-3.05,5.02-1.99.95-5.14.05-7.28.34-1.58.21-4.77.98-5.59,2.6-.89,1.75.4,4.88.25,6.77-.38,4.76-8.7,5.16-12.41,7.41-4.65,2.82-6.65,7.3-7.33,12.58-.91,7.05,1.99,10.23,8.56,12.71,1.97.74,5.52,1.08,7,2.79,1.1,1.28.85,3.65,1.31,5.24,1.14,4,3.17,7.91,1.13,12.13-1.9,3.94-5.64,6.21-6.95,10.64-.64,2.15-1.96,8.56-.4,10.33,3.36,3.81,11.75-1.32,14.3-3.26,3.54-2.69,10.36-5.96,12.7-9.81,1.53-2.53,1.3-5.9,2.67-8.54,2-3.85,4.11-3.1,7.66-4.07,5.71-1.56,1.05-7.54,4.69-9.67,1.69-.99,3.78.21,5.66-1.43,1.85-1.61,2.29-4.15,3.92-5.9,3.16-3.38,7.87-3.33,8.38-8.66.49-5.08.42-11.09-.49-16.08Z"/>
        <path class="cls-2" d="m142.6,73.5c3.9.57,5.97-2.04,9.37-2.64,3.17-.56,4.65,1.28,7.4,2.21,2.76.93,5.69.29,8.38-.75,2.49-.96,5.31-2.2,7.27-4.19,1.31-1.34,4.58-5.17,4.66-6.87.1-2.1-3.05-4.77-4.66-5.54-2.8-1.35-6.18-1.73-9.17-2.51-5.74-1.5-14.17-2.24-20.26.55.37,3.13,1.62,5.01-.19,7.68-1.52,2.22-3.87,3.28-4.95,5.75-1.19,2.72-1.25,5.81,2.16,6.31Z"/>
        <path class="cls-2" d="m131.95,59.6c-2.13-2.32-3.24-5.49-5.36-7.79-2.04,1.94-4.95,2.57-7.05,3.56-3.22,1.52-6.41,3.07-9.62,4.6-6.35,3.03-13.95,7.66-18.44,13.19-2.03,2.5-3.86,5.53-5.33,8.39-1.08,2.09-.84,1.27-.18,3.16.79,2.26,2.29,3.91,2.59,6.41.22,1.86.04,3.8-.13,5.64-.36,3.82-.56,7.51.66,11.27,1.08,3.32,2.2,5.16,2.19,8.78,0,4.58-.23,9.33-1.43,13.8-1.04,3.86-3.85,5.63-6.94,7.89-4.48,3.27-2.67,5.93-.6,10.54,1.34,2.98,2.45,5.86,2.9,9.11.17,1.23.03,2.95.51,3.98.87-.31.94-1.15,1.8-1.57.18-.08,2.21-.49,2.25-.52.58-.35,1.2-.95,1.88-1.49,2.02-1.63,5.34-3.18,6.46-5,.82-1.34.52-2.32,1.95-3.61,1.17-1.06,2.67-2.02,4.13-2.67,1.42-.63,3.19-.89,4.53-1.83,2.02-1.42,1.22-1.19,1.07-3.56-.14-2.2.52-4.75,2.25-6.12,1.73-1.38,4.55-1.8,5.35-4.2.67-1.99-.73-4.9-1.81-6.63-1.37-2.2-4.02-3.34-5.78-5.24-2.03-2.19-1.77-4.23-1.95-7.16-.33-5.33-.89-8.81-5.72-11.52-3.76-2.11-8.46-8.1-5.74-12.75,1.18-2.01,4.33-2.58,6.4-2.9,3.31-.52,3.56-1.83,5.79-4.01,4.17-4.08,10.18-.18,14.27-3.25,2.1-1.58,2.63-4.1,5.83-2.43,1.91.99,3.03,3.92,4.5.74,1.96-4.24-2.21-9.34,3.86-11.49.61-3.73-3.05-3.11-5.08-5.32Z"/>
      </g>
    </g>
    <circle class="cls-4" cx="143.39" cy="119.43" r="62.75"/>
    <path class="cls-3" d="m176.52,100.76c-.84-4.19-8.67-5.77-11.07-1.99-2.11,3.32,4.02,4.6,5.91,5.39,4.23,1.76,4.45,5.03,6.4,8.9,1.72,3.41,3.09,3.67,6.46,4.69,1.99.6,4.63,1.82,6.76.8,2.99-1.44.53-4.36-1.38-5.84-2.01-1.56-4.34-6.49-6.65-7.11-1.97-.53-2.16,1.64-4.41.06-1.71-1.2-1.81-3.19-2-4.9Z"/>
  </g>
</svg>