<svg width="1015" height="202" viewBox="0 0 1015 202" fill="none" xmlns="http://www.w3.org/2000/svg"><path d="M987.612 890.694C987.612 890.694 735.699 962.785 592.836 684.667C449.973 406.55 733.177 439.016 787.488 436.685C841.798 434.354 889.725 433.332 922.144 417.829M932.846 911.78C932.846 911.78 680.933 950.382 555.49 662.622C430.047 374.856 702.549 404.971 772.876 416.605C843.203 428.24 910.26 422.984 958.531 390.041M878.08 932.867C878.08 932.867 626.166 937.979 518.149 640.571C410.126 343.163 671.926 370.92 758.269 396.526C844.612 422.131 930.801 412.637 994.924 362.252M823.314 953.953C823.314 953.953 571.405 925.576 480.808 618.521C390.211 311.465 641.303 336.874 743.662 376.446C846.021 416.017 951.342 402.29 1031.32 334.469M768.547 975.039C768.547 975.039 516.639 913.179 443.462 596.47C370.285 279.766 610.669 302.824 729.05 356.361C847.43 409.898 971.877 391.937 1067.7 306.675M713.781 996.126C713.781 996.126 461.873 900.776 406.121 574.425C350.369 248.074 580.047 268.778 714.443 336.287C848.84 403.795 992.418 381.596 1104.1 278.892M659.015 1017.22C659.015 1017.22 407.106 888.379 368.775 552.379C330.443 216.38 549.418 234.733 699.831 316.207C850.244 397.686 1012.95 371.248 1140.48 251.109M604.243 1038.3C604.243 1038.3 352.34 875.976 331.429 530.329C310.517 184.682 518.79 200.682 685.219 296.127C851.653 391.572 1033.48 360.901 1176.87 223.321M549.477 1059.39C549.477 1059.39 297.574 863.573 294.088 508.278C290.602 152.983 488.162 166.631 670.617 276.047C853.067 385.458 1054.03 350.554 1213.27 195.532M494.71 1080.48C494.71 1080.48 242.807 851.17 256.741 486.228C270.675 121.285 457.533 132.581 656.005 255.962C854.477 379.344 1074.56 340.202 1249.66 167.739M439.944 1101.56C439.944 1101.56 188.041 838.767 219.401 464.182C250.76 89.5971 426.911 98.535 641.398 235.888C855.886 373.235 1095.11 329.86 1286.05 139.961M385.178 1122.65C385.178 1122.65 133.275 826.364 182.06 442.131C230.84 57.8985 396.288 64.4894 626.792 215.808C857.296 367.127 1115.65 319.513 1322.44 112.172M330.412 1143.74C330.412 1143.74 78.5141 813.962 144.714 420.081C210.913 26.2 365.654 30.4385 612.18 195.723C858.705 361.007 1136.18 309.16 1358.83 84.3784M275.645 1164.82C275.645 1164.82 23.7475 801.559 107.372 398.03C190.997 -5.49856 335.031 -3.61242 597.572 175.643C860.114 354.898 1156.72 298.813 1395.22 56.595M220.879 1185.91C220.879 1185.91 -31.0184 789.161 70.0267 375.99C171.072 -37.186 304.403 -37.6523 582.961 155.569C861.518 348.79 1177.25 288.471 1431.61 28.8122M166.113 1207C166.113 1207 -85.7849 776.758 32.6855 353.94C151.156 -68.8793 273.78 -71.7032 568.354 135.489C862.932 342.676 1197.79 278.119 1468 1.02362" stroke="#005B99" stroke-width="2" stroke-miterlimit="10"/></svg>